<svg xmlns="http://www.w3.org/2000/svg" xmlns:xlink="http://www.w3.org/1999/xlink" width="1607.3" height="589.9" viewBox="0 0 1607.3 589.9">
  <defs>
    <style>
      .c61cc5e0-bf1e-4f11-971c-b5819a157cee {
        fill: none;
      }

      .\33 48cb393-e76f-408c-96a9-c3b0fa6ef2ff {
        fill: url(#1a6edfbb-08fd-48ef-8359-1cf6f73f576a);
      }

      .\31 b9c5ace-0dac-4738-a9c0-9a2f373b49cf {
        fill: #fdf0c1;
      }

      .\35 e596205-9ef5-481b-8563-aec0807524cd {
        opacity: 0.6;
      }

      .\30 418fd2c-3cfa-4a16-901c-e2c4f566453e {
        fill: #fff;
      }

      .\35 3a0a108-1c84-41f3-b4ab-6659834448b5 {
        opacity: 0.7;
      }

      .a703bfcc-a51b-4bf0-8e13-1dc3c03e99f7, .e2af5f07-9b96-48b6-b4c5-2d64f2b4ef1e {
        fill: #fae184;
      }

      .e2af5f07-9b96-48b6-b4c5-2d64f2b4ef1e {
        opacity: 0.5;
      }

      .\30 8207414-36ba-4818-bd8d-ab5775b19637, .\39 18c47be-b3e1-415f-97ea-48f2653a93a4 {
        fill: #f8d244;
      }

      .\30 8207414-36ba-4818-bd8d-ab5775b19637 {
        opacity: 0.8;
      }

      .\36 7d35db3-2540-4d86-9a41-dcdc6212927b {
        clip-path: url(#95da9285-1e98-4a90-a9f0-23487ad8f972);
      }

      .\30 44ce331-8cd6-4397-a6bb-450176694d53 {
        fill: #abe4e1;
      }

      .\35 3d01c87-0ac5-453b-96dd-121212fb7c9c {
        fill: #fed5aa;
      }

      .c9c50b45-ef4d-447d-b82c-fca532042ef0 {
        fill: #f4f3f2;
      }

      .\39 b3479c8-7d79-43ad-bb29-d7fab0e65c43 {
        clip-path: url(#d4870a4a-d3af-4442-99c8-94f3fa808115);
      }

      .fcbc2560-d3d0-4a45-9c6f-21d707b9c2dd {
        fill: #ccc;
      }

      .\37 f384d13-e62b-482c-983d-492772cd4adc {
        fill: #ebebeb;
      }

      .\36 6db2111-b28c-4bbc-b3cc-272e9a31c296 {
        clip-path: url(#12d24466-b3a5-4401-b3bf-717fc30a3879);
      }
    </style>
    <radialGradient id="1a6edfbb-08fd-48ef-8359-1cf6f73f576a" cx="1296.65" cy="277" r="689.05" gradientUnits="userSpaceOnUse">
      <stop offset="0" stop-color="#504b52"/>
      <stop offset="0.51" stop-color="#15293c"/>
      <stop offset="1" stop-color="#050c1e"/>
    </radialGradient>
    <clipPath id="95da9285-1e98-4a90-a9f0-23487ad8f972">
      <circle class="c61cc5e0-bf1e-4f11-971c-b5819a157cee" cx="177.4" cy="99.3" r="39"/>
    </clipPath>
    <clipPath id="d4870a4a-d3af-4442-99c8-94f3fa808115">
      <path class="c61cc5e0-bf1e-4f11-971c-b5819a157cee" d="M732.7,501s22.1-48.8,75.5-48.8c0,0-17.1-56.5,83.7-56.5,0,0-1-10.9,20.9-10.9V1h692.8V500.1Z"/>
    </clipPath>
    <clipPath id="12d24466-b3a5-4401-b3bf-717fc30a3879">
      <path class="c61cc5e0-bf1e-4f11-971c-b5819a157cee" d="M801.6,411.5s17.3-16.6,34.1-16.6,34.6,14,34.6,14,29.3,17.8,29.3,31.4c0,0,37.7,6.1,37.7,21.4s1,38.8-19,38.8H5.6V0H799.7Z"/>
    </clipPath>
  </defs>
  <title>Asset 1</title>
  <g id="54169852-add7-4050-acae-0c9573d539ad" data-name="Layer 2">
    <g id="81cf6913-18a2-451d-87d4-88fd9cfab598" data-name="clouds">
      <g>
        <rect class="348cb393-e76f-408c-96a9-c3b0fa6ef2ff" x="5.6" width="1600" height="500"/>
        <polygon class="1b9c5ace-0dac-4738-a9c0-9a2f373b49cf" points="1588.9 294.5 1587.9 296.4 1589.4 298.2 1587.2 297.6 1586.1 299.6 1585.8 297.3 1583.6 296.8 1585.6 295.9 1585.3 293.6 1586.9 295.4 1588.9 294.5"/>
        <polygon class="1b9c5ace-0dac-4738-a9c0-9a2f373b49cf" points="8.3 288.7 10.3 292.1 14.4 291.3 11.5 294.3 13.5 297.7 9.7 296 6.8 299 7.4 295.1 3.6 293.4 7.7 292.6 8.3 288.7"/>
        <g>
          <g class="5e596205-9ef5-481b-8563-aec0807524cd">
            <path class="0418fd2c-3cfa-4a16-901c-e2c4f566453e" d="M828.6,200.8c-2.6,0-2.1,4,.4,4S831.2,200.8,828.6,200.8Z"/>
            <path class="0418fd2c-3cfa-4a16-901c-e2c4f566453e" d="M916,198.2c-2.5,0-2,3.9.5,3.9S918.6,198.2,916,198.2Z"/>
            <path class="0418fd2c-3cfa-4a16-901c-e2c4f566453e" d="M1006.2,177c-2.6,0-2.2,3.9.4,3.9S1008.7,177,1006.2,177Z"/>
            <path class="0418fd2c-3cfa-4a16-901c-e2c4f566453e" d="M966.4,264.4c-2.6,0-2.1,4,.5,4S968.9,264.4,966.4,264.4Z"/>
            <path class="0418fd2c-3cfa-4a16-901c-e2c4f566453e" d="M929.3,150.5c-2.6,0-2.1,3.9.5,3.9S931.8,150.5,929.3,150.5Z"/>
            <path class="0418fd2c-3cfa-4a16-901c-e2c4f566453e" d="M1183.7,216.7c-2.6,0-2,4,.5,4S1186.2,216.7,1183.7,216.7Z"/>
            <path class="0418fd2c-3cfa-4a16-901c-e2c4f566453e" d="M1213.3,349.2c-2.5,0-3,4-.4,4S1215.9,349.2,1213.3,349.2Z"/>
            <path class="0418fd2c-3cfa-4a16-901c-e2c4f566453e" d="M1359.1,267.1c-2.6,0-3,3.9-.4,3.9S1361.6,267.1,1359.1,267.1Z"/>
            <path class="0418fd2c-3cfa-4a16-901c-e2c4f566453e" d="M1473,163.7c-2.6,0-2.9,4-.3,4S1475.5,163.7,1473,163.7Z"/>
            <path class="0418fd2c-3cfa-4a16-901c-e2c4f566453e" d="M1571.1,290.9c-2.6,0-3,4-.4,4S1573.6,290.9,1571.1,290.9Z"/>
            <path class="0418fd2c-3cfa-4a16-901c-e2c4f566453e" d="M1605.4,158.4c-2.6,0-2.7,4-.1,4S1607.9,158.4,1605.4,158.4Z"/>
            <path class="0418fd2c-3cfa-4a16-901c-e2c4f566453e" d="M1295.4,49.7c-2.6,0-2.9,4-.3,4S1298,49.7,1295.4,49.7Z"/>
            <path class="0418fd2c-3cfa-4a16-901c-e2c4f566453e" d="M1313.7,155.8c-2.6,0-2.4,3.9.2,3.9S1316.3,155.8,1313.7,155.8Z"/>
            <path class="0418fd2c-3cfa-4a16-901c-e2c4f566453e" d="M1379.4,131.4a1.9,1.9,0,0,0-1.8-2.1,2,2,0,0,0-2.2,1.8v2.7a2.1,2.1,0,0,0,1.9,2.1,2,2,0,0,0,2.1-1.9Z"/>
            <path class="0418fd2c-3cfa-4a16-901c-e2c4f566453e" d="M1358.6,179.6c-2.5,0-2,4,.5,4S1361.1,179.6,1358.6,179.6Z"/>
            <path class="0418fd2c-3cfa-4a16-901c-e2c4f566453e" d="M1417.4,195.5c-2.6,0-3,4-.4,4S1419.9,195.5,1417.4,195.5Z"/>
            <path class="0418fd2c-3cfa-4a16-901c-e2c4f566453e" d="M1316.2,208.8c-2.5,0-2,3.9.5,3.9S1318.7,208.8,1316.2,208.8Z"/>
            <path class="0418fd2c-3cfa-4a16-901c-e2c4f566453e" d="M1284.8,126.6c-2.6,0-2.9,4-.3,4S1287.4,126.6,1284.8,126.6Z"/>
            <path class="0418fd2c-3cfa-4a16-901c-e2c4f566453e" d="M1335.3,113.4c-2.6,0-3.1,3.9-.5,3.9S1337.8,113.4,1335.3,113.4Z"/>
            <path class="0418fd2c-3cfa-4a16-901c-e2c4f566453e" d="M1353.8,145.2c-2.6,0-3,3.9-.4,3.9S1356.3,145.2,1353.8,145.2Z"/>
            <path class="0418fd2c-3cfa-4a16-901c-e2c4f566453e" d="M357.3,155.8c-2.5,0-3,3.9-.5,3.9S359.9,155.8,357.3,155.8Z"/>
            <path class="0418fd2c-3cfa-4a16-901c-e2c4f566453e" d="M311.8,182.3c-2.6,0-2.1,3.9.5,3.9S314.3,182.3,311.8,182.3Z"/>
            <path class="0418fd2c-3cfa-4a16-901c-e2c4f566453e" d="M272.4,230c-2.5,0-2.9,3.9-.3,3.9S275,230,272.4,230Z"/>
            <path class="0418fd2c-3cfa-4a16-901c-e2c4f566453e" d="M227.4,179.6c-2.5,0-3,4-.4,4S230,179.6,227.4,179.6Z"/>
            <path class="0418fd2c-3cfa-4a16-901c-e2c4f566453e" d="M274.9,139.8a2,2,0,0,0,0,4A2,2,0,0,0,274.9,139.8Z"/>
            <path class="0418fd2c-3cfa-4a16-901c-e2c4f566453e" d="M309.6,113.4c-2.5,0-3,3.9-.5,3.9S312.2,113.4,309.6,113.4Z"/>
            <path class="0418fd2c-3cfa-4a16-901c-e2c4f566453e" d="M317.5,155.8c-2.5,0-2.9,3.9-.4,3.9S320.1,155.8,317.5,155.8Z"/>
            <path class="0418fd2c-3cfa-4a16-901c-e2c4f566453e" d="M267.1,184.9c-2.5,0-2.9,4-.3,4S269.7,184.9,267.1,184.9Z"/>
            <path class="0418fd2c-3cfa-4a16-901c-e2c4f566453e" d="M153.1,261.8c-2.5,0-2.8,3.9-.3,3.9S155.7,261.8,153.1,261.8Z"/>
            <path class="0418fd2c-3cfa-4a16-901c-e2c4f566453e" d="M92.1,336c-2.5,0-2.7,3.9-.2,3.9S94.7,336,92.1,336Z"/>
            <path class="0418fd2c-3cfa-4a16-901c-e2c4f566453e" d="M219.4,312.1c-2.5,0-2.9,4-.3,4S222,312.1,219.4,312.1Z"/>
            <path class="0418fd2c-3cfa-4a16-901c-e2c4f566453e" d="M118.7,179.6c-2.5,0-2.9,4-.4,4S121.3,179.6,118.7,179.6Z"/>
            <path class="0418fd2c-3cfa-4a16-901c-e2c4f566453e" d="M12.3,272.4c-2.5,0-2.1,3.9.4,3.9S14.9,272.4,12.3,272.4Z"/>
            <path class="0418fd2c-3cfa-4a16-901c-e2c4f566453e" d="M362.5,272.4c-2.6,0-2.8,3.9-.2,3.9S365,272.4,362.5,272.4Z"/>
            <path class="0418fd2c-3cfa-4a16-901c-e2c4f566453e" d="M484.3,232.6c-2.5,0-2.6,4-.1,4S486.9,232.6,484.3,232.6Z"/>
            <path class="0418fd2c-3cfa-4a16-901c-e2c4f566453e" d="M534.7,134.5a2.1,2.1,0,0,0-2.1,2v2.6a2.1,2.1,0,0,0,1.9,2.1,2,2,0,0,0,2.1-1.9v-2.7A2.1,2.1,0,0,0,534.7,134.5Z"/>
            <path class="0418fd2c-3cfa-4a16-901c-e2c4f566453e" d="M704.2,153.1c-2.5,0-2.5,4,0,4A2,2,0,0,0,704.2,153.1Z"/>
            <path class="0418fd2c-3cfa-4a16-901c-e2c4f566453e" d="M778.7,92.2c-2.5,0-3,3.9-.5,3.9S781.3,92.2,778.7,92.2Z"/>
            <path class="0418fd2c-3cfa-4a16-901c-e2c4f566453e" d="M654,78.9c-2.6,0-2.8,4-.2,4S656.6,78.9,654,78.9Z"/>
            <path class="0418fd2c-3cfa-4a16-901c-e2c4f566453e" d="M1030,336c-2.5,0-2.1,3.9.4,3.9S1032.6,336,1030,336Z"/>
            <path class="0418fd2c-3cfa-4a16-901c-e2c4f566453e" d="M895.3,322.7c-2.6,0-3,4-.4,4S897.8,322.7,895.3,322.7Z"/>
            <path class="0418fd2c-3cfa-4a16-901c-e2c4f566453e" d="M937.6,378.4c-2.5,0-2.8,3.9-.3,3.9S940.2,378.4,937.6,378.4Z"/>
            <path class="0418fd2c-3cfa-4a16-901c-e2c4f566453e" d="M1136.1,338.6c-2.6,0-2.3,4,.3,4S1138.6,338.6,1136.1,338.6Z"/>
            <path class="0418fd2c-3cfa-4a16-901c-e2c4f566453e" d="M1114.8,381c-2.6,0-2.1,4,.5,4S1117.3,381,1114.8,381Z"/>
            <path class="0418fd2c-3cfa-4a16-901c-e2c4f566453e" d="M1160.2,288.3c-2.5,0-2.8,3.9-.3,3.9S1162.8,288.3,1160.2,288.3Z"/>
            <path class="0418fd2c-3cfa-4a16-901c-e2c4f566453e" d="M1239.5,288.3c-2.6,0-2.3,3.9.2,3.9S1242,288.3,1239.5,288.3Z"/>
            <path class="0418fd2c-3cfa-4a16-901c-e2c4f566453e" d="M1284.6,328c-2.6,0-2.5,4,.1,4S1287.2,328,1284.6,328Z"/>
            <path class="0418fd2c-3cfa-4a16-901c-e2c4f566453e" d="M1360.4,310.1a2.1,2.1,0,0,0-2.9-.1,2,2,0,0,0-.5,2.1h-.7a2,2,0,1,0-.2,4c1.8,0,3.7.1,5.1-1.1S1361.5,311.3,1360.4,310.1Z"/>
            <path class="0418fd2c-3cfa-4a16-901c-e2c4f566453e" d="M1427.5,290.9c-2.5,0-2,4,.5,4S1430.1,290.9,1427.5,290.9Z"/>
            <path class="0418fd2c-3cfa-4a16-901c-e2c4f566453e" d="M1486.1,304.2c-2.5,0-2.6,3.9-.1,3.9S1488.7,304.2,1486.1,304.2Z"/>
            <path class="0418fd2c-3cfa-4a16-901c-e2c4f566453e" d="M314.8,343.9c-2.6,0-2.8,4-.2,4S317.3,343.9,314.8,343.9Z"/>
            <path class="0418fd2c-3cfa-4a16-901c-e2c4f566453e" d="M150.2,396.9c-2.6,0-2.3,4,.3,4S152.7,396.9,150.2,396.9Z"/>
            <path class="0418fd2c-3cfa-4a16-901c-e2c4f566453e" d="M44.4,447.3c-2.6,0-2.7,4-.1,4S46.9,447.3,44.4,447.3Z"/>
            <path class="0418fd2c-3cfa-4a16-901c-e2c4f566453e" d="M322.8,290.9c-2.5,0-3,4-.4,4S325.4,290.9,322.8,290.9Z"/>
            <path class="0418fd2c-3cfa-4a16-901c-e2c4f566453e" d="M389,343.9c-2.6,0-2.8,4-.2,4S391.5,343.9,389,343.9Z"/>
            <path class="0418fd2c-3cfa-4a16-901c-e2c4f566453e" d="M395.5,413.4a1.9,1.9,0,0,0-2.8.1l-2.6,2.6a2,2,0,0,0,2.9,2.7l2.6-2.6A1.9,1.9,0,0,0,395.5,413.4Z"/>
            <path class="0418fd2c-3cfa-4a16-901c-e2c4f566453e" d="M346.5,460.5a2,2,0,0,0,0,4C349,464.5,349,460.5,346.5,460.5Z"/>
            <path class="0418fd2c-3cfa-4a16-901c-e2c4f566453e" d="M886.9,78.9c-2.6,0-2.1,4,.5,4S889.4,78.9,886.9,78.9Z"/>
            <path class="0418fd2c-3cfa-4a16-901c-e2c4f566453e" d="M1064.8,116c-2.5,0-2.8,4-.3,4S1067.4,116,1064.8,116Z"/>
            <path class="0418fd2c-3cfa-4a16-901c-e2c4f566453e" d="M1191.9,147.8c-2.5,0-2.6,4-.1,4S1194.5,147.8,1191.9,147.8Z"/>
            <path class="0418fd2c-3cfa-4a16-901c-e2c4f566453e" d="M118.8,78.9c-2.6,0-3.1,4-.5,4S121.3,78.9,118.8,78.9Z"/>
            <path class="0418fd2c-3cfa-4a16-901c-e2c4f566453e" d="M25.9,139.9c-2.5,0-2.8,3.9-.3,3.9S28.5,139.9,25.9,139.9Z"/>
            <path class="0418fd2c-3cfa-4a16-901c-e2c4f566453e" d="M2.1,70.9c-2.6,0-2.9,4-.3,4S4.6,70.9,2.1,70.9Z"/>
            <path class="0418fd2c-3cfa-4a16-901c-e2c4f566453e" d="M224.6,33.8c-2.6,0-2.7,4-.1,4S227.2,33.8,224.6,33.8Z"/>
            <path class="0418fd2c-3cfa-4a16-901c-e2c4f566453e" d="M1396,47.1a2,2,0,0,0,0,4C1398.5,51.1,1398.5,47.1,1396,47.1Z"/>
            <path class="0418fd2c-3cfa-4a16-901c-e2c4f566453e" d="M1523.3,65.6c-2.5,0-2.8,4-.3,4S1525.9,65.6,1523.3,65.6Z"/>
            <path class="0418fd2c-3cfa-4a16-901c-e2c4f566453e" d="M982.6,17.9c-2.5,0-2.7,4-.2,4S985.2,17.9,982.6,17.9Z"/>
            <path class="0418fd2c-3cfa-4a16-901c-e2c4f566453e" d="M757.3,15.3c-2.6,0-2.7,4-.1,4S759.9,15.3,757.3,15.3Z"/>
            <path class="0418fd2c-3cfa-4a16-901c-e2c4f566453e" d="M489.8,10c-2.5,0-3,3.9-.5,3.9S492.4,10,489.8,10Z"/>
            <path class="0418fd2c-3cfa-4a16-901c-e2c4f566453e" d="M454.4,72.7a1.9,1.9,0,0,0-2.2-1.7h-2.1a2.1,2.1,0,0,0-2.3,1.7,2,2,0,0,0,1.8,2.2h3.1A1.9,1.9,0,0,0,454.4,72.7Z"/>
            <path class="0418fd2c-3cfa-4a16-901c-e2c4f566453e" d="M574.6,23.2c-2.6,0-3,4-.4,4S577.1,23.2,574.6,23.2Z"/>
            <path class="0418fd2c-3cfa-4a16-901c-e2c4f566453e" d="M741.5,70.9c-2.6,0-2.9,4-.3,4S744.1,70.9,741.5,70.9Z"/>
            <path class="0418fd2c-3cfa-4a16-901c-e2c4f566453e" d="M837,49.7c-2.6,0-3,4-.4,4S839.5,49.7,837,49.7Z"/>
            <path class="0418fd2c-3cfa-4a16-901c-e2c4f566453e" d="M823.6,108c-2.6,0-2.7,4-.1,4S826.1,108,823.6,108Z"/>
            <path class="0418fd2c-3cfa-4a16-901c-e2c4f566453e" d="M987.9,89.5c-2.6,0-2.7,4-.1,4S990.4,89.5,987.9,89.5Z"/>
            <path class="0418fd2c-3cfa-4a16-901c-e2c4f566453e" d="M1062.2,39.1c-2.6,0-2.9,4-.3,4S1064.7,39.1,1062.2,39.1Z"/>
            <path class="0418fd2c-3cfa-4a16-901c-e2c4f566453e" d="M1112.1,10c-2.5,0-2,3.9.5,3.9S1114.7,10,1112.1,10Z"/>
            <path class="0418fd2c-3cfa-4a16-901c-e2c4f566453e" d="M1125.8,86.9c-2.5,0-2.9,3.9-.4,3.9S1128.4,86.9,1125.8,86.9Z"/>
            <path class="0418fd2c-3cfa-4a16-901c-e2c4f566453e" d="M1194.7,63c-2.5,0-2.9,4-.3,4S1197.3,63,1194.7,63Z"/>
            <path class="0418fd2c-3cfa-4a16-901c-e2c4f566453e" d="M1255.4,100.1c-2.6,0-2.4,4,.2,4S1258,100.1,1255.4,100.1Z"/>
            <path class="0418fd2c-3cfa-4a16-901c-e2c4f566453e" d="M1104.5,235.3c-2.6,0-2.7,3.9-.1,3.9S1107,235.3,1104.5,235.3Z"/>
            <path class="0418fd2c-3cfa-4a16-901c-e2c4f566453e" d="M1242.4,237.9c-2.5,0-2.9,4-.3,4S1245,237.9,1242.4,237.9Z"/>
          </g>
          <g class="53a0a108-1c84-41f3-b4ab-6659834448b5">
            <path class="0418fd2c-3cfa-4a16-901c-e2c4f566453e" d="M814,303.1c-7.4,0-5.9,11.4,1.4,11.4S821.3,303.1,814,303.1Z"/>
            <path class="0418fd2c-3cfa-4a16-901c-e2c4f566453e" d="M1241.1,409.7c-7.4,0-6.5,11.5.9,11.5S1248.5,409.7,1241.1,409.7Z"/>
            <path class="0418fd2c-3cfa-4a16-901c-e2c4f566453e" d="M1028.6,237.5c-7.4,0-8.8,11.4-1.4,11.4S1035.9,237.5,1028.6,237.5Z"/>
            <path class="0418fd2c-3cfa-4a16-901c-e2c4f566453e" d="M279.5,278.6c-7.4,0-8.6,11.4-1.2,11.4S286.9,278.6,279.5,278.6Z"/>
            <path class="0418fd2c-3cfa-4a16-901c-e2c4f566453e" d="M239.3,436.4c-7.4,0-8.2,11.5-.8,11.5S246.7,436.4,239.3,436.4Z"/>
            <path class="0418fd2c-3cfa-4a16-901c-e2c4f566453e" d="M464.9,163c-7.4,0-5.9,11.4,1.4,11.4S472.3,163,464.9,163Z"/>
          </g>
        </g>
        <g id="946f08a3-1708-4ffc-8af9-1a4fd3560bc7" data-name="That&apos;s no Moon">
          <g>
            <circle class="1b9c5ace-0dac-4738-a9c0-9a2f373b49cf" cx="1299.9" cy="274.3" r="165.8"/>
            <path class="e2af5f07-9b96-48b6-b4c5-2d64f2b4ef1e" d="M1366.8,122.5a165.5,165.5,0,0,1,55.4,89.6c21,89.1-34.3,178.4-123.4,199.4a164.9,164.9,0,0,1-104.9-9.7,165.4,165.4,0,0,0,144,33.9c89.1-21,144.4-110.3,123.4-199.4A165.6,165.6,0,0,0,1366.8,122.5Z"/>
            <circle class="08207414-36ba-4818-bd8d-ab5775b19637" cx="1256.5" cy="148.5" r="20.2"/>
            <ellipse class="08207414-36ba-4818-bd8d-ab5775b19637" cx="1191.6" cy="220.5" rx="42.6" ry="32.5" transform="translate(636.8 1297.9) rotate(-73.2)"/>
          </g>
        </g>
        <circle class="a703bfcc-a51b-4bf0-8e13-1dc3c03e99f7" cx="177.4" cy="99.3" r="39"/>
        <g class="67d35db3-2540-4d86-9a41-dcdc6212927b">
          <path class="918c47be-b3e1-415f-97ea-48f2653a93a4" d="M196.1,63.7c-2.3,1-6,2.3-7.5,4.4-3.9,5.9.1,3.2,2.3,7.4,2.9,5.8,5,4.4,2.3,14.7-2,4,10,5,10.3,10.5.2,2.7-9.5,3.2-12.7,0s-1-6.1-2.8-8.2-4-3.8-6.1-3-1.3,3.8-2.7,6.1-2.8-.1-7.3.6-5.6-10.5-10.5-5.9c-.9,1-1.5,5.6-2.5,7.2s-3.5,2.5-4.1,4.1c-1.8,4.7,6.1,8.6,7,14s-5.1,7.4-.4,10.2-2.3,4.3-2.3,14.1c0,1.5,36.2,15.5,36.2,15.5l49.6-45.8L229.4,63Z"/>
        </g>
        <path class="918c47be-b3e1-415f-97ea-48f2653a93a4" d="M177.3,83.6c-.9.7-.4,2.2-.4,2.4-.8,1.9-2,1.3-2.1,3.2,8.5,1.7,10.3-12.2,4.9-8.8S179.1,82.1,177.3,83.6Z"/>
        <path class="044ce331-8cd6-4397-a6bb-450176694d53" d="M216.4,99.8a38.2,38.2,0,0,1-.7,6.8c14.2,13.5,22.3,24.2,19.9,27.7-3.7,5.5-32.6-9.7-64.6-34.1s-54.9-48.5-51.2-54,19.7,3.3,41.5,17.6a38.4,38.4,0,0,1,5.1-1.9C127.8,35.7,95.8,20.8,90.8,27.6s27.9,43.6,75.7,79.2,91.5,58,97.4,49.9C268.6,150.3,248.6,126.9,216.4,99.8Z"/>
        <polygon class="918c47be-b3e1-415f-97ea-48f2653a93a4" points="1057.3 185.8 1062 193.9 1071.8 192.1 1064.9 199.1 1069.5 207.2 1060.6 203.2 1053.6 210.1 1055 200.9 1046.1 196.9 1055.9 195.1 1057.3 185.8"/>
        <polygon class="918c47be-b3e1-415f-97ea-48f2653a93a4" points="1023.8 223 1033.5 235.9 1049.8 230.8 1039.4 244 1049 256.9 1032.9 252 1022.5 265.2 1023 249.2 1007 244.2 1023.4 239.1 1023.8 223"/>
        <polygon class="918c47be-b3e1-415f-97ea-48f2653a93a4" points="973.4 245.1 973.4 260.4 988.8 265.8 973.3 270 973.3 285.3 963.8 272.4 948.3 276.5 957.9 264.6 948.5 251.7 963.9 257.1 973.4 245.1"/>
        <polygon class="918c47be-b3e1-415f-97ea-48f2653a93a4" points="964.4 189.2 969.6 193.8 976 190.2 972.8 196.7 978 201.3 970.8 200.6 967.5 207.1 966.3 200.3 959.1 199.6 965.6 196 964.4 189.2"/>
        <polygon class="918c47be-b3e1-415f-97ea-48f2653a93a4" points="1007.1 173.9 1007.6 177.7 1011.6 178.6 1007.9 180.1 1008.4 183.9 1005.6 181.1 1001.9 182.6 1003.9 179.3 1001.1 176.4 1005.1 177.2 1007.1 173.9"/>
        <g>
          <g>
            <g>
              <path class="53d01c87-0ac5-453b-96dd-121212fb7c9c" d="M990.5,349.4s-2.6-36.1,1.6-40,29.9,1.6,30.6,6.5S1012,351,1012,351Z"/>
              <path class="53d01c87-0ac5-453b-96dd-121212fb7c9c" d="M999.6,300a2.8,2.8,0,0,0-2.6-3,2.8,2.8,0,0,0-3.1,2.6l-1.3,15,5.7.4Z"/>
              <path class="53d01c87-0ac5-453b-96dd-121212fb7c9c" d="M1008.7,295.2a2.8,2.8,0,0,0-2.6-3.1h-1.4a2.8,2.8,0,0,0-3.1,2.6l-1.5,17.2,7.1.6Z"/>
              <path class="53d01c87-0ac5-453b-96dd-121212fb7c9c" d="M1018,291.5a3.5,3.5,0,0,0-3.2-3.8,3.8,3.8,0,0,0-4,3.4l-2.2,25.2,7.2.6Z"/>
              <path class="53d01c87-0ac5-453b-96dd-121212fb7c9c" d="M1027.3,297.1a2.8,2.8,0,0,0-2.1-3.4,3.6,3.6,0,0,0-4.2,2.6l-5.5,23.7,6.2,1.4Z"/>
              <path class="53d01c87-0ac5-453b-96dd-121212fb7c9c" d="M1025.7,326s-4.9,11.7-8.7,14.3a45.4,45.4,0,0,0-5.8,4.4l2.2-15.1s10.1-14.6,11.8-14.9c0,0,5.8-.4,5.6,1.4S1025.7,326,1025.7,326Z"/>
            </g>
            <path class="53d01c87-0ac5-453b-96dd-121212fb7c9c" d="M994.8,404.7h26.3a272.2,272.2,0,0,1-5.9-50.5c-.1-3.6-.4-7.3-.3-10.9-9,0-15.9-.5-24.8-.5-.1,4-.5,8.7-.4,12.6A307.3,307.3,0,0,0,994.8,404.7Z"/>
          </g>
          <path class="c9c50b45-ef4d-447d-b82c-fca532042ef0" d="M986.4,361.8l2.3,57.4,30.5.9-2.3-75.9c-21.4-1.7-35.6,4.2-33.8,8.5C984.2,355.2,985.5,359,986.4,361.8Z"/>
        </g>
        <g class="9b3479c8-7d79-43ad-bb29-d7fab0e65c43">
          <g>
            <path class="fcbc2560-d3d0-4a45-9c6f-21d707b9c2dd" d="M1606.2,97.5c-8.3,3.3-16.1,13.3-20.2,27.8a68.2,68.2,0,0,0-2.3,10.9c-10.2-8.3-23.9-6.6-34.6,6s-16.2,34.8-12.9,53.2a53.8,53.8,0,0,0-20,28.8,42,42,0,0,0-18.3-4.2c-17.5,0-32.6,10.9-39.3,26.5h-3c-23.8,0-43.1,20.1-43.1,44.9a44.3,44.3,0,0,0,1.8,12.7,47.3,47.3,0,0,0-14.4,21.9l-2.5-.2-.6-.2c-17.2-5-38.5,7.4-48.8,27-6.9,13.1-7.7,27.2-2.9,37.5a37.4,37.4,0,0,0-26.3,22.5,36.9,36.9,0,0,0-54.3,10.7c-2.1-14-15.1-24.9-30.9-24.9a32.7,32.7,0,0,0-18.1,5.4c-5.6-11.7-18.1-19.9-32.7-19.9h-2.4c-16.6,0-30.1,8.8-30.3,19.7h0a29.8,29.8,0,0,0-37.5,6.4c-4.3-10.4-13-18.2-23.6-20.3-.3-10.9-12.2-19.6-26.8-19.6a34.4,34.4,0,0,0-11.8,2.1,32.7,32.7,0,0,0-16.9,13.4,31,31,0,0,0-22.3-9.7c-16.3,0-29.8,13.1-32.2,30.2a29.6,29.6,0,0,0-16.7-5.1,30.5,30.5,0,0,0-19.1,6.8,31.5,31.5,0,0,0-8.1-14.1c-4.8-5.4-13-8.9-22.3-8.9h-2.7a28.7,28.7,0,0,0,1.1-7.7c0-12.6-8-23.2-18.8-26.6a32.8,32.8,0,0,0,3.3-14.4,30.4,30.4,0,0,0-.4-5.2,21.2,21.2,0,0,0-1.4-5.5,33.7,33.7,0,0,0-30.1-22.2,27,27,0,0,0-4.9-.4c-6.5,0-11.9,1.9-15.9,5.1a26.9,26.9,0,0,0-5.5-1.7c-2.2-15.3-12.1-28.1-26.5-32a20.7,20.7,0,0,0-4.2-.8,40.5,40.5,0,0,0-38.9-31.6c-11.1,0-19.2,5.6-22.2,13.4a26,26,0,0,0-8.7-6.2,26.9,26.9,0,0,0-21-.5,32.6,32.6,0,0,0-8.4-9,43.1,43.1,0,0,0-55.3-54,33.7,33.7,0,0,0-15.6-14.4,40.6,40.6,0,0,0-8-2.4,39.5,39.5,0,0,0,6.6-23.6c-.7-16.8-18.9-30.4-36.6-30.4a27.8,27.8,0,0,0-5.1.4c-1.7-7.8-6.4-14.4-13.5-17.5a21.8,21.8,0,0,0-9.7-1.9c8.2-33.1-27.5-74.7-47.6-75.5V589.9H1606.2Z"/>
            <path class="7f384d13-e62b-482c-983d-492772cd4adc" d="M1573.2,228.5c-5.7-6.2-13.1-9.9-21.2-9.9-18.2,0-33,19-33,42.3a56.4,56.4,0,0,0,.8,9.3c-14.8,12.7-30.8,26.2-46.3,39.9a33.9,33.9,0,0,0-13.9-2.9,34.3,34.3,0,0,0-34.4,34.3,33.1,33.1,0,0,0,2.3,12.2c-2.1,2.1-4,4.2-5.9,6.3h-.4c-25.3,0-45.9,18.9-46.2,42.4-8.4-6.8-21.8-8.7-34.8-3.9a43.4,43.4,0,0,0-13.7,8.2A41.8,41.8,0,0,0,1312,433a35.2,35.2,0,0,0-20.6,10.9,15.4,15.4,0,0,0-1.9-2.8c-9.6-12.4-29.6-12.9-44.8-1.1a38,38,0,0,0-9.6,10.5c-21.7.5-44.8.3-66.6-.7a32.5,32.5,0,0,0-6.3-25.5c-11.1-14.4-32.3-16.7-47.2-5.2l-.7.6a23.8,23.8,0,0,0-3.8-7c-5.1-6.7-13.4-9.9-22.2-9.6a25.1,25.1,0,0,0-50.2-.4l-8.9,5a33.8,33.8,0,0,0-9.6-1.4,31.5,31.5,0,0,0-27.1,15.3,41.9,41.9,0,0,0-45.2,12.9,179,179,0,0,1-36,.8c-11.2-.8-22.9-2.3-35-4.2a89.6,89.6,0,0,0-3.7-16.3,29.3,29.3,0,0,0,7-19.1c0-15.3-11.3-27.8-25.1-27.8a24.1,24.1,0,0,0-12.9,3.9,87,87,0,0,0-51.9-17.1,79.3,79.3,0,0,0-9.8.6,41.4,41.4,0,0,0-21.2-5.9,36.8,36.8,0,0,0-6.6.6,37.7,37.7,0,0,0,7.2-22.4c0-20.8-16.5-37.6-37-37.6a36.5,36.5,0,0,0-28.9,14.3,96.7,96.7,0,0,0-12.1-2.8A34.1,34.1,0,0,0,660,271.4a32.5,32.5,0,0,0-24.2-31.1c7.2-11.5,8.2-26,1.3-37.8-10.1-17.5-33.6-22.7-52.4-11.8a41.7,41.7,0,0,0-16,16.6c-9-9.9-17.8-19.5-25.4-27.5,15.4-8.6,25.8-25.5,25.8-45.1,0-27.3-20.5-49.7-46.3-50.8V588.4l1083.4,1.5V208.6A327.5,327.5,0,0,0,1573.2,228.5Z"/>
            <ellipse class="fcbc2560-d3d0-4a45-9c6f-21d707b9c2dd" cx="565.1" cy="188.3" rx="32.8" ry="32.2"/>
            <path class="7f384d13-e62b-482c-983d-492772cd4adc" d="M601.4,187.3c0-16-15.9-29.2-36.9-29.4a32.4,32.4,0,0,0-32.8,32.2c0,17.8,14.7,32.3,32.8,32.3a32.7,32.7,0,0,0,27.7-15.1A27.1,27.1,0,0,0,601.4,187.3Z"/>
            <path class="fcbc2560-d3d0-4a45-9c6f-21d707b9c2dd" d="M644.4,229.9c6-16.4-5.1-35.6-26.1-43.5a34.9,34.9,0,1,0,9.5,60.4A29.7,29.7,0,0,0,644.4,229.9Z"/>
            <path class="7f384d13-e62b-482c-983d-492772cd4adc" d="M639,232.9c6.2-17-4.6-36.8-25.6-44.7-18.1-6.8-38.5,3.3-45.4,22.1s2.3,39.6,20.5,46.2a34.7,34.7,0,0,0,33.6-5.8A30.9,30.9,0,0,0,639,232.9Z"/>
            <ellipse class="fcbc2560-d3d0-4a45-9c6f-21d707b9c2dd" cx="781.1" cy="325.7" rx="41" ry="42.2" transform="translate(-61.7 248.8) rotate(-17.4)"/>
            <ellipse class="7f384d13-e62b-482c-983d-492772cd4adc" cx="781.3" cy="328.2" rx="41.8" ry="42.2" transform="translate(-62.4 248.9) rotate(-17.4)"/>
            <ellipse class="fcbc2560-d3d0-4a45-9c6f-21d707b9c2dd" cx="829.4" cy="358.7" rx="41" ry="37" transform="matrix(0.94, -0.35, 0.35, 0.94, -72.91, 309.68)"/>
            <ellipse class="7f384d13-e62b-482c-983d-492772cd4adc" cx="828" cy="361" rx="41" ry="37" transform="translate(-73.8 309.3) rotate(-20.3)"/>
            <ellipse class="fcbc2560-d3d0-4a45-9c6f-21d707b9c2dd" cx="887.5" cy="419.5" rx="25.1" ry="27.7"/>
            <ellipse class="7f384d13-e62b-482c-983d-492772cd4adc" cx="885.6" cy="422.6" rx="25.1" ry="27.7"/>
            <path class="fcbc2560-d3d0-4a45-9c6f-21d707b9c2dd" d="M967,450.6c0-22.9-20.2-41.6-45.1-41.6a48.3,48.3,0,0,0-10.8,1.2c-20.9,3.6-36.7,20.6-36.7,40.9,0,23,20.2,41.6,45.1,41.6a48.3,48.3,0,0,0,10.8-1.2C951.1,487.9,967,471,967,450.6Z"/>
            <path class="7f384d13-e62b-482c-983d-492772cd4adc" d="M967.7,453.3c0-23-20.6-41.7-46-41.8a49.4,49.4,0,0,0-11,1.2c-21.4,3.6-37.5,20.5-37.5,40.8,0,23,20.6,41.7,46,41.8a49.4,49.4,0,0,0,11-1.2C951.5,490.5,967.7,473.6,967.7,453.3Z"/>
            <path class="fcbc2560-d3d0-4a45-9c6f-21d707b9c2dd" d="M1081.9,430.6c0-22.2-21.8-40.2-48.7-40.2-14.3,0-27.1,5.1-36,13.1a41.5,41.5,0,0,0,26.7,73.5,40.9,40.9,0,0,0,25-8.4C1068.1,463.2,1081.9,448.2,1081.9,430.6Z"/>
            <path class="7f384d13-e62b-482c-983d-492772cd4adc" d="M1082.7,432.2c0-22.4-21.9-40.5-48.8-40.5-14.3,0-27.1,5.1-36,13.2a41.9,41.9,0,0,0,26.7,74,40.9,40.9,0,0,0,25.1-8.5C1068.9,465,1082.7,449.9,1082.7,432.2Z"/>
            <ellipse class="fcbc2560-d3d0-4a45-9c6f-21d707b9c2dd" cx="1427.9" cy="366.6" rx="33" ry="42.3" transform="translate(74.7 951.5) rotate(-37.8)"/>
            <ellipse class="7f384d13-e62b-482c-983d-492772cd4adc" cx="1432.4" cy="367.1" rx="35.9" ry="42.3" transform="translate(75.4 954.4) rotate(-37.8)"/>
            <path class="fcbc2560-d3d0-4a45-9c6f-21d707b9c2dd" d="M1206.3,444.2c9.3,11.9,6.8,29.4-5.6,38.9s-29.9,7.7-39.2-4.2-6.7-29.4,5.7-39S1197.1,432.2,1206.3,444.2Z"/>
            <path class="7f384d13-e62b-482c-983d-492772cd4adc" d="M1212.4,450.3a21.3,21.3,0,0,0-5.5-4.9l-1.1-1.5c-8.2-10.6-25.7-10.9-39-.7s-17.3,27.3-9,38a19.4,19.4,0,0,0,5.5,4.8,9.7,9.7,0,0,0,1,1.5c8.3,10.7,25.7,11,39,.7S1220.6,461,1212.4,450.3Z"/>
            <ellipse class="fcbc2560-d3d0-4a45-9c6f-21d707b9c2dd" cx="680.1" cy="286" rx="30.4" ry="29.1" transform="translate(203.9 849.6) rotate(-72.6)"/>
            <path class="7f384d13-e62b-482c-983d-492772cd4adc" d="M672.2,259.4c-11.1,4.3-16.4,10.2-19.6,20.2-5,16,3.4,32.9,18.7,37.7a30.3,30.3,0,0,0,10.3,1.2,29.2,29.2,0,0,0,8.4-.7c13.5.1,25.7-7.9,29.7-20.6C724.6,281.4,701.7,248.2,672.2,259.4Z"/>
            <path class="fcbc2560-d3d0-4a45-9c6f-21d707b9c2dd" d="M1512.3,242.7a59.1,59.1,0,0,0-37.5,13.6c-14.1,10.3-23.2,26.4-23.2,44.1,0,28.4,23.6,50.4,52.9,50.4a59.8,59.8,0,0,0,38-13.8c12.6-9.2,21.4-23.2,22.9-39.2C1568.3,267.7,1544.5,242.4,1512.3,242.7Z"/>
            <path class="fcbc2560-d3d0-4a45-9c6f-21d707b9c2dd" d="M1257.7,424.9c12.5,16,10.6,38.3-4.1,49.6s-36.6,7.7-49.1-8.4-10.6-38.3,4.1-49.6S1245.3,408.8,1257.7,424.9Z"/>
            <path class="7f384d13-e62b-482c-983d-492772cd4adc" d="M1257.3,429c12.4,16,10.8,38.2-3.7,49.4s-36.4,7.3-48.8-8.7-10.8-38.1,3.7-49.4S1244.9,413,1257.3,429Z"/>
            <path class="fcbc2560-d3d0-4a45-9c6f-21d707b9c2dd" d="M1047.9,420.1c-15.1.7-26.9,12.4-26.3,26.1s13.5,24.3,28.6,23.6,27-12.4,26.3-26.2S1063.1,419.4,1047.9,420.1Z"/>
            <path class="7f384d13-e62b-482c-983d-492772cd4adc" d="M1047.2,420.9c-16.4-.6-29.7,10-29.7,23.8s13.1,25.5,29.5,26.1,29.7-10.1,29.8-23.9S1063.6,421.5,1047.2,420.9Z"/>
            <path class="fcbc2560-d3d0-4a45-9c6f-21d707b9c2dd" d="M1171.2,454.6c-10.4,2.2-17.1,10.3-15.1,18.2s12.2,12.5,22.5,10.3,17.1-10.4,15-18.2S1181.5,452.4,1171.2,454.6Z"/>
            <path class="7f384d13-e62b-482c-983d-492772cd4adc" d="M1171.6,456.4c-11.5,2.2-19.1,10.4-16.8,18.3s13.5,12.4,25,10.1,19.1-10.4,16.9-18.3S1183.2,454.1,1171.6,456.4Z"/>
            <path class="fcbc2560-d3d0-4a45-9c6f-21d707b9c2dd" d="M830.1,374.2c-10.8-8.6-24-9.2-29.9-3.3s-3.7,14,3,21.3,20.4,13,29.4,9.5C843.5,397.4,842.5,384,830.1,374.2Z"/>
            <path class="7f384d13-e62b-482c-983d-492772cd4adc" d="M827.5,373.2c-11.7-9.3-26.2-9.6-32.7-2.9s-4.3,15.8,3,23.9,22.4,14.1,32.3,9.8C842.1,398.9,841,383.9,827.5,373.2Z"/>
            <path class="fcbc2560-d3d0-4a45-9c6f-21d707b9c2dd" d="M1606.2,183.2v-4.4a52.9,52.9,0,0,0-33.6,69.1,55,55,0,0,1-2.1-14.7A52.9,52.9,0,0,1,1606.2,183.2Z"/>
            <path class="7f384d13-e62b-482c-983d-492772cd4adc" d="M1572.6,247.9a52.8,52.8,0,0,0,33.6,35.2v-3.5A52.7,52.7,0,0,1,1572.6,247.9Z"/>
            <path class="7f384d13-e62b-482c-983d-492772cd4adc" d="M1606.2,279.6V183.2a52.9,52.9,0,0,0-35.7,50,55,55,0,0,0,2.1,14.7A52.7,52.7,0,0,0,1606.2,279.6Z"/>
            <path class="7f384d13-e62b-482c-983d-492772cd4adc" d="M1515.1,244.7a60.3,60.3,0,0,0-37.5,13.6c-14.1,10.3-23.2,26.5-23.2,44.1,0,28.4,23.6,50.4,52.9,50.4a60,60,0,0,0,38.1-13.7c12.5-9.3,21.3-23.2,22.9-39.2C1571.2,269.8,1547.3,244.4,1515.1,244.7Z"/>
            <path class="fcbc2560-d3d0-4a45-9c6f-21d707b9c2dd" d="M1036.5,434.3c-10.3-3.4-22.6,2.8-27.6,13.8s-.6,22.8,9.6,26.3,22.6-2.8,27.6-13.9S1046.8,437.7,1036.5,434.3Z"/>
            <path class="7f384d13-e62b-482c-983d-492772cd4adc" d="M1034,434.5a23.4,23.4,0,0,0-29.1,12.8c-4.7,11.2.5,23.6,11.8,27.7a23.4,23.4,0,0,0,29.1-12.8A20.6,20.6,0,0,0,1034,434.5Z"/>
            <path class="0418fd2c-3cfa-4a16-901c-e2c4f566453e" d="M1606.2,225.3a32.9,32.9,0,0,0-17.1,20.1,34.6,34.6,0,0,0-1.2,8.9,61.4,61.4,0,0,0-53.7,45.7c-17.4-2.1-33.9,7.7-38.5,23.7-5.1,18.1,6.6,37.2,26.2,42.9l2.8.7a43.6,43.6,0,0,0-3,16.2A44.9,44.9,0,0,0,1539,419c-4.6.1-9.3,0-14.2-.2a33.3,33.3,0,0,0-32.2-26.1c-18.2,0-33,15.1-33,33.7a25.3,25.3,0,0,0,.1,2.8c-33.5,9.5-69.4,20-91.3,32.8a51.7,51.7,0,0,0-38.3-16.4c-26.4,0-48,18.7-50.1,42.5a31.4,31.4,0,0,0-12.9,15.9l-.6.2a33.7,33.7,0,0,0-24.9-10.8,35.2,35.2,0,0,0-10.3,1.6,28.8,28.8,0,0,0-10.2-1.8,29.7,29.7,0,0,0-22.6,10.4,29.5,29.5,0,0,0-23.7-11.8,29.8,29.8,0,0,0-26.6,16.6,44.7,44.7,0,0,0-23.2-9.7,29.7,29.7,0,0,0-59.1,4.4,30.6,30.6,0,0,0,1.7,10.1h-3.1v.7l-45.4-1.9a65.4,65.4,0,0,0-101.3-32.5c-14-20.7-36-34-60.7-34-28,0-52.6,17.2-65.9,42.7.2-.1-18.3-8.7-18-8.5,10.3-15.5,7-35.8-7.4-45.5a29.6,29.6,0,0,0-8.3-3.8c4.7-13.8.4-29.1-11.6-37.1-14-9.4-33.5-5.2-44,9.4a87.9,87.9,0,0,0-41-43.2,34.6,34.6,0,0,0-7.9-13.1,23.3,23.3,0,0,0,.6-5.3c0-15.3-16.2-27.7-36.3-27.7s-34.2,10.9-36.1,24.8l-2.3-.9a55,55,0,0,0,2.1-14.7,49.2,49.2,0,0,0-17.7-38.2,32.2,32.2,0,0,0,8.4-21.9c0-15.9-11.1-29-25.5-30.8a48.3,48.3,0,0,0,1.7-12.8c0-20.1-9.7-34.6-25.1-34.6V589.9H1606.2Z"/>
            <path class="0418fd2c-3cfa-4a16-901c-e2c4f566453e" d="M946,500.2c0-31.2-33.7-56.5-75.3-56.5s-75.3,25.3-75.3,56.5c0,19,12.5,35.9,31.7,46.1h87.2C933.5,536.1,946,519.2,946,500.2Z"/>
            <path class="0418fd2c-3cfa-4a16-901c-e2c4f566453e" d="M1376.8,485.5c0-22.3-20.1-40.5-45-40.5s-44.9,18.2-44.9,40.5c0,13.7,7.4,25.7,18.9,33.1h52.1C1369.3,511.2,1376.8,499.2,1376.8,485.5Z"/>
            <path class="0418fd2c-3cfa-4a16-901c-e2c4f566453e" d="M1126.8,498.3c0-14.2-13-25.8-29.1-25.8s-29.1,11.6-29.1,25.8c0,8.7,4.8,16.3,12.2,21h33.7C1122,514.6,1126.8,507,1126.8,498.3Z"/>
            <path class="0418fd2c-3cfa-4a16-901c-e2c4f566453e" d="M1550.8,296.7c-14-10.2-35.1-5.1-47.2,11.5s-10.6,38.3,3.3,48.5c8.6,6.2,19.7,6.7,29.9,2.5l25.4-34.8C1563.2,313.4,1559.3,302.9,1550.8,296.7Z"/>
            <path class="7f384d13-e62b-482c-983d-492772cd4adc" d="M882.2,526.2a74,74,0,1,0-111.6,63.7h75.3A74.1,74.1,0,0,0,882.2,526.2Z"/>
            <path class="7f384d13-e62b-482c-983d-492772cd4adc" d="M681.3,374.9c-7.9,16.8-25.6,25.1-39.5,18.6s-18.6-25.6-10.6-42.4,25.7-25.1,39.5-18.5S689.3,358.1,681.3,374.9Z"/>
            <path class="0418fd2c-3cfa-4a16-901c-e2c4f566453e" d="M682.1,378.5c-8.1,17-26.3,25.1-40.9,18.3s-19.7-26.2-11.7-43.2,26.4-25.1,40.9-18.2S690.1,361.6,682.1,378.5Z"/>
            <ellipse class="7f384d13-e62b-482c-983d-492772cd4adc" cx="702.6" cy="414.2" rx="33.7" ry="35" transform="translate(-32.2 768.1) rotate(-56.2)"/>
            <path class="0418fd2c-3cfa-4a16-901c-e2c4f566453e" d="M730.9,437.1c-10.3,15.5-32.1,19-48.7,7.9s-21.7-32.6-11.4-48,32.2-19.1,48.8-8S741.3,421.7,730.9,437.1Z"/>
            <circle class="7f384d13-e62b-482c-983d-492772cd4adc" cx="581.6" cy="297" r="49.5"/>
            <circle class="0418fd2c-3cfa-4a16-901c-e2c4f566453e" cx="579.9" cy="301.2" r="49.5"/>
            <ellipse class="0418fd2c-3cfa-4a16-901c-e2c4f566453e" cx="584" cy="306" rx="48.8" ry="51.8"/>
            <path class="7f384d13-e62b-482c-983d-492772cd4adc" d="M1566.2,389.8c-2,26.2-24.8,46.6-50.1,46.6s-43.3-18.9-43.3-43.2,20.5-48.2,46.8-50.1S1568.4,362.4,1566.2,389.8Z"/>
            <path class="0418fd2c-3cfa-4a16-901c-e2c4f566453e" d="M1524.8,341.5a55.3,55.3,0,0,0-49.2,52.3c-.1,24.2,19,43.2,43.3,43.2a51,51,0,0,0,36.7-16.2,50.1,50.1,0,0,0,15.8-32.5C1573.6,360.9,1552.3,339.5,1524.8,341.5Z"/>
            <ellipse class="7f384d13-e62b-482c-983d-492772cd4adc" cx="1283.8" cy="503.4" rx="33" ry="31"/>
            <ellipse class="0418fd2c-3cfa-4a16-901c-e2c4f566453e" cx="1285.8" cy="505.2" rx="33.8" ry="31"/>
            <circle class="7f384d13-e62b-482c-983d-492772cd4adc" cx="1040.1" cy="520.2" r="42.9"/>
            <circle class="0418fd2c-3cfa-4a16-901c-e2c4f566453e" cx="1040.1" cy="521.9" r="42.9"/>
            <path class="7f384d13-e62b-482c-983d-492772cd4adc" d="M1038.6,490.1c0,25.3-21.1,47.9-47.9,49.3s-48.5-20.1-46.1-46.9,25.1-45.3,50.2-45.3S1038.6,466,1038.6,490.1Z"/>
            <path class="0418fd2c-3cfa-4a16-901c-e2c4f566453e" d="M1039.4,492.5c0,25.5-21.1,48.1-47.9,49.6s-48.6-20.1-46.2-47,25.1-45.6,50.3-45.6S1039.4,468.3,1039.4,492.5Z"/>
            <path class="7f384d13-e62b-482c-983d-492772cd4adc" d="M1196.9,534.5c-12.3,11.9-31.9,13.7-43.5,3.1s-10-29.8,4-41.4,32.2-10.8,42.4-.2S1208.6,523.2,1196.9,534.5Z"/>
            <ellipse class="7f384d13-e62b-482c-983d-492772cd4adc" cx="1390" cy="464.5" rx="38" ry="32.6"/>
            <ellipse class="0418fd2c-3cfa-4a16-901c-e2c4f566453e" cx="1390.9" cy="467.5" rx="38" ry="32.6"/>
            <path class="7f384d13-e62b-482c-983d-492772cd4adc" d="M1490.3,451.4c3.8-19.9-10.7-37.6-32.7-37.7a40.5,40.5,0,0,0-17.6,4c-14.8,5.8-25,19.5-25,34.4,0,18.1,15.1,31.5,33.6,31.5a39.2,39.2,0,0,0,14.9-2.9C1476.7,476.4,1487.6,465.3,1490.3,451.4Z"/>
            <path class="0418fd2c-3cfa-4a16-901c-e2c4f566453e" d="M1491.7,452.5c3.8-19.7-10.5-37.3-32.5-37.4a40,40,0,0,0-17.5,3.9c-14.8,5.8-25,19.4-25,34.2-.1,18,14.8,31.3,33.3,31.3a41.1,41.1,0,0,0,14.9-2.8C1478,477.3,1489,466.3,1491.7,452.5Z"/>
            <path class="0418fd2c-3cfa-4a16-901c-e2c4f566453e" d="M807.3,455.6h-3.8c-42.3,0-76.6,33.1-76.6,74,0,24.9,12.7,46.9,32.3,60.3h92.4c19.6-13.4,32.3-35.4,32.3-60.3C883.9,488.7,849.6,455.6,807.3,455.6Z"/>
            <path class="7f384d13-e62b-482c-983d-492772cd4adc" d="M874.9,536.1c6.7-19.5-9.1-38.8-36.4-41.7a64,64,0,0,0-22.8,1.7c-19.8,4.1-35,17-37,32.6-2.5,18.9,15.7,34.6,39.9,36.4a62.6,62.6,0,0,0,19.5-1.6C855.2,560.2,870.1,549.9,874.9,536.1Z"/>
            <path class="0418fd2c-3cfa-4a16-901c-e2c4f566453e" d="M878.6,538.1c6.9-19.5-9.6-38.9-37.9-41.9a68.5,68.5,0,0,0-23.6,1.7c-20.5,4-36.1,16.8-38.2,32.4-2.5,18.9,16.4,34.7,41.5,36.6a67.4,67.4,0,0,0,20.2-1.6C858.3,562.1,873.7,551.9,878.6,538.1Z"/>
            <path class="7f384d13-e62b-482c-983d-492772cd4adc" d="M1017.2,582c16.9,7.7,35.6-4.8,40.6-29.1a59.5,59.5,0,0,0,.4-20.6c-2-18.1-12.2-32.8-26-35.9-16.8-3.9-32.5,11.1-36.2,32.7a57.8,57.8,0,0,0-.2,17.6C997.3,562.3,1005.2,576.6,1017.2,582Z"/>
            <path class="0418fd2c-3cfa-4a16-901c-e2c4f566453e" d="M1004.1,576.6c5.6,10.6,43.8,13.4,51.4-4.3a57,57,0,0,0,4.2-16.5,66.2,66.2,0,0,0-1.8-23.2c-3.9-19.1-15.6-33.9-29.5-37-16.4-3.7-31.2,10.2-34.9,31.4a64.5,64.5,0,0,0-.3,18.6C994.1,556.8,999.2,567.3,1004.1,576.6Z"/>
            <path class="0418fd2c-3cfa-4a16-901c-e2c4f566453e" d="M1197.4,537.3c-12.2,11.8-31.6,13.4-43.1,2.8s-10.2-29.7,3.6-41.1,31.9-10.5,42.2,0S1208.9,526.1,1197.4,537.3Z"/>
            <path class="7f384d13-e62b-482c-983d-492772cd4adc" d="M1199.1,556.4c-10.2,9.9-26.6,11.2-36.4,2.2s-8.6-25.1,3-34.7,26.9-8.7,35.6.2S1208.8,547,1199.1,556.4Z"/>
            <path class="0418fd2c-3cfa-4a16-901c-e2c4f566453e" d="M1201.2,557.8c-10.4,10.6-27,12.6-36.8,3.7s-8.5-25.7,3.4-36.1,27.3-10.2,36-1.3S1211.1,547.6,1201.2,557.8Z"/>
          </g>
        </g>
        <g class="66db2111-b28c-4bbc-b3cc-272e9a31c296">
          <g>
            <path class="fcbc2560-d3d0-4a45-9c6f-21d707b9c2dd" d="M1089,96.5c-8.3,3.3-16.1,13.3-20.2,27.8a68.2,68.2,0,0,0-2.3,10.9c-10.2-8.3-23.9-6.6-34.6,6s-16.2,34.8-12.9,53.2a53.8,53.8,0,0,0-20,28.8,42,42,0,0,0-18.3-4.2c-17.5,0-32.6,10.9-39.3,26.5h-3c-23.8,0-43.1,20.1-43.1,44.9a44.3,44.3,0,0,0,1.8,12.7,47.3,47.3,0,0,0-14.4,21.9l-2.5-.2-.6-.2c-17.2-5-38.5,7.4-48.8,27-6.9,13.1-7.7,27.2-2.9,37.5a37.4,37.4,0,0,0-26.3,22.5,36.9,36.9,0,0,0-54.3,10.7c-2.1-14-15.1-24.9-30.9-24.9a32.7,32.7,0,0,0-18.1,5.4c-5.6-11.7-18.1-19.9-32.7-19.9h-2.4c-16.6,0-30.1,8.8-30.3,19.7h0a29.6,29.6,0,0,0-37.4,6.4c-4.4-10.4-13.1-18.2-23.7-20.3-.3-10.9-12.2-19.6-26.8-19.6a34.4,34.4,0,0,0-11.8,2.1,32.7,32.7,0,0,0-16.9,13.4,31,31,0,0,0-22.3-9.7c-16.3,0-29.8,13.1-32.2,30.2a29.6,29.6,0,0,0-16.7-5.1,30.5,30.5,0,0,0-19.1,6.8,31.5,31.5,0,0,0-8.1-14.1c-4.8-5.4-13-8.9-22.3-8.9h-2.7a28.7,28.7,0,0,0,1.1-7.7c0-12.6-8-23.2-18.8-26.6a32.8,32.8,0,0,0,3.3-14.4,30.4,30.4,0,0,0-.4-5.2,21.2,21.2,0,0,0-1.4-5.5,33.7,33.7,0,0,0-30.1-22.2,27,27,0,0,0-4.9-.4,25.2,25.2,0,0,0-15.9,5.1,26.9,26.9,0,0,0-5.5-1.7c-2.2-15.3-12.1-28.1-26.5-32a20.7,20.7,0,0,0-4.2-.8,40.5,40.5,0,0,0-38.9-31.6c-11.1,0-19.2,5.6-22.2,13.4a26,26,0,0,0-8.7-6.2,26.9,26.9,0,0,0-21-.5,32.6,32.6,0,0,0-8.4-9,43.1,43.1,0,0,0-55.3-54,33.7,33.7,0,0,0-15.6-14.4,40.6,40.6,0,0,0-8-2.4,39.5,39.5,0,0,0,6.6-23.6c-.7-16.8-18.9-30.4-36.6-30.4a27.8,27.8,0,0,0-5.1.4c-1.7-7.8-6.4-14.4-13.5-17.5a21.8,21.8,0,0,0-9.7-1.9C61.4,61.7,25.7,20.1,5.6,19.3V588.9H1089Z"/>
            <path class="7f384d13-e62b-482c-983d-492772cd4adc" d="M1056,227.5c-5.7-6.2-13.1-9.9-21.2-9.9-18.2,0-33,19-33,42.3a56.4,56.4,0,0,0,.8,9.3c-14.8,12.7-30.8,26.2-46.3,39.9a33.9,33.9,0,0,0-13.9-2.9A34.3,34.3,0,0,0,908,340.5a33.1,33.1,0,0,0,2.3,12.2c-2.1,2.1-4,4.2-5.9,6.3h-.3c-25.4,0-45.9,18.9-46.3,42.4-8.4-6.8-21.8-8.7-34.8-3.9a43.4,43.4,0,0,0-13.7,8.2A41.8,41.8,0,0,0,794.8,432a35.2,35.2,0,0,0-20.6,10.9,15.4,15.4,0,0,0-1.9-2.8c-9.6-12.4-29.6-12.9-44.8-1.1a38,38,0,0,0-9.6,10.5c-21.7.5-44.8.3-66.6-.7a32.5,32.5,0,0,0-6.3-25.5c-11.1-14.4-32.3-16.7-47.2-5.2l-.7.6a23.8,23.8,0,0,0-3.8-7c-5.1-6.7-13.4-9.9-22.2-9.6a25.1,25.1,0,0,0-50.2-.4l-8.9,5a33.8,33.8,0,0,0-9.6-1.4,31.5,31.5,0,0,0-27.1,15.3,41.9,41.9,0,0,0-45.2,12.9,179,179,0,0,1-36,.8c-11.2-.8-22.9-2.3-35-4.2a89.6,89.6,0,0,0-3.7-16.3,29.3,29.3,0,0,0,7-19.1c0-15.3-11.3-27.8-25.1-27.8a24.1,24.1,0,0,0-12.9,3.9,87,87,0,0,0-51.9-17.1,79.3,79.3,0,0,0-9.8.6,41.4,41.4,0,0,0-21.2-5.9,36.8,36.8,0,0,0-6.6.6,37.7,37.7,0,0,0,7.2-22.4c0-20.8-16.5-37.6-37-37.6a36.5,36.5,0,0,0-28.9,14.3,92.8,92.8,0,0,0-12.1-2.8,34.1,34.1,0,0,0-21.3-30.1,32.5,32.5,0,0,0-24.2-31.1c7.2-11.5,8.3-26,1.3-37.8-10.1-17.5-33.6-22.7-52.4-11.8a41.7,41.7,0,0,0-16,16.6c-9-9.9-17.8-19.5-25.4-27.5,15.4-8.6,25.8-25.5,25.8-45.1,0-27.3-20.5-49.7-46.3-50.8V587.4L1089,588.9V207.6A327.5,327.5,0,0,0,1056,227.5Z"/>
            <ellipse class="fcbc2560-d3d0-4a45-9c6f-21d707b9c2dd" cx="47.9" cy="187.3" rx="32.8" ry="32.2"/>
            <path class="7f384d13-e62b-482c-983d-492772cd4adc" d="M84.2,186.3c0-16-15.9-29.2-36.9-29.4a32.4,32.4,0,0,0-32.8,32.2c0,17.8,14.7,32.3,32.8,32.3A32.7,32.7,0,0,0,75,206.3,27.1,27.1,0,0,0,84.2,186.3Z"/>
            <path class="fcbc2560-d3d0-4a45-9c6f-21d707b9c2dd" d="M127.2,228.9c6-16.4-5.1-35.6-26.1-43.5a34.9,34.9,0,1,0,9.5,60.4A29.7,29.7,0,0,0,127.2,228.9Z"/>
            <path class="7f384d13-e62b-482c-983d-492772cd4adc" d="M121.8,231.9c6.3-17-4.6-36.8-25.6-44.7-18.1-6.8-38.5,3.3-45.4,22.1s2.3,39.6,20.5,46.2a34.7,34.7,0,0,0,33.6-5.8A30.9,30.9,0,0,0,121.8,231.9Z"/>
            <ellipse class="fcbc2560-d3d0-4a45-9c6f-21d707b9c2dd" cx="263.9" cy="324.7" rx="41" ry="42.2" transform="translate(-85.1 93.9) rotate(-17.4)"/>
            <ellipse class="7f384d13-e62b-482c-983d-492772cd4adc" cx="264.1" cy="327.2" rx="41.8" ry="42.2" transform="translate(-85.8 94.1) rotate(-17.4)"/>
            <ellipse class="fcbc2560-d3d0-4a45-9c6f-21d707b9c2dd" cx="312.2" cy="357.7" rx="41" ry="37" transform="translate(-104.6 130.4) rotate(-20.3)"/>
            <ellipse class="7f384d13-e62b-482c-983d-492772cd4adc" cx="310.8" cy="360" rx="41" ry="37" transform="translate(-105.5 130) rotate(-20.3)"/>
            <ellipse class="fcbc2560-d3d0-4a45-9c6f-21d707b9c2dd" cx="370.3" cy="418.5" rx="25.1" ry="27.7"/>
            <ellipse class="7f384d13-e62b-482c-983d-492772cd4adc" cx="368.4" cy="421.6" rx="25.1" ry="27.7"/>
            <path class="fcbc2560-d3d0-4a45-9c6f-21d707b9c2dd" d="M449.8,449.6c0-22.9-20.2-41.6-45.1-41.6a48.3,48.3,0,0,0-10.8,1.2c-20.9,3.6-36.7,20.6-36.7,40.9,0,23,20.2,41.6,45.1,41.6a48.3,48.3,0,0,0,10.8-1.2C433.9,486.9,449.8,470,449.8,449.6Z"/>
            <path class="7f384d13-e62b-482c-983d-492772cd4adc" d="M450.5,452.3c0-23-20.6-41.7-46-41.8a49.4,49.4,0,0,0-11,1.2c-21.4,3.6-37.5,20.5-37.5,40.8,0,23,20.6,41.7,46,41.8a49.4,49.4,0,0,0,11-1.2C434.3,489.5,450.5,472.6,450.5,452.3Z"/>
            <path class="fcbc2560-d3d0-4a45-9c6f-21d707b9c2dd" d="M564.7,429.6c0-22.2-21.8-40.2-48.7-40.2-14.3,0-27.1,5.1-36,13.1A41.5,41.5,0,0,0,506.7,476a40.9,40.9,0,0,0,25-8.4C550.9,462.2,564.7,447.2,564.7,429.6Z"/>
            <path class="7f384d13-e62b-482c-983d-492772cd4adc" d="M565.5,431.2c0-22.4-21.9-40.5-48.8-40.5-14.3,0-27.1,5.1-36,13.2a41.9,41.9,0,0,0,26.7,74,40.9,40.9,0,0,0,25.1-8.5C551.7,464,565.5,448.9,565.5,431.2Z"/>
            <ellipse class="fcbc2560-d3d0-4a45-9c6f-21d707b9c2dd" cx="910.7" cy="365.6" rx="33" ry="42.3" transform="translate(-33.1 634.5) rotate(-37.8)"/>
            <ellipse class="7f384d13-e62b-482c-983d-492772cd4adc" cx="915.2" cy="366.1" rx="35.9" ry="42.3" transform="translate(-32.4 637.3) rotate(-37.8)"/>
            <path class="fcbc2560-d3d0-4a45-9c6f-21d707b9c2dd" d="M689.1,443.2c9.3,11.9,6.8,29.4-5.6,38.9s-29.9,7.7-39.2-4.2-6.7-29.4,5.7-39S679.9,431.2,689.1,443.2Z"/>
            <path class="7f384d13-e62b-482c-983d-492772cd4adc" d="M695.2,449.3a21.3,21.3,0,0,0-5.5-4.9l-1.1-1.5c-8.2-10.6-25.7-10.9-39-.7s-17.3,27.3-9,38a19.4,19.4,0,0,0,5.5,4.8,9.7,9.7,0,0,0,1,1.5c8.3,10.7,25.7,11,39,.7S703.4,460,695.2,449.3Z"/>
            <ellipse class="fcbc2560-d3d0-4a45-9c6f-21d707b9c2dd" cx="162.9" cy="285" rx="30.4" ry="29.1" transform="matrix(0.3, -0.95, 0.95, 0.3, -157.8, 355.29)"/>
            <path class="7f384d13-e62b-482c-983d-492772cd4adc" d="M155,258.4c-11.1,4.3-16.4,10.2-19.6,20.2-5,16,3.4,32.9,18.7,37.7a30.3,30.3,0,0,0,10.3,1.2,29.2,29.2,0,0,0,8.4-.7c13.5.1,25.7-7.9,29.7-20.6C207.4,280.4,184.5,247.2,155,258.4Z"/>
            <path class="fcbc2560-d3d0-4a45-9c6f-21d707b9c2dd" d="M995.1,241.7a59.1,59.1,0,0,0-37.5,13.6c-14.1,10.3-23.2,26.4-23.2,44.1,0,28.4,23.6,50.4,52.9,50.4a59.8,59.8,0,0,0,38-13.8c12.6-9.2,21.4-23.2,22.9-39.2C1051.1,266.7,1027.3,241.4,995.1,241.7Z"/>
            <path class="fcbc2560-d3d0-4a45-9c6f-21d707b9c2dd" d="M740.5,423.9c12.5,16,10.6,38.3-4.1,49.6s-36.6,7.7-49.1-8.4-10.6-38.3,4.1-49.6S728.1,407.8,740.5,423.9Z"/>
            <path class="7f384d13-e62b-482c-983d-492772cd4adc" d="M740.1,428c12.4,16,10.8,38.2-3.7,49.4s-36.4,7.3-48.8-8.7-10.8-38.1,3.7-49.4S727.7,412,740.1,428Z"/>
            <path class="fcbc2560-d3d0-4a45-9c6f-21d707b9c2dd" d="M530.7,419.1c-15.1.7-26.9,12.4-26.3,26.1s13.5,24.3,28.6,23.6,27-12.4,26.4-26.2S545.9,418.4,530.7,419.1Z"/>
            <path class="7f384d13-e62b-482c-983d-492772cd4adc" d="M530,419.9c-16.4-.6-29.7,10-29.7,23.8s13.2,25.5,29.5,26.1,29.7-10.1,29.8-23.9S546.4,420.5,530,419.9Z"/>
            <path class="fcbc2560-d3d0-4a45-9c6f-21d707b9c2dd" d="M654,453.6c-10.4,2.2-17.1,10.3-15,18.2s12.1,12.5,22.4,10.3,17.1-10.4,15-18.2S664.3,451.4,654,453.6Z"/>
            <path class="7f384d13-e62b-482c-983d-492772cd4adc" d="M654.4,455.4c-11.5,2.2-19.1,10.4-16.8,18.3s13.5,12.4,25,10.1,19.1-10.4,16.9-18.3S666,453.1,654.4,455.4Z"/>
            <path class="fcbc2560-d3d0-4a45-9c6f-21d707b9c2dd" d="M312.9,373.2c-10.8-8.6-24-9.2-29.9-3.3s-3.7,14,3,21.3,20.4,13,29.4,9.5C326.3,396.4,325.3,383,312.9,373.2Z"/>
            <path class="7f384d13-e62b-482c-983d-492772cd4adc" d="M310.3,372.2c-11.7-9.3-26.2-9.6-32.7-2.9s-4.3,15.8,3,23.9,22.4,14.1,32.3,9.8C324.9,397.9,323.8,382.9,310.3,372.2Z"/>
            <path class="fcbc2560-d3d0-4a45-9c6f-21d707b9c2dd" d="M1089,182.2v-4.4a52.9,52.9,0,0,0-33.6,69.1,55,55,0,0,1-2.1-14.7A52.9,52.9,0,0,1,1089,182.2Z"/>
            <path class="7f384d13-e62b-482c-983d-492772cd4adc" d="M1055.4,246.9a52.8,52.8,0,0,0,33.6,35.2v-3.5A52.7,52.7,0,0,1,1055.4,246.9Z"/>
            <path class="7f384d13-e62b-482c-983d-492772cd4adc" d="M1089,278.6V182.2a52.9,52.9,0,0,0-35.7,50,55,55,0,0,0,2.1,14.7A52.7,52.7,0,0,0,1089,278.6Z"/>
            <path class="7f384d13-e62b-482c-983d-492772cd4adc" d="M997.9,243.7a60.3,60.3,0,0,0-37.5,13.6c-14.1,10.3-23.2,26.5-23.2,44.1,0,28.4,23.6,50.4,52.9,50.4a60,60,0,0,0,38.1-13.7c12.6-9.3,21.3-23.2,22.9-39.2C1054,268.8,1030.1,243.4,997.9,243.7Z"/>
            <path class="fcbc2560-d3d0-4a45-9c6f-21d707b9c2dd" d="M519.3,433.3c-10.3-3.4-22.6,2.8-27.6,13.8s-.6,22.8,9.6,26.3,22.6-2.8,27.6-13.9S529.6,436.7,519.3,433.3Z"/>
            <path class="7f384d13-e62b-482c-983d-492772cd4adc" d="M516.8,433.5a23.4,23.4,0,0,0-29.1,12.8c-4.7,11.2.5,23.6,11.8,27.7a23.4,23.4,0,0,0,29.1-12.8A20.6,20.6,0,0,0,516.8,433.5Z"/>
            <path class="0418fd2c-3cfa-4a16-901c-e2c4f566453e" d="M1089,224.3a32.4,32.4,0,0,0-17,20.1,30.9,30.9,0,0,0-1.3,8.9A61.4,61.4,0,0,0,1017,299c-17.4-2.1-33.9,7.7-38.5,23.7-5.1,18.1,6.6,37.2,26.2,42.9l2.8.7a43.6,43.6,0,0,0-3,16.2,44.9,44.9,0,0,0,17.3,35.5c-4.6.1-9.3,0-14.2-.2a33.3,33.3,0,0,0-32.2-26.1c-18.2,0-33,15.1-33,33.7a25.3,25.3,0,0,0,.1,2.8c-33.5,9.5-69.4,20-91.3,32.8a51.7,51.7,0,0,0-38.3-16.4c-26.4,0-48,18.7-50.1,42.5A31.4,31.4,0,0,0,749.9,503l-.6.2a33.7,33.7,0,0,0-24.9-10.8,35.2,35.2,0,0,0-10.3,1.6,28.8,28.8,0,0,0-10.2-1.8,29.7,29.7,0,0,0-22.6,10.4,29.5,29.5,0,0,0-23.6-11.8A29.9,29.9,0,0,0,631,507.4a44.7,44.7,0,0,0-23.2-9.7,29.7,29.7,0,0,0-59.1,4.4,30.6,30.6,0,0,0,1.7,10.1h-3.1v.7l-45.4-1.9a65.4,65.4,0,0,0-101.3-32.5c-14-20.7-36-34-60.7-34-28,0-52.6,17.2-65.9,42.7.2-.1-18.3-8.7-18-8.5,10.3-15.5,7-35.8-7.4-45.5a29.6,29.6,0,0,0-8.3-3.8c4.7-13.8.4-29.1-11.6-37.1-14-9.4-33.5-5.2-44,9.4a87.9,87.9,0,0,0-41-43.2,34.6,34.6,0,0,0-7.9-13.1,23.3,23.3,0,0,0,.6-5.3c0-15.3-16.2-27.7-36.3-27.7S65.9,323.4,64,337.3l-2.3-.9a55,55,0,0,0,2.1-14.7,49.2,49.2,0,0,0-17.7-38.2,32.2,32.2,0,0,0,8.4-21.9c0-15.9-11.1-29-25.5-30.8A48.3,48.3,0,0,0,30.7,218c0-20.1-9.7-34.6-25.1-34.6V588.9H1089Z"/>
            <path class="0418fd2c-3cfa-4a16-901c-e2c4f566453e" d="M428.8,499.2c0-31.2-33.7-56.5-75.3-56.5s-75.3,25.3-75.3,56.5c0,19,12.5,35.9,31.7,46.1h87.2C416.3,535.1,428.8,518.2,428.8,499.2Z"/>
            <path class="0418fd2c-3cfa-4a16-901c-e2c4f566453e" d="M859.6,484.5c0-22.3-20.1-40.5-45-40.5s-44.9,18.2-44.9,40.5c0,13.7,7.4,25.7,18.9,33.1h52.1C852.1,510.2,859.6,498.2,859.6,484.5Z"/>
            <path class="0418fd2c-3cfa-4a16-901c-e2c4f566453e" d="M609.6,497.3c0-14.2-13-25.8-29.1-25.8s-29.1,11.6-29.1,25.8c0,8.7,4.8,16.3,12.2,21h33.8C604.8,513.6,609.6,506,609.6,497.3Z"/>
            <path class="0418fd2c-3cfa-4a16-901c-e2c4f566453e" d="M1033.6,295.7c-14-10.2-35.1-5.1-47.2,11.5s-10.6,38.3,3.3,48.5c8.6,6.2,19.7,6.7,29.9,2.5l25.4-34.8C1046,312.4,1042.1,301.9,1033.6,295.7Z"/>
            <path class="7f384d13-e62b-482c-983d-492772cd4adc" d="M365,525.2a74,74,0,1,0-111.6,63.7h75.3A74.1,74.1,0,0,0,365,525.2Z"/>
            <path class="7f384d13-e62b-482c-983d-492772cd4adc" d="M164.2,373.9c-8,16.8-25.7,25.1-39.6,18.6S106,366.9,114,350.1s25.7-25.1,39.5-18.5S172.1,357.1,164.2,373.9Z"/>
            <path class="0418fd2c-3cfa-4a16-901c-e2c4f566453e" d="M164.9,377.5c-8.1,17-26.3,25.1-40.8,18.3s-19.8-26.2-11.8-43.2,26.4-25.1,40.9-18.2S172.9,360.6,164.9,377.5Z"/>
            <ellipse class="7f384d13-e62b-482c-983d-492772cd4adc" cx="185.4" cy="413.2" rx="33.7" ry="35" transform="translate(-261.2 337.7) rotate(-56.2)"/>
            <path class="0418fd2c-3cfa-4a16-901c-e2c4f566453e" d="M213.7,436.1c-10.3,15.5-32.1,19-48.7,7.9s-21.7-32.6-11.4-48,32.2-19.1,48.8-8S224.1,420.7,213.7,436.1Z"/>
            <circle class="7f384d13-e62b-482c-983d-492772cd4adc" cx="64.4" cy="296" r="49.5"/>
            <circle class="0418fd2c-3cfa-4a16-901c-e2c4f566453e" cx="62.7" cy="300.2" r="49.5"/>
            <ellipse class="0418fd2c-3cfa-4a16-901c-e2c4f566453e" cx="66.8" cy="305" rx="48.8" ry="51.8"/>
            <path class="7f384d13-e62b-482c-983d-492772cd4adc" d="M1049,388.8c-2,26.2-24.8,46.6-50.1,46.6s-43.3-18.9-43.3-43.2,20.5-48.2,46.8-50.1S1051.2,361.4,1049,388.8Z"/>
            <path class="0418fd2c-3cfa-4a16-901c-e2c4f566453e" d="M1007.6,340.5a55.3,55.3,0,0,0-49.2,52.3c-.1,24.2,19,43.2,43.3,43.2a51,51,0,0,0,36.7-16.2,50.1,50.1,0,0,0,15.8-32.5C1056.4,359.9,1035.1,338.5,1007.6,340.5Z"/>
            <ellipse class="7f384d13-e62b-482c-983d-492772cd4adc" cx="766.6" cy="502.4" rx="33" ry="31"/>
            <ellipse class="0418fd2c-3cfa-4a16-901c-e2c4f566453e" cx="768.6" cy="504.2" rx="33.8" ry="31"/>
            <circle class="7f384d13-e62b-482c-983d-492772cd4adc" cx="522.9" cy="519.2" r="42.9"/>
            <circle class="0418fd2c-3cfa-4a16-901c-e2c4f566453e" cx="522.9" cy="520.9" r="42.9"/>
            <path class="7f384d13-e62b-482c-983d-492772cd4adc" d="M521.4,489.1c0,25.3-21.1,47.9-47.9,49.3s-48.5-20.1-46.1-46.9,25.1-45.3,50.2-45.3S521.4,465,521.4,489.1Z"/>
            <path class="0418fd2c-3cfa-4a16-901c-e2c4f566453e" d="M522.2,491.5c0,25.5-21.1,48.1-47.9,49.6s-48.6-20.1-46.2-47,25.1-45.6,50.3-45.6S522.2,467.3,522.2,491.5Z"/>
            <path class="7f384d13-e62b-482c-983d-492772cd4adc" d="M679.7,533.5c-12.3,11.9-31.9,13.7-43.5,3.1s-10-29.8,4-41.4,32.2-10.8,42.5-.2S691.4,522.2,679.7,533.5Z"/>
            <ellipse class="7f384d13-e62b-482c-983d-492772cd4adc" cx="872.8" cy="463.5" rx="38" ry="32.6"/>
            <ellipse class="0418fd2c-3cfa-4a16-901c-e2c4f566453e" cx="873.7" cy="466.5" rx="38" ry="32.6"/>
            <path class="7f384d13-e62b-482c-983d-492772cd4adc" d="M973.1,450.4c3.8-19.9-10.7-37.6-32.7-37.7a40.5,40.5,0,0,0-17.6,4c-14.8,5.8-25,19.5-25,34.4,0,18.1,15.1,31.5,33.6,31.5a39.2,39.2,0,0,0,14.9-2.9C959.5,475.4,970.4,464.3,973.1,450.4Z"/>
            <path class="0418fd2c-3cfa-4a16-901c-e2c4f566453e" d="M974.5,451.5c3.8-19.7-10.5-37.3-32.5-37.4a40,40,0,0,0-17.5,3.9c-14.8,5.8-25,19.4-25,34.2-.1,18,14.9,31.3,33.3,31.3a41.1,41.1,0,0,0,14.9-2.8C960.8,476.3,971.8,465.3,974.5,451.5Z"/>
            <path class="0418fd2c-3cfa-4a16-901c-e2c4f566453e" d="M290.1,454.6h-3.8c-42.3,0-76.6,33.1-76.6,74,0,24.9,12.7,46.9,32.3,60.3h92.5c19.5-13.4,32.2-35.4,32.2-60.3C366.7,487.7,332.4,454.6,290.1,454.6Z"/>
            <path class="7f384d13-e62b-482c-983d-492772cd4adc" d="M357.7,535.1c6.7-19.5-9.1-38.8-36.4-41.7a64,64,0,0,0-22.8,1.7c-19.8,4.1-35,17-37,32.6-2.5,18.9,15.7,34.6,39.9,36.4a62.6,62.6,0,0,0,19.5-1.6C338,559.2,352.9,548.9,357.7,535.1Z"/>
            <path class="0418fd2c-3cfa-4a16-901c-e2c4f566453e" d="M361.4,537.1c6.9-19.5-9.6-38.9-37.9-41.9a68.7,68.7,0,0,0-23.6,1.7c-20.5,4-36.1,16.8-38.2,32.4-2.5,18.9,16.4,34.7,41.5,36.6a67.4,67.4,0,0,0,20.2-1.6C341.1,561.1,356.5,550.9,361.4,537.1Z"/>
            <path class="7f384d13-e62b-482c-983d-492772cd4adc" d="M500,581c16.9,7.7,35.6-4.8,40.6-29.1a59.5,59.5,0,0,0,.4-20.6c-2-18.1-12.2-32.8-26-35.9-16.8-3.9-32.5,11.1-36.2,32.7a57.8,57.8,0,0,0-.2,17.6C480.1,561.3,488,575.6,500,581Z"/>
            <path class="0418fd2c-3cfa-4a16-901c-e2c4f566453e" d="M486.9,575.6c5.6,10.6,43.8,13.4,51.4-4.3a57,57,0,0,0,4.2-16.5,66.2,66.2,0,0,0-1.8-23.2c-3.9-19.1-15.6-33.9-29.5-37-16.4-3.7-31.2,10.2-34.9,31.4a64.5,64.5,0,0,0-.3,18.6C476.9,555.8,482,566.3,486.9,575.6Z"/>
            <path class="0418fd2c-3cfa-4a16-901c-e2c4f566453e" d="M680.2,536.3c-12.1,11.8-31.6,13.4-43.1,2.8s-10.2-29.7,3.6-41.1,31.9-10.5,42.2,0S691.7,525.1,680.2,536.3Z"/>
            <path class="7f384d13-e62b-482c-983d-492772cd4adc" d="M681.9,555.4c-10.2,9.9-26.6,11.2-36.4,2.2s-8.6-25.1,3-34.7,26.9-8.7,35.6.2S691.6,546,681.9,555.4Z"/>
            <path class="0418fd2c-3cfa-4a16-901c-e2c4f566453e" d="M684,556.8c-10.4,10.6-27,12.6-36.8,3.7s-8.5-25.7,3.4-36.1,27.3-10.2,36-1.3S693.9,546.6,684,556.8Z"/>
          </g>
        </g>
        <path class="7f384d13-e62b-482c-983d-492772cd4adc" d="M909.6,409.3a35.7,35.7,0,0,0-31.9-19.1c-17.9,0-32.7,12.6-35.3,29.1a62.8,62.8,0,0,1,29.9-7.5,62.1,62.1,0,0,1,21.6,3.8A43.2,43.2,0,0,1,909.6,409.3Z"/>
      </g>
    </g>
  </g>
</svg>
