<svg xmlns="http://www.w3.org/2000/svg" width="42.5" height="48" viewBox="0 0 42.5 48">
  <defs>
    <style>
      .a5f37a95-9788-47ed-b6a6-a4e730b206a3 {
        fill: #999;
      }
    </style>
  </defs>
  <title>bell</title>
  <g id="6ae88ad1-5c18-4b0c-af24-133fdb708a40" data-name="Layer 2">
    <g id="fd25d8c2-a861-47de-8005-9d6af466aefa" data-name="Layer 1">
      <g id="ade56fb3-6060-4bf0-83ac-108803dbdd7a" data-name="Wayfinding - Notifications">
        <g id="c6b75ca9-bcff-4ad3-95c9-d21c7d9f2d13" data-name="Group 12">
          <g id="b721b1cb-c447-4942-bb74-1200cfb089df" data-name="Path 24">
            <path class="a5f37a95-9788-47ed-b6a6-a4e730b206a3" d="M21.3,5.5h0a15,15,0,0,0-15.1,15h0V35.7H36.3V20.6a15,15,0,0,0-15-15.1Z"/>
          </g>
          <g id="05caa3c6-73b0-443a-be95-ebd62d57c613" data-name="Path 25">
            <path class="a5f37a95-9788-47ed-b6a6-a4e730b206a3" d="M39.8,42.5H2.7A2.7,2.7,0,0,1,0,39.8H0A2.8,2.8,0,0,1,2.7,37H39.8a2.8,2.8,0,0,1,2.7,2.8h0A2.7,2.7,0,0,1,39.8,42.5Z"/>
          </g>
          <g id="e778ed22-44d0-4e12-9574-65a4e0ecc4c2" data-name="Path 26">
            <path class="a5f37a95-9788-47ed-b6a6-a4e730b206a3" d="M21.3,4.1a16.6,16.6,0,0,1,3.2.3,1.6,1.6,0,0,0,.2-1A3.4,3.4,0,0,0,21.3,0a3.5,3.5,0,0,0-3.5,3.4h0a1.6,1.6,0,0,0,.2,1A18.4,18.4,0,0,1,21.3,4.1Z"/>
          </g>
          <g id="915f4cef-c642-4f42-8721-4078654f9340" data-name="Path 27">
            <path class="a5f37a95-9788-47ed-b6a6-a4e730b206a3" d="M21.3,48a4.1,4.1,0,0,0,4.1-4H17.1a4.1,4.1,0,0,0,4,4.1Z"/>
          </g>
        </g>
      </g>
    </g>
  </g>
</svg>
