<svg xmlns="http://www.w3.org/2000/svg" width="46" height="48" viewBox="0 0 46 48">
  <defs>
    <style>
      .\39 a914705-3e27-45eb-a547-23753b2564ef {
        fill: #999;
      }

      .\35 85039fe-b801-4636-8cb4-488662ae2eff {
        fill: #fff;
      }
    </style>
  </defs>
  <title>blister-pack</title>
  <g id="b41b967d-1f6d-4578-b340-8bf2612b2853" data-name="Layer 2">
    <g id="2c475c9e-a245-4418-99a8-02ef5f2b5c08" data-name="Layer 1">
      <g>
        <rect class="9a914705-3e27-45eb-a547-23753b2564ef" width="46" height="48" rx="2" ry="2"/>
        <g>
          <rect class="585039fe-b801-4636-8cb4-488662ae2eff" x="4" y="6" width="16" height="4" rx="2" ry="2"/>
          <rect class="585039fe-b801-4636-8cb4-488662ae2eff" x="4" y="14" width="16" height="4" rx="2" ry="2"/>
          <rect class="585039fe-b801-4636-8cb4-488662ae2eff" x="4" y="22" width="16" height="4" rx="2" ry="2"/>
          <rect class="585039fe-b801-4636-8cb4-488662ae2eff" x="4" y="30" width="16" height="4" rx="2" ry="2"/>
          <rect class="585039fe-b801-4636-8cb4-488662ae2eff" x="26" y="6" width="16" height="4" rx="2" ry="2"/>
          <rect class="585039fe-b801-4636-8cb4-488662ae2eff" x="26" y="14" width="16" height="4" rx="2" ry="2"/>
          <rect class="585039fe-b801-4636-8cb4-488662ae2eff" x="26" y="22" width="16" height="4" rx="2" ry="2"/>
          <rect class="585039fe-b801-4636-8cb4-488662ae2eff" x="26" y="30" width="16" height="4" rx="2" ry="2"/>
          <rect class="585039fe-b801-4636-8cb4-488662ae2eff" x="4" y="38" width="16" height="4" rx="2" ry="2"/>
          <rect class="585039fe-b801-4636-8cb4-488662ae2eff" x="26" y="38" width="16" height="4" rx="2" ry="2"/>
        </g>
        <rect class="585039fe-b801-4636-8cb4-488662ae2eff" x="22" y="4" width="2" height="40"/>
      </g>
    </g>
  </g>
</svg>
