<svg xmlns="http://www.w3.org/2000/svg" xmlns:xlink="http://www.w3.org/1999/xlink" width="1455" height="550" viewBox="0 0 1455 550">
  <defs>
    <style>
      .\39 1834936-8991-4f37-98a0-7684dc9241e2 {
        fill: none;
      }

      .\30 9293a96-8e2a-4296-ad6c-7f923f98addd {
        fill: url(#25ad3913-10c2-4926-85fc-bc6f198361a1);
      }

      .\31 7e060ba-3d7e-4730-8190-dc68f8642fbe {
        fill: #fdf0c1;
      }

      .\32 73c20dc-71a0-4c11-a107-72d552307ccc {
        opacity: 0.6;
      }

      .\34 a57039b-33ea-4914-9b17-8976fdd99ba4 {
        fill: #fff;
      }

      .\33 5a9a8b8-23fc-4661-a273-36eb68862f5f {
        opacity: 0.7;
      }

      .\32 d6de92c-b22e-4b36-8155-8b98ef92e9c3, .ca1cf93b-307b-4e67-82b9-9edebc8549ed {
        fill: #fae184;
      }

      .ca1cf93b-307b-4e67-82b9-9edebc8549ed {
        opacity: 0.5;
      }

      .d1aa0964-4edf-4bbc-af68-b22f5d7ba05f, .e21b4b6b-8dbe-4a4c-997e-5f5a64ce6d4e {
        fill: #f8d244;
      }

      .e21b4b6b-8dbe-4a4c-997e-5f5a64ce6d4e {
        opacity: 0.8;
      }

      .\33 245129b-3d2e-4c27-8df7-73a7999b3166 {
        clip-path: url(#450724a5-a6fb-453e-886a-504f8e0b824c);
      }

      .cd97c19e-e433-41ba-9912-deb5fd32b502 {
        fill: #abe4e1;
      }

      .\38 810b6c4-07f8-4add-b071-5fbe225ef727 {
        fill: #fed5aa;
      }

      .\30 e363ef1-96d8-46d7-9fe0-40cc3c7424ec {
        fill: #f4f3f2;
      }

      .c443b51d-1b06-420e-a27b-6f0d6e31c25e {
        clip-path: url(#a673a456-119e-4ee0-8972-f907a012a66d);
      }

      .\34 7a57cb9-47a7-4f10-95b0-ebbae728db77 {
        fill: #ccc;
      }

      .\31 b0cc5ac-45e4-4e0c-a402-3b928c42a75a {
        fill: #ebebeb;
      }

      .\30 6fc81df-da86-43ca-a302-1c474dde70cb {
        clip-path: url(#f3e50085-4f8f-44a8-8434-6e66187cd6da);
      }
    </style>
    <radialGradient id="25ad3913-10c2-4926-85fc-bc6f198361a1" cx="1296.65" cy="304.27" r="689.05" gradientTransform="translate(0 -30) scale(1 1.1)" gradientUnits="userSpaceOnUse">
      <stop offset="0" stop-color="#504b52"/>
      <stop offset="0.51" stop-color="#15293c"/>
      <stop offset="1" stop-color="#050c1e"/>
    </radialGradient>
    <clipPath id="450724a5-a6fb-453e-886a-504f8e0b824c">
      <circle class="91834936-8991-4f37-98a0-7684dc9241e2" cx="185.1" cy="170.8" r="39"/>
    </clipPath>
    <clipPath id="a673a456-119e-4ee0-8972-f907a012a66d">
      <path class="91834936-8991-4f37-98a0-7684dc9241e2" d="M732.6,550.9s22-48.8,75.5-48.8c0,0-17.1-56.5,83.7-56.5,0,0-1-10.9,20.8-10.9V51h693V550Z"/>
    </clipPath>
    <clipPath id="f3e50085-4f8f-44a8-8434-6e66187cd6da">
      <path class="91834936-8991-4f37-98a0-7684dc9241e2" d="M801.6,462s17.3-16.7,34.1-16.7,34.5,14,34.5,14,29.4,17.8,29.4,31.5c0,0,37.6,6,37.6,21.4s1,38.8-19,38.8H5.6V50h794Z"/>
    </clipPath>
  </defs>
  <title>carousel-content-reach-for-the-stars-illustration</title>
  <g id="3f6d895a-2dda-4449-bcf6-458fbd3b856f" data-name="Layer 2">
    <g id="af8b0e24-d049-4bbd-b965-94ff14c53b86" data-name="clouds">
      <g>
        <rect class="09293a96-8e2a-4296-ad6c-7f923f98addd" x="5.6" width="1600" height="550"/>
        <polygon class="17e060ba-3d7e-4730-8190-dc68f8642fbe" points="8.3 338.7 10.3 342.1 14.4 341.3 11.5 344.3 13.5 347.7 9.7 346 6.8 349 7.4 345.1 3.6 343.4 7.7 342.6 8.3 338.7"/>
        <g>
          <g class="273c20dc-71a0-4c11-a107-72d552307ccc">
            <path class="4a57039b-33ea-4914-9b17-8976fdd99ba4" d="M828.6,250.8c-2.6,0-2.1,4,.4,4S831.2,250.8,828.6,250.8Z"/>
            <path class="4a57039b-33ea-4914-9b17-8976fdd99ba4" d="M916,248.2c-2.5,0-2,3.9.5,3.9S918.6,248.2,916,248.2Z"/>
            <path class="4a57039b-33ea-4914-9b17-8976fdd99ba4" d="M1006.2,227c-2.6,0-2.2,3.9.4,3.9S1008.7,227,1006.2,227Z"/>
            <path class="4a57039b-33ea-4914-9b17-8976fdd99ba4" d="M966.4,314.4c-2.6,0-2.1,4,.5,4S968.9,314.4,966.4,314.4Z"/>
            <path class="4a57039b-33ea-4914-9b17-8976fdd99ba4" d="M929.3,200.5c-2.6,0-2.1,3.9.5,3.9S931.8,200.5,929.3,200.5Z"/>
            <path class="4a57039b-33ea-4914-9b17-8976fdd99ba4" d="M1183.7,266.7c-2.6,0-2,4,.5,4S1186.2,266.7,1183.7,266.7Z"/>
            <path class="4a57039b-33ea-4914-9b17-8976fdd99ba4" d="M1213.3,399.2c-2.5,0-3,4-.4,4S1215.9,399.2,1213.3,399.2Z"/>
            <path class="4a57039b-33ea-4914-9b17-8976fdd99ba4" d="M1359.1,317.1c-2.6,0-3,3.9-.4,3.9S1361.6,317.1,1359.1,317.1Z"/>
            <path class="4a57039b-33ea-4914-9b17-8976fdd99ba4" d="M1473,213.7c-2.6,0-2.9,4-.3,4S1475.5,213.7,1473,213.7Z"/>
            <path class="4a57039b-33ea-4914-9b17-8976fdd99ba4" d="M1571.1,340.9c-2.6,0-3,4-.4,4S1573.6,340.9,1571.1,340.9Z"/>
            <path class="4a57039b-33ea-4914-9b17-8976fdd99ba4" d="M1605.4,208.4c-2.6,0-2.7,4-.1,4S1607.9,208.4,1605.4,208.4Z"/>
            <path class="4a57039b-33ea-4914-9b17-8976fdd99ba4" d="M1295.4,99.7c-2.6,0-2.9,4-.3,4S1298,99.7,1295.4,99.7Z"/>
            <path class="4a57039b-33ea-4914-9b17-8976fdd99ba4" d="M1313.7,205.8c-2.6,0-2.4,3.9.2,3.9S1316.3,205.8,1313.7,205.8Z"/>
            <path class="4a57039b-33ea-4914-9b17-8976fdd99ba4" d="M1379.4,181.4a1.9,1.9,0,0,0-1.8-2.1,2,2,0,0,0-2.2,1.8v2.7a2.1,2.1,0,0,0,1.9,2.1,2,2,0,0,0,2.1-1.9Z"/>
            <path class="4a57039b-33ea-4914-9b17-8976fdd99ba4" d="M1358.6,229.6c-2.5,0-2,4,.5,4S1361.1,229.6,1358.6,229.6Z"/>
            <path class="4a57039b-33ea-4914-9b17-8976fdd99ba4" d="M1417.4,245.5c-2.6,0-3,4-.4,4S1419.9,245.5,1417.4,245.5Z"/>
            <path class="4a57039b-33ea-4914-9b17-8976fdd99ba4" d="M1316.2,258.8c-2.5,0-2,3.9.5,3.9S1318.7,258.8,1316.2,258.8Z"/>
            <path class="4a57039b-33ea-4914-9b17-8976fdd99ba4" d="M1284.8,176.6c-2.6,0-2.9,4-.3,4S1287.4,176.6,1284.8,176.6Z"/>
            <path class="4a57039b-33ea-4914-9b17-8976fdd99ba4" d="M1335.3,163.4c-2.6,0-3.1,3.9-.5,3.9S1337.8,163.4,1335.3,163.4Z"/>
            <path class="4a57039b-33ea-4914-9b17-8976fdd99ba4" d="M1353.8,195.2c-2.6,0-3,3.9-.4,3.9S1356.3,195.2,1353.8,195.2Z"/>
            <path class="4a57039b-33ea-4914-9b17-8976fdd99ba4" d="M357.3,205.8c-2.5,0-3,3.9-.5,3.9S359.9,205.8,357.3,205.8Z"/>
            <path class="4a57039b-33ea-4914-9b17-8976fdd99ba4" d="M311.8,232.3c-2.6,0-2.1,3.9.5,3.9S314.3,232.3,311.8,232.3Z"/>
            <path class="4a57039b-33ea-4914-9b17-8976fdd99ba4" d="M272.4,280c-2.5,0-2.9,3.9-.3,3.9S275,280,272.4,280Z"/>
            <path class="4a57039b-33ea-4914-9b17-8976fdd99ba4" d="M227.4,229.6c-2.5,0-3,4-.4,4S230,229.6,227.4,229.6Z"/>
            <path class="4a57039b-33ea-4914-9b17-8976fdd99ba4" d="M274.9,189.8a2,2,0,0,0,0,4A2,2,0,0,0,274.9,189.8Z"/>
            <path class="4a57039b-33ea-4914-9b17-8976fdd99ba4" d="M309.6,163.4c-2.5,0-3,3.9-.5,3.9S312.2,163.4,309.6,163.4Z"/>
            <path class="4a57039b-33ea-4914-9b17-8976fdd99ba4" d="M317.5,205.8c-2.5,0-2.9,3.9-.4,3.9S320.1,205.8,317.5,205.8Z"/>
            <path class="4a57039b-33ea-4914-9b17-8976fdd99ba4" d="M267.1,234.9c-2.5,0-2.9,4-.3,4S269.7,234.9,267.1,234.9Z"/>
            <path class="4a57039b-33ea-4914-9b17-8976fdd99ba4" d="M153.1,311.8c-2.5,0-2.8,3.9-.3,3.9S155.7,311.8,153.1,311.8Z"/>
            <path class="4a57039b-33ea-4914-9b17-8976fdd99ba4" d="M92.1,386c-2.5,0-2.7,3.9-.2,3.9S94.7,386,92.1,386Z"/>
            <path class="4a57039b-33ea-4914-9b17-8976fdd99ba4" d="M219.4,362.1c-2.5,0-2.9,4-.3,4S222,362.1,219.4,362.1Z"/>
            <path class="4a57039b-33ea-4914-9b17-8976fdd99ba4" d="M118.7,229.6c-2.5,0-2.9,4-.4,4S121.3,229.6,118.7,229.6Z"/>
            <path class="4a57039b-33ea-4914-9b17-8976fdd99ba4" d="M12.3,322.4c-2.5,0-2.1,3.9.4,3.9S14.9,322.4,12.3,322.4Z"/>
            <path class="4a57039b-33ea-4914-9b17-8976fdd99ba4" d="M362.5,322.4c-2.6,0-2.8,3.9-.2,3.9S365,322.4,362.5,322.4Z"/>
            <path class="4a57039b-33ea-4914-9b17-8976fdd99ba4" d="M484.3,282.6c-2.5,0-2.6,4-.1,4S486.9,282.6,484.3,282.6Z"/>
            <path class="4a57039b-33ea-4914-9b17-8976fdd99ba4" d="M534.7,184.5a2.1,2.1,0,0,0-2.1,2v2.6a2.1,2.1,0,0,0,2,2.1,2,2,0,0,0,2-1.9v-2.7A2.1,2.1,0,0,0,534.7,184.5Z"/>
            <path class="4a57039b-33ea-4914-9b17-8976fdd99ba4" d="M704.2,203.1c-2.5,0-2.5,4,0,4A2,2,0,0,0,704.2,203.1Z"/>
            <path class="4a57039b-33ea-4914-9b17-8976fdd99ba4" d="M778.7,142.2c-2.5,0-3,3.9-.5,3.9S781.3,142.2,778.7,142.2Z"/>
            <path class="4a57039b-33ea-4914-9b17-8976fdd99ba4" d="M654,128.9c-2.6,0-2.8,4-.2,4S656.6,128.9,654,128.9Z"/>
            <path class="4a57039b-33ea-4914-9b17-8976fdd99ba4" d="M1030,386c-2.5,0-2.1,3.9.4,3.9S1032.6,386,1030,386Z"/>
            <path class="4a57039b-33ea-4914-9b17-8976fdd99ba4" d="M895.3,372.7c-2.6,0-3,4-.4,4S897.8,372.7,895.3,372.7Z"/>
            <path class="4a57039b-33ea-4914-9b17-8976fdd99ba4" d="M937.6,428.4c-2.5,0-2.8,3.9-.3,3.9S940.2,428.4,937.6,428.4Z"/>
            <path class="4a57039b-33ea-4914-9b17-8976fdd99ba4" d="M1136.1,388.6c-2.6,0-2.3,4,.3,4S1138.6,388.6,1136.1,388.6Z"/>
            <path class="4a57039b-33ea-4914-9b17-8976fdd99ba4" d="M1114.8,431c-2.6,0-2.1,4,.5,4S1117.3,431,1114.8,431Z"/>
            <path class="4a57039b-33ea-4914-9b17-8976fdd99ba4" d="M1160.2,338.3c-2.5,0-2.8,3.9-.3,3.9S1162.8,338.3,1160.2,338.3Z"/>
            <path class="4a57039b-33ea-4914-9b17-8976fdd99ba4" d="M1239.5,338.3c-2.6,0-2.3,3.9.2,3.9S1242,338.3,1239.5,338.3Z"/>
            <path class="4a57039b-33ea-4914-9b17-8976fdd99ba4" d="M1284.6,378c-2.6,0-2.5,4,.1,4S1287.2,378,1284.6,378Z"/>
            <path class="4a57039b-33ea-4914-9b17-8976fdd99ba4" d="M1360.4,360.1a2.1,2.1,0,0,0-2.9-.1,2,2,0,0,0-.5,2.1h-.7a2,2,0,1,0-.2,4c1.8,0,3.7.1,5.1-1.1S1361.5,361.3,1360.4,360.1Z"/>
            <path class="4a57039b-33ea-4914-9b17-8976fdd99ba4" d="M1427.5,340.9c-2.5,0-2,4,.5,4S1430.1,340.9,1427.5,340.9Z"/>
            <path class="4a57039b-33ea-4914-9b17-8976fdd99ba4" d="M1486.1,354.2c-2.5,0-2.6,3.9-.1,3.9S1488.7,354.2,1486.1,354.2Z"/>
            <path class="4a57039b-33ea-4914-9b17-8976fdd99ba4" d="M314.8,393.9c-2.6,0-2.8,4-.2,4S317.3,393.9,314.8,393.9Z"/>
            <path class="4a57039b-33ea-4914-9b17-8976fdd99ba4" d="M150.2,446.9c-2.6,0-2.3,4,.3,4S152.7,446.9,150.2,446.9Z"/>
            <path class="4a57039b-33ea-4914-9b17-8976fdd99ba4" d="M44.4,497.3c-2.6,0-2.7,4-.1,4S46.9,497.3,44.4,497.3Z"/>
            <path class="4a57039b-33ea-4914-9b17-8976fdd99ba4" d="M322.8,340.9c-2.5,0-3,4-.4,4S325.4,340.9,322.8,340.9Z"/>
            <path class="4a57039b-33ea-4914-9b17-8976fdd99ba4" d="M389,393.9c-2.6,0-2.8,4-.2,4S391.5,393.9,389,393.9Z"/>
            <path class="4a57039b-33ea-4914-9b17-8976fdd99ba4" d="M395.5,463.4a1.9,1.9,0,0,0-2.8.1l-2.6,2.6a2,2,0,0,0,2.9,2.7l2.6-2.6A1.9,1.9,0,0,0,395.5,463.4Z"/>
            <path class="4a57039b-33ea-4914-9b17-8976fdd99ba4" d="M346.5,510.5a2,2,0,0,0,0,4C349,514.5,349,510.5,346.5,510.5Z"/>
            <path class="4a57039b-33ea-4914-9b17-8976fdd99ba4" d="M886.9,128.9c-2.6,0-2.1,4,.5,4S889.4,128.9,886.9,128.9Z"/>
            <path class="4a57039b-33ea-4914-9b17-8976fdd99ba4" d="M1064.8,166c-2.5,0-2.8,4-.3,4S1067.4,166,1064.8,166Z"/>
            <path class="4a57039b-33ea-4914-9b17-8976fdd99ba4" d="M1191.9,197.8c-2.5,0-2.6,4-.1,4S1194.5,197.8,1191.9,197.8Z"/>
            <path class="4a57039b-33ea-4914-9b17-8976fdd99ba4" d="M118.8,128.9c-2.6,0-3.1,4-.5,4S121.3,128.9,118.8,128.9Z"/>
            <path class="4a57039b-33ea-4914-9b17-8976fdd99ba4" d="M25.9,189.9c-2.5,0-2.8,3.9-.3,3.9S28.5,189.9,25.9,189.9Z"/>
            <path class="4a57039b-33ea-4914-9b17-8976fdd99ba4" d="M2.1,120.9c-2.6,0-2.9,4-.3,4S4.6,120.9,2.1,120.9Z"/>
            <path class="4a57039b-33ea-4914-9b17-8976fdd99ba4" d="M224.6,83.8c-2.6,0-2.7,4-.1,4S227.2,83.8,224.6,83.8Z"/>
            <path class="4a57039b-33ea-4914-9b17-8976fdd99ba4" d="M1396,97.1a2,2,0,0,0,0,4C1398.5,101.1,1398.5,97.1,1396,97.1Z"/>
            <path class="4a57039b-33ea-4914-9b17-8976fdd99ba4" d="M1523.3,115.6c-2.5,0-2.8,4-.3,4S1525.9,115.6,1523.3,115.6Z"/>
            <path class="4a57039b-33ea-4914-9b17-8976fdd99ba4" d="M982.6,67.9c-2.5,0-2.7,4-.2,4S985.2,67.9,982.6,67.9Z"/>
            <path class="4a57039b-33ea-4914-9b17-8976fdd99ba4" d="M757.3,65.3c-2.6,0-2.7,4-.1,4S759.9,65.3,757.3,65.3Z"/>
            <path class="4a57039b-33ea-4914-9b17-8976fdd99ba4" d="M489.8,60c-2.5,0-3,3.9-.5,3.9S492.4,60,489.8,60Z"/>
            <path class="4a57039b-33ea-4914-9b17-8976fdd99ba4" d="M454.4,122.7a1.9,1.9,0,0,0-2.2-1.7h-2.1a2.1,2.1,0,0,0-2.3,1.7,2,2,0,0,0,1.8,2.2h3.1A1.9,1.9,0,0,0,454.4,122.7Z"/>
            <path class="4a57039b-33ea-4914-9b17-8976fdd99ba4" d="M574.6,73.2c-2.6,0-3,4-.4,4S577.1,73.2,574.6,73.2Z"/>
            <path class="4a57039b-33ea-4914-9b17-8976fdd99ba4" d="M741.5,120.9c-2.6,0-2.9,4-.3,4S744.1,120.9,741.5,120.9Z"/>
            <path class="4a57039b-33ea-4914-9b17-8976fdd99ba4" d="M837,99.7c-2.6,0-3,4-.4,4S839.5,99.7,837,99.7Z"/>
            <path class="4a57039b-33ea-4914-9b17-8976fdd99ba4" d="M823.6,158c-2.6,0-2.7,4-.1,4S826.1,158,823.6,158Z"/>
            <path class="4a57039b-33ea-4914-9b17-8976fdd99ba4" d="M987.9,139.5c-2.6,0-2.7,4-.1,4S990.4,139.5,987.9,139.5Z"/>
            <path class="4a57039b-33ea-4914-9b17-8976fdd99ba4" d="M1062.2,89.1c-2.6,0-2.9,4-.3,4S1064.7,89.1,1062.2,89.1Z"/>
            <path class="4a57039b-33ea-4914-9b17-8976fdd99ba4" d="M1112.1,60c-2.5,0-2,3.9.5,3.9S1114.7,60,1112.1,60Z"/>
            <path class="4a57039b-33ea-4914-9b17-8976fdd99ba4" d="M1125.8,136.9c-2.5,0-2.9,3.9-.4,3.9S1128.4,136.9,1125.8,136.9Z"/>
            <path class="4a57039b-33ea-4914-9b17-8976fdd99ba4" d="M1194.7,113c-2.5,0-2.9,4-.3,4S1197.3,113,1194.7,113Z"/>
            <path class="4a57039b-33ea-4914-9b17-8976fdd99ba4" d="M1255.4,150.1c-2.6,0-2.4,4,.2,4S1258,150.1,1255.4,150.1Z"/>
            <path class="4a57039b-33ea-4914-9b17-8976fdd99ba4" d="M1104.5,285.3c-2.6,0-2.7,3.9-.1,3.9S1107,285.3,1104.5,285.3Z"/>
            <path class="4a57039b-33ea-4914-9b17-8976fdd99ba4" d="M1242.4,287.9c-2.5,0-2.9,4-.3,4S1245,287.9,1242.4,287.9Z"/>
          </g>
          <g class="35a9a8b8-23fc-4661-a273-36eb68862f5f">
            <path class="4a57039b-33ea-4914-9b17-8976fdd99ba4" d="M814,353.1c-7.4,0-5.9,11.4,1.4,11.4S821.3,353.1,814,353.1Z"/>
            <path class="4a57039b-33ea-4914-9b17-8976fdd99ba4" d="M1241.1,459.7c-7.4,0-6.5,11.5.9,11.5S1248.5,459.7,1241.1,459.7Z"/>
            <path class="4a57039b-33ea-4914-9b17-8976fdd99ba4" d="M1028.6,287.5c-7.4,0-8.8,11.4-1.4,11.4S1035.9,287.5,1028.6,287.5Z"/>
            <path class="4a57039b-33ea-4914-9b17-8976fdd99ba4" d="M279.5,328.6c-7.4,0-8.6,11.4-1.2,11.4S286.9,328.6,279.5,328.6Z"/>
            <path class="4a57039b-33ea-4914-9b17-8976fdd99ba4" d="M239.3,486.4c-7.4,0-8.2,11.5-.8,11.5S246.7,486.4,239.3,486.4Z"/>
            <path class="4a57039b-33ea-4914-9b17-8976fdd99ba4" d="M464.9,213c-7.4,0-5.9,11.4,1.4,11.4S472.3,213,464.9,213Z"/>
          </g>
        </g>
        <g id="6d520571-2698-435f-81af-9755bda816f3" data-name="That&apos;s no Moon">
          <g>
            <circle class="17e060ba-3d7e-4730-8190-dc68f8642fbe" cx="1299.6" cy="324" r="166"/>
            <path class="ca1cf93b-307b-4e67-82b9-9edebc8549ed" d="M1366.8,172.5a165.5,165.5,0,0,1,55.4,89.6c21,89.1-34.3,178.4-123.4,199.4a164.9,164.9,0,0,1-104.9-9.7,165.4,165.4,0,0,0,144,33.9c89.1-21,144.4-110.3,123.4-199.4A165.6,165.6,0,0,0,1366.8,172.5Z"/>
            <circle class="e21b4b6b-8dbe-4a4c-997e-5f5a64ce6d4e" cx="1256.6" cy="198" r="20"/>
            <ellipse class="e21b4b6b-8dbe-4a4c-997e-5f5a64ce6d4e" cx="1191.1" cy="271" rx="42.7" ry="32.5" transform="translate(590.4 1334.7) rotate(-73.4)"/>
          </g>
        </g>
        <circle class="2d6de92c-b22e-4b36-8155-8b98ef92e9c3" cx="185.1" cy="170.8" r="39"/>
        <g class="3245129b-3d2e-4c27-8df7-73a7999b3166">
          <path class="d1aa0964-4edf-4bbc-af68-b22f5d7ba05f" d="M203.8,135.2c-2.3,1-6,2.3-7.5,4.5-3.9,5.8.1,3.2,2.3,7.4,2.9,5.7,5,4.3,2.3,14.6-2,4.1,10,5,10.3,10.5.2,2.7-9.5,3.2-12.7,0s-1-6-2.8-8.1-4-3.9-6.1-3.1-1.3,3.9-2.7,6.1-2.8,0-7.3.6-5.6-10.5-10.5-5.8c-.9.9-1.5,5.6-2.5,7.2s-3.5,2.5-4.1,4.1c-1.8,4.7,6.1,8.5,7,13.9s-5.1,7.4-.4,10.2-2.3,4.4-2.3,14.1c0,1.5,36.2,15.6,36.2,15.6l49.6-45.9-15.5-46.6Z"/>
        </g>
        <path class="d1aa0964-4edf-4bbc-af68-b22f5d7ba05f" d="M185,155.1c-.9.7-.4,2.2-.4,2.4-.8,1.9-2,1.3-2.1,3.2,8.5,1.8,10.2-12.2,4.9-8.8S186.8,153.7,185,155.1Z"/>
        <path class="cd97c19e-e433-41ba-9912-deb5fd32b502" d="M224.1,171.3a37.3,37.3,0,0,1-.7,6.8c14.2,13.5,22.3,24.3,19.9,27.7-3.7,5.6-32.6-9.7-64.6-34s-54.9-48.6-51.2-54.1,19.7,3.4,41.5,17.6a38.2,38.2,0,0,1,5.1-1.8c-38.7-26.3-70.6-41.2-75.6-34.3s27.9,43.5,75.7,79.2,91.5,57.9,97.4,49.8C276.3,221.8,256.2,198.4,224.1,171.3Z"/>
        <polygon class="d1aa0964-4edf-4bbc-af68-b22f5d7ba05f" points="1057.3 235.8 1062 243.9 1071.8 242.1 1064.9 249.1 1069.5 257.2 1060.6 253.2 1053.6 260.1 1055 250.9 1046.1 246.9 1055.9 245.1 1057.3 235.8"/>
        <polygon class="d1aa0964-4edf-4bbc-af68-b22f5d7ba05f" points="1023.8 273 1033.5 285.9 1049.8 280.8 1039.4 294 1049 306.9 1032.9 302 1022.5 315.2 1023 299.2 1007 294.2 1023.4 289.1 1023.8 273"/>
        <polygon class="d1aa0964-4edf-4bbc-af68-b22f5d7ba05f" points="972.6 295.1 972.6 310.4 988.8 315.8 973.6 320 973.6 335.3 963.8 322.4 948.3 326.5 957.9 314.6 948.5 301.7 963.9 307.1 972.6 295.1"/>
        <polygon class="d1aa0964-4edf-4bbc-af68-b22f5d7ba05f" points="964.4 239.2 969.6 243.8 976 240.2 972.8 246.7 978 251.3 970.8 250.6 967.5 257.1 966.3 250.3 959.1 249.6 965.6 246 964.4 239.2"/>
        <polygon class="d1aa0964-4edf-4bbc-af68-b22f5d7ba05f" points="1007.1 223.9 1007.6 227.7 1011.6 228.6 1007.9 230.1 1008.4 233.9 1005.6 231.1 1001.9 232.6 1003.9 229.3 1001.1 226.4 1005.1 227.2 1007.1 223.9"/>
        <g>
          <g>
            <g>
              <path class="8810b6c4-07f8-4add-b071-5fbe225ef727" d="M990.5,399.4s-2.6-36.1,1.6-40,29.9,1.6,30.6,6.5S1012,401,1012,401Z"/>
              <path class="8810b6c4-07f8-4add-b071-5fbe225ef727" d="M999.6,350a2.8,2.8,0,0,0-2.6-3,2.8,2.8,0,0,0-3.1,2.6l-1.3,15,5.7.4Z"/>
              <path class="8810b6c4-07f8-4add-b071-5fbe225ef727" d="M1008.7,345.2a2.8,2.8,0,0,0-2.6-3.1h-1.4a2.8,2.8,0,0,0-3.1,2.6l-1.5,17.2,7.1.6Z"/>
              <path class="8810b6c4-07f8-4add-b071-5fbe225ef727" d="M1018,341.5a3.5,3.5,0,0,0-3.2-3.8,3.8,3.8,0,0,0-4,3.4l-2.2,25.2,7.2.6Z"/>
              <path class="8810b6c4-07f8-4add-b071-5fbe225ef727" d="M1027.3,347.1a2.8,2.8,0,0,0-2.1-3.4,3.6,3.6,0,0,0-4.2,2.6l-5.5,23.7,6.2,1.4Z"/>
              <path class="8810b6c4-07f8-4add-b071-5fbe225ef727" d="M1025.7,376s-4.9,11.7-8.7,14.3a45.4,45.4,0,0,0-5.8,4.4l2.2-15.1s10.1-14.6,11.8-14.9c0,0,5.8-.4,5.6,1.4S1025.7,376,1025.7,376Z"/>
            </g>
            <path class="8810b6c4-07f8-4add-b071-5fbe225ef727" d="M994.8,455h26.3a272.3,272.3,0,0,1-5.9-50.6c-.1-3.5-.4-7.3-.3-10.8-9,0-15.9-.5-24.8-.5-.1,4-.5,8.7-.4,12.6A309.7,309.7,0,0,0,994.8,455Z"/>
          </g>
          <path class="0e363ef1-96d8-46d7-9fe0-40cc3c7424ec" d="M986.4,411.8l2.3,57.4,30.5.9-2.3-75.9c-21.4-1.7-35.6,4.2-33.8,8.5C984.2,405.2,985.5,409,986.4,411.8Z"/>
        </g>
        <g class="c443b51d-1b06-420e-a27b-6f0d6e31c25e">
          <g>
            <path class="47a57cb9-47a7-4f10-95b0-ebbae728db77" d="M1605.6,147.7c-8.3,3.2-16,13.2-20.2,27.7a70.2,70.2,0,0,0-2.2,10.9c-10.3-8.3-23.9-6.6-34.7,6s-16.1,34.8-12.9,53.2a54.4,54.4,0,0,0-20,28.8,41.4,41.4,0,0,0-18.3-4.2c-17.5,0-32.5,10.9-39.3,26.5h-2.9c-23.8,0-43.1,20.1-43.1,44.9a44.3,44.3,0,0,0,1.8,12.7,47.3,47.3,0,0,0-14.4,21.9l-2.5-.2-.6-.2c-17.2-5-38.5,7.4-48.8,27-6.8,13.1-7.7,27.2-2.9,37.5a37.5,37.5,0,0,0-26.3,22.5,36.8,36.8,0,0,0-54.2,10.7c-2.2-14-15.2-24.9-30.9-24.9a32.4,32.4,0,0,0-18.1,5.4c-5.6-11.7-18.2-19.9-32.7-19.9H1180c-16.6,0-30.1,8.8-30.3,19.7h0a30.2,30.2,0,0,0-14.9-4,29.7,29.7,0,0,0-22.6,10.4c-4.3-10.4-13-18.2-23.6-20.3-.3-10.9-12.1-19.6-26.7-19.6a35,35,0,0,0-11.9,2.1,32.6,32.6,0,0,0-16.8,13.4,31.2,31.2,0,0,0-22.4-9.7c-16.2,0-29.7,13.1-32.1,30.2a29.7,29.7,0,0,0-16.8-5.1,30,30,0,0,0-19,6.8,31.5,31.5,0,0,0-8.1-14.1c-4.8-5.4-13-8.9-22.4-8.9h-2.6a28,28,0,0,0,1-7.7c0-12.6-7.9-23.2-18.8-26.6a31.5,31.5,0,0,0,3.4-14.4,30.4,30.4,0,0,0-.4-5.2,34.1,34.1,0,0,0-1.4-5.5,33.7,33.7,0,0,0-30.1-22.2,27.7,27.7,0,0,0-4.9-.4c-6.5,0-11.9,1.9-15.9,5.1a26.9,26.9,0,0,0-5.5-1.7c-2.3-15.3-12.1-28.1-26.4-32a35.8,35.8,0,0,0-4.3-.8A40.7,40.7,0,0,0,767.6,292c-11.1,0-19.2,5.6-22.1,13.4a27.4,27.4,0,0,0-29.7-6.7,34.2,34.2,0,0,0-8.4-9A43.2,43.2,0,0,0,683.8,237a42.6,42.6,0,0,0-31.7-1.3,33.9,33.9,0,0,0-15.7-14.4,38.6,38.6,0,0,0-8-2.4c4.9-7.5,7.2-15.8,6.6-23.5-.6-16.9-18.9-30.5-36.5-30.5a27.8,27.8,0,0,0-5.1.4c-1.7-7.8-6.4-14.3-13.5-17.5a21.8,21.8,0,0,0-9.7-1.9c8.1-33.1-27.5-74.7-47.6-75.5V640h1083Z"/>
            <path class="1b0cc5ac-45e4-4e0c-a402-3b928c42a75a" d="M1572.6,278.1c-5.7-6.1-13.1-9.8-21.1-9.8-18.2,0-33,18.9-33,42.2a57.7,57.7,0,0,0,.8,9.4c-14.9,12.6-30.8,26.2-46.3,39.8a35.1,35.1,0,0,0-17.2-2.8,34.6,34.6,0,0,0-28.9,46.5l-5.8,6.2h-.4c-25.3,0-45.8,18.9-46.2,42.4-8.4-6.8-21.8-8.7-34.8-3.9a41.9,41.9,0,0,0-13.6,8.2,41.4,41.4,0,0,0-14.6,26.4,33.6,33.6,0,0,0-20.5,10.9,29,29,0,0,0-1.9-2.9c-9.6-12.4-29.7-12.9-44.9-1.1a43.2,43.2,0,0,0-9.6,10.5c-21.7.5-44.7.4-66.5-.6a32.6,32.6,0,0,0-6.3-25.6c-11.1-14.4-32.3-16.7-47.2-5.1l-.7.5a25.1,25.1,0,0,0-3.8-7c-5.1-6.7-13.3-9.9-22.2-9.6a25.1,25.1,0,0,0-50.1-.4c-2.8,1.7-5.8,3.3-9,5a33.2,33.2,0,0,0-9.6-1.4,31.5,31.5,0,0,0-27.1,15.3,40.9,40.9,0,0,0-13.1-2.1,41.3,41.3,0,0,0-32,15,180,180,0,0,1-36.1.8c-11.1-.8-22.9-2.3-35-4.2a86.6,86.6,0,0,0-3.6-16.2,29.4,29.4,0,0,0,6.9-19.2c0-15.3-11.2-27.7-25.1-27.7a23.2,23.2,0,0,0-12.8,3.9,86.4,86.4,0,0,0-51.9-17.1,80.4,80.4,0,0,0-9.8.5,41.1,41.1,0,0,0-21.2-5.8,34.9,34.9,0,0,0-6.5.5,38.3,38.3,0,0,0,7.2-22.3c0-20.8-16.6-37.7-37-37.7a36.7,36.7,0,0,0-29,14.3,80.3,80.3,0,0,0-12-2.7A34.6,34.6,0,0,0,659.8,321a33.2,33.2,0,0,0-6.6-19.1,32.5,32.5,0,0,0-17.7-12c7.3-11.5,8.3-25.9,1.4-37.8-10.2-17.5-33.7-22.7-52.5-11.8A41.7,41.7,0,0,0,568.5,257c-9-9.9-17.9-19.5-25.4-27.6,15.3-8.5,25.8-25.5,25.8-45,0-27.4-20.5-49.8-46.3-50.8V638l1083,1.5V258.2A369.4,369.4,0,0,0,1572.6,278.1Z"/>
            <ellipse class="47a57cb9-47a7-4f10-95b0-ebbae728db77" cx="565.1" cy="238.3" rx="32.8" ry="32.2"/>
            <path class="1b0cc5ac-45e4-4e0c-a402-3b928c42a75a" d="M601.4,237.3c0-16-15.9-29.2-36.9-29.4a32.4,32.4,0,0,0-32.8,32.2c0,17.8,14.7,32.3,32.8,32.3a32.7,32.7,0,0,0,27.7-15.1A27.1,27.1,0,0,0,601.4,237.3Z"/>
            <path class="47a57cb9-47a7-4f10-95b0-ebbae728db77" d="M644.4,279.9c6-16.4-5.1-35.6-26.1-43.5a34.9,34.9,0,1,0,9.5,60.4A29.7,29.7,0,0,0,644.4,279.9Z"/>
            <path class="1b0cc5ac-45e4-4e0c-a402-3b928c42a75a" d="M639,282.9c6.2-17-4.6-36.8-25.6-44.7-18.1-6.8-38.5,3.3-45.4,22.1s2.3,39.6,20.5,46.2a34.7,34.7,0,0,0,33.6-5.8A30.9,30.9,0,0,0,639,282.9Z"/>
            <ellipse class="47a57cb9-47a7-4f10-95b0-ebbae728db77" cx="781.1" cy="375.7" rx="41" ry="42.2" transform="translate(-76.6 251.1) rotate(-17.4)"/>
            <ellipse class="1b0cc5ac-45e4-4e0c-a402-3b928c42a75a" cx="781.3" cy="378.2" rx="41.8" ry="42.2" transform="translate(-77.4 251.2) rotate(-17.4)"/>
            <ellipse class="47a57cb9-47a7-4f10-95b0-ebbae728db77" cx="829.4" cy="408.7" rx="41" ry="37" transform="matrix(0.94, -0.35, 0.35, 0.94, -90.24, 312.78)"/>
            <ellipse class="1b0cc5ac-45e4-4e0c-a402-3b928c42a75a" cx="828" cy="411" rx="41" ry="37" transform="translate(-91.1 312.4) rotate(-20.3)"/>
            <ellipse class="47a57cb9-47a7-4f10-95b0-ebbae728db77" cx="887.5" cy="469.5" rx="25.1" ry="27.7"/>
            <ellipse class="1b0cc5ac-45e4-4e0c-a402-3b928c42a75a" cx="885.6" cy="472.6" rx="25.1" ry="27.7"/>
            <path class="47a57cb9-47a7-4f10-95b0-ebbae728db77" d="M967,500.6c0-22.9-20.2-41.6-45.1-41.6a48.3,48.3,0,0,0-10.8,1.2c-20.9,3.6-36.7,20.6-36.7,40.9,0,23,20.2,41.6,45.1,41.6a48.3,48.3,0,0,0,10.8-1.2C951.1,537.9,967,521,967,500.6Z"/>
            <path class="1b0cc5ac-45e4-4e0c-a402-3b928c42a75a" d="M967.7,503.3c0-23-20.6-41.7-46-41.8a49.4,49.4,0,0,0-11,1.2c-21.4,3.6-37.5,20.5-37.5,40.8,0,23,20.6,41.7,46,41.8a49.4,49.4,0,0,0,11-1.2C951.5,540.5,967.7,523.6,967.7,503.3Z"/>
            <path class="47a57cb9-47a7-4f10-95b0-ebbae728db77" d="M1081.9,480.6c0-22.2-21.8-40.2-48.7-40.2-14.3,0-27.1,5.1-36,13.1a41.5,41.5,0,0,0,26.7,73.5,40.9,40.9,0,0,0,25-8.4C1068.1,513.2,1081.9,498.2,1081.9,480.6Z"/>
            <path class="1b0cc5ac-45e4-4e0c-a402-3b928c42a75a" d="M1082.7,482.2c0-22.4-21.9-40.5-48.8-40.5-14.3,0-27.1,5.1-36,13.2a41.9,41.9,0,0,0,26.7,74,40.9,40.9,0,0,0,25.1-8.5C1068.9,515,1082.7,499.9,1082.7,482.2Z"/>
            <ellipse class="47a57cb9-47a7-4f10-95b0-ebbae728db77" cx="1427.9" cy="416.6" rx="33" ry="42.3" transform="translate(44 962) rotate(-37.8)"/>
            <ellipse class="1b0cc5ac-45e4-4e0c-a402-3b928c42a75a" cx="1432.4" cy="417.1" rx="35.9" ry="42.3" transform="translate(44.7 964.8) rotate(-37.8)"/>
            <path class="47a57cb9-47a7-4f10-95b0-ebbae728db77" d="M1206.3,494.2c9.3,11.9,6.8,29.4-5.6,38.9s-29.9,7.7-39.2-4.2-6.7-29.4,5.7-39S1197.1,482.2,1206.3,494.2Z"/>
            <path class="1b0cc5ac-45e4-4e0c-a402-3b928c42a75a" d="M1212.4,500.3a21.3,21.3,0,0,0-5.5-4.9l-1.1-1.5c-8.2-10.6-25.7-10.9-39-.7s-17.3,27.3-9,38a19.4,19.4,0,0,0,5.5,4.8,9.7,9.7,0,0,0,1,1.5c8.3,10.7,25.7,11,39,.7S1220.6,511,1212.4,500.3Z"/>
            <ellipse class="47a57cb9-47a7-4f10-95b0-ebbae728db77" cx="680.1" cy="336" rx="30.4" ry="29.1" transform="translate(156.2 884.6) rotate(-72.6)"/>
            <path class="1b0cc5ac-45e4-4e0c-a402-3b928c42a75a" d="M672.2,309.4c-11.1,4.3-16.4,10.2-19.6,20.2-5,16,3.4,32.9,18.7,37.7a30.3,30.3,0,0,0,10.3,1.2,29.2,29.2,0,0,0,8.4-.7c13.5.1,25.7-7.9,29.7-20.6C724.6,331.4,701.7,298.2,672.2,309.4Z"/>
            <path class="47a57cb9-47a7-4f10-95b0-ebbae728db77" d="M1512.3,292.7a59.1,59.1,0,0,0-37.5,13.6c-14.1,10.3-23.2,26.4-23.2,44.1,0,28.4,23.6,50.4,52.9,50.4a59.8,59.8,0,0,0,38-13.8c12.6-9.2,21.4-23.2,22.9-39.2C1568.3,317.7,1544.5,292.4,1512.3,292.7Z"/>
            <path class="47a57cb9-47a7-4f10-95b0-ebbae728db77" d="M1257.7,474.9c12.5,16,10.6,38.3-4.1,49.6s-36.6,7.7-49.1-8.4-10.6-38.3,4.1-49.6S1245.3,458.8,1257.7,474.9Z"/>
            <path class="1b0cc5ac-45e4-4e0c-a402-3b928c42a75a" d="M1257.3,479c12.4,16,10.8,38.2-3.7,49.4s-36.4,7.3-48.8-8.7-10.8-38.1,3.7-49.4S1244.9,463,1257.3,479Z"/>
            <path class="47a57cb9-47a7-4f10-95b0-ebbae728db77" d="M1047.9,470.1c-15.1.7-26.9,12.4-26.3,26.1s13.5,24.3,28.6,23.6,27-12.4,26.3-26.2S1063.1,469.4,1047.9,470.1Z"/>
            <path class="1b0cc5ac-45e4-4e0c-a402-3b928c42a75a" d="M1047.2,470.9c-16.4-.6-29.7,10-29.7,23.8s13.1,25.5,29.5,26.1,29.7-10.1,29.8-23.9S1063.6,471.5,1047.2,470.9Z"/>
            <path class="47a57cb9-47a7-4f10-95b0-ebbae728db77" d="M1171.2,504.6c-10.4,2.2-17.1,10.3-15.1,18.2s12.2,12.5,22.5,10.3,17.1-10.4,15-18.2S1181.5,502.4,1171.2,504.6Z"/>
            <path class="1b0cc5ac-45e4-4e0c-a402-3b928c42a75a" d="M1171.6,506.4c-11.5,2.2-19.1,10.4-16.8,18.3s13.5,12.4,25,10.1,19.1-10.4,16.9-18.3S1183.2,504.1,1171.6,506.4Z"/>
            <path class="47a57cb9-47a7-4f10-95b0-ebbae728db77" d="M830.1,424.2c-10.8-8.6-24-9.2-29.9-3.3s-3.7,14,3,21.3,20.4,13,29.4,9.5C843.5,447.4,842.5,434,830.1,424.2Z"/>
            <path class="1b0cc5ac-45e4-4e0c-a402-3b928c42a75a" d="M827.5,423.2c-11.7-9.3-26.2-9.6-32.7-2.9s-4.3,15.8,3,23.9,22.4,14.1,32.3,9.8C842.1,448.9,841,433.9,827.5,423.2Z"/>
            <path class="47a57cb9-47a7-4f10-95b0-ebbae728db77" d="M1606.6,233.2v-4.4a52.8,52.8,0,0,0-36.9,50.4,54.9,54.9,0,0,0,3.3,18.7,54.9,54.9,0,0,1-2-14.7A52.8,52.8,0,0,1,1606.6,233.2Z"/>
            <path class="1b0cc5ac-45e4-4e0c-a402-3b928c42a75a" d="M1573,297.9a53,53,0,0,0,33.6,35.2v-3.5A52.9,52.9,0,0,1,1573,297.9Z"/>
            <path class="1b0cc5ac-45e4-4e0c-a402-3b928c42a75a" d="M1606.6,329.6V233.2a52.8,52.8,0,0,0-35.6,50,54.9,54.9,0,0,0,2,14.7A52.9,52.9,0,0,0,1606.6,329.6Z"/>
            <path class="1b0cc5ac-45e4-4e0c-a402-3b928c42a75a" d="M1515.1,294.7a60.3,60.3,0,0,0-37.5,13.6c-14.1,10.3-23.2,26.5-23.2,44.1,0,28.4,23.6,50.4,52.9,50.4a60,60,0,0,0,38.1-13.7c12.5-9.3,21.3-23.2,22.9-39.2C1571.2,319.8,1547.3,294.4,1515.1,294.7Z"/>
            <path class="47a57cb9-47a7-4f10-95b0-ebbae728db77" d="M1036.5,484.3c-10.3-3.4-22.6,2.8-27.6,13.8s-.6,22.8,9.6,26.3,22.6-2.8,27.6-13.9S1046.8,487.7,1036.5,484.3Z"/>
            <path class="1b0cc5ac-45e4-4e0c-a402-3b928c42a75a" d="M1034,484.5a23.4,23.4,0,0,0-29.1,12.8c-4.7,11.2.5,23.6,11.8,27.7a23.4,23.4,0,0,0,29.1-12.8A20.6,20.6,0,0,0,1034,484.5Z"/>
            <path class="4a57039b-33ea-4914-9b17-8976fdd99ba4" d="M1605.6,275.4a32.7,32.7,0,0,0-17,20.2,29.6,29.6,0,0,0-1.2,8.8,61.4,61.4,0,0,0-53.7,45.7c-17.5-2.1-33.9,7.7-38.5,23.7-5.2,18.1,6.6,37.3,26.2,42.9l2.7.7a45.7,45.7,0,0,0-3,16.2,45,45,0,0,0,17.4,35.5c-4.6.1-9.4,0-14.3-.1a33,33,0,0,0-65.2,7.5,24.6,24.6,0,0,0,.2,2.8c-33.5,9.5-69.4,20-91.3,32.8a51.9,51.9,0,0,0-38.3-16.4c-26.3,0-47.9,18.7-50,42.5a31.4,31.4,0,0,0-13,16h-.5a33.8,33.8,0,0,0-25-10.7,34.5,34.5,0,0,0-10.2,1.5,28.8,28.8,0,0,0-10.2-1.8,29.4,29.4,0,0,0-22.6,10.4,29.7,29.7,0,0,0-50.3,4.8,44.7,44.7,0,0,0-23.2-9.7,29.7,29.7,0,0,0-59.1,3.2,28.3,28.3,0,0,0,1.8,11.3h-3.2v.7l-45.3-1.9a65.4,65.4,0,0,0-101.3-32.5c-14-20.7-36-34-60.7-34-28.1,0-52.6,17.2-65.9,42.8.2-.2-18.3-8.8-18-8.6,10.3-15.5,7-35.8-7.4-45.5a29.6,29.6,0,0,0-8.3-3.8c4.7-13.8.4-29.1-11.5-37.1-14.1-9.4-33.5-5.1-44.1,9.4a87.9,87.9,0,0,0-41-43.2,33.4,33.4,0,0,0-7.9-13.1,18.8,18.8,0,0,0,.7-5.3c0-15.3-16.3-27.7-36.3-27.7s-34.3,10.9-36.1,24.9l-2.3-1a55,55,0,0,0,2.1-14.7,49.2,49.2,0,0,0-17.7-38.2,32,32,0,0,0,8.4-21.9c0-15.9-11.1-29-25.5-30.8a48.3,48.3,0,0,0,1.7-12.8c0-20-9.7-34.6-25.1-34.6V640h1083Z"/>
            <path class="4a57039b-33ea-4914-9b17-8976fdd99ba4" d="M946,549.9c0-31.2-33.7-56.5-75.3-56.5s-75.3,25.3-75.3,56.5c0,19,12.5,35.9,31.7,46.1h87.2C933.5,585.8,946,568.9,946,549.9Z"/>
            <path class="4a57039b-33ea-4914-9b17-8976fdd99ba4" d="M1376.8,536c0-22.4-20.1-40.5-45-40.5s-44.9,18.1-44.9,40.5c0,13.6,7.4,25.7,18.9,33h52.1C1369.3,561.7,1376.8,549.6,1376.8,536Z"/>
            <path class="4a57039b-33ea-4914-9b17-8976fdd99ba4" d="M1126.8,548c0-14.2-13-25.8-29.1-25.8s-29.1,11.6-29.1,25.8c0,8.7,4.8,16.3,12.2,21h33.7C1122,564.3,1126.8,556.7,1126.8,548Z"/>
            <path class="4a57039b-33ea-4914-9b17-8976fdd99ba4" d="M1550.8,346.7c-14-10.2-35.1-5.1-47.2,11.5s-10.6,38.3,3.3,48.5c8.6,6.2,19.7,6.7,29.9,2.5l25.4-34.8C1563.2,363.4,1559.3,352.9,1550.8,346.7Z"/>
            <path class="1b0cc5ac-45e4-4e0c-a402-3b928c42a75a" d="M882.2,576.3c0-47.4-44.6-84.5-94.2-71.3a71.6,71.6,0,0,0-50.7,49.8c-10.1,35.7,5.9,69,33.3,85.2h75.3A74.1,74.1,0,0,0,882.2,576.3Z"/>
            <path class="1b0cc5ac-45e4-4e0c-a402-3b928c42a75a" d="M681.3,424.9c-7.9,16.8-25.6,25.1-39.5,18.6s-18.6-25.6-10.6-42.4,25.7-25.1,39.5-18.5S689.3,408.1,681.3,424.9Z"/>
            <path class="4a57039b-33ea-4914-9b17-8976fdd99ba4" d="M682.1,428.5c-8.1,17-26.3,25.1-40.9,18.3s-19.7-26.2-11.7-43.2,26.4-25.1,40.9-18.2S690.1,411.6,682.1,428.5Z"/>
            <ellipse class="1b0cc5ac-45e4-4e0c-a402-3b928c42a75a" cx="702.6" cy="464.2" rx="33.7" ry="35" transform="translate(-73.8 790.3) rotate(-56.2)"/>
            <path class="4a57039b-33ea-4914-9b17-8976fdd99ba4" d="M730.9,487.1c-10.3,15.5-32.1,19-48.7,7.9s-21.7-32.6-11.4-48,32.2-19.1,48.8-8S741.3,471.7,730.9,487.1Z"/>
            <circle class="1b0cc5ac-45e4-4e0c-a402-3b928c42a75a" cx="581.6" cy="347" r="49.5"/>
            <circle class="4a57039b-33ea-4914-9b17-8976fdd99ba4" cx="579.9" cy="351.2" r="49.5"/>
            <ellipse class="4a57039b-33ea-4914-9b17-8976fdd99ba4" cx="584" cy="356" rx="48.8" ry="51.8"/>
            <path class="1b0cc5ac-45e4-4e0c-a402-3b928c42a75a" d="M1566.2,439.8c-2,26.2-24.8,46.6-50.1,46.6s-43.3-18.9-43.3-43.2,20.5-48.2,46.8-50.1S1568.4,412.4,1566.2,439.8Z"/>
            <path class="4a57039b-33ea-4914-9b17-8976fdd99ba4" d="M1524.8,391.5a55.3,55.3,0,0,0-49.2,52.3c-.1,24.2,19,43.2,43.3,43.2a51,51,0,0,0,36.7-16.2,50.1,50.1,0,0,0,15.8-32.5C1573.6,410.9,1552.3,389.5,1524.8,391.5Z"/>
            <ellipse class="1b0cc5ac-45e4-4e0c-a402-3b928c42a75a" cx="1283.8" cy="553.4" rx="33" ry="31"/>
            <ellipse class="4a57039b-33ea-4914-9b17-8976fdd99ba4" cx="1285.8" cy="555.2" rx="33.8" ry="31"/>
            <circle class="1b0cc5ac-45e4-4e0c-a402-3b928c42a75a" cx="1040.1" cy="570.2" r="42.9"/>
            <circle class="4a57039b-33ea-4914-9b17-8976fdd99ba4" cx="1040.1" cy="571.9" r="42.9"/>
            <path class="1b0cc5ac-45e4-4e0c-a402-3b928c42a75a" d="M1038.6,540.1c0,25.3-21.1,47.9-47.9,49.3s-48.5-20.1-46.1-46.9,25.1-45.3,50.2-45.3S1038.6,516,1038.6,540.1Z"/>
            <path class="4a57039b-33ea-4914-9b17-8976fdd99ba4" d="M1039.4,542.5c0,25.5-21.1,48.1-47.9,49.6s-48.6-20.1-46.2-47,25.1-45.6,50.3-45.6S1039.4,518.3,1039.4,542.5Z"/>
            <path class="1b0cc5ac-45e4-4e0c-a402-3b928c42a75a" d="M1196.9,584.5c-12.3,11.9-31.9,13.7-43.5,3.1s-10-29.8,4-41.4,32.2-10.8,42.4-.2S1208.6,573.2,1196.9,584.5Z"/>
            <ellipse class="1b0cc5ac-45e4-4e0c-a402-3b928c42a75a" cx="1390" cy="514.5" rx="38" ry="32.6"/>
            <ellipse class="4a57039b-33ea-4914-9b17-8976fdd99ba4" cx="1390.9" cy="517.5" rx="38" ry="32.6"/>
            <path class="1b0cc5ac-45e4-4e0c-a402-3b928c42a75a" d="M1490.3,501.4c3.8-19.9-10.7-37.6-32.7-37.7a40.5,40.5,0,0,0-17.6,4c-14.8,5.8-25,19.5-25,34.4,0,18.1,15.1,31.5,33.6,31.5a39.2,39.2,0,0,0,14.9-2.9C1476.7,526.4,1487.6,515.3,1490.3,501.4Z"/>
            <path class="4a57039b-33ea-4914-9b17-8976fdd99ba4" d="M1491.7,502.5c3.8-19.7-10.5-37.3-32.5-37.4a40,40,0,0,0-17.5,3.9c-14.8,5.8-25,19.4-25,34.2-.1,18,14.8,31.3,33.3,31.3a41.1,41.1,0,0,0,14.9-2.8C1478,527.3,1489,516.3,1491.7,502.5Z"/>
            <path class="4a57039b-33ea-4914-9b17-8976fdd99ba4" d="M807.3,505.7h-3.8c-42.3,0-76.6,33.1-76.6,74,0,24.9,12.7,46.9,32.3,60.3h92.4c19.6-13.4,32.3-35.4,32.3-60.3C883.9,538.8,849.6,505.7,807.3,505.7Z"/>
            <path class="1b0cc5ac-45e4-4e0c-a402-3b928c42a75a" d="M874.9,586.1c6.7-19.5-9.1-38.8-36.4-41.7a64,64,0,0,0-22.8,1.7c-19.8,4.1-35,17-37,32.6-2.5,18.9,15.7,34.6,39.9,36.4a62.6,62.6,0,0,0,19.5-1.6C855.2,610.2,870.1,599.9,874.9,586.1Z"/>
            <path class="4a57039b-33ea-4914-9b17-8976fdd99ba4" d="M878.6,588.1c6.9-19.5-9.6-38.9-37.9-41.9a68.5,68.5,0,0,0-23.6,1.7c-20.5,4-36.1,16.8-38.2,32.4-2.5,18.9,16.4,34.7,41.5,36.6a67.4,67.4,0,0,0,20.2-1.6C858.3,612.1,873.7,601.9,878.6,588.1Z"/>
            <path class="1b0cc5ac-45e4-4e0c-a402-3b928c42a75a" d="M1017.2,632c16.9,7.7,35.6-4.8,40.6-29.1a59.5,59.5,0,0,0,.4-20.6c-2-18.1-12.2-32.8-26-35.9-16.8-3.9-32.5,11.1-36.2,32.7a57.8,57.8,0,0,0-.2,17.6C997.3,612.3,1005.2,626.6,1017.2,632Z"/>
            <path class="4a57039b-33ea-4914-9b17-8976fdd99ba4" d="M1004.1,626.6c5.6,10.6,43.8,13.4,51.4-4.3a57,57,0,0,0,4.2-16.5,66.2,66.2,0,0,0-1.8-23.2c-3.9-19.1-15.6-33.9-29.5-37-16.4-3.7-31.2,10.2-34.9,31.4a64.5,64.5,0,0,0-.3,18.6C994.1,606.8,999.2,617.3,1004.1,626.6Z"/>
            <path class="4a57039b-33ea-4914-9b17-8976fdd99ba4" d="M1197.4,587.3c-12.2,11.8-31.6,13.4-43.1,2.8s-10.2-29.7,3.6-41.1,31.9-10.5,42.2,0S1208.9,576.1,1197.4,587.3Z"/>
            <path class="1b0cc5ac-45e4-4e0c-a402-3b928c42a75a" d="M1199.1,606.4c-10.2,9.9-26.6,11.2-36.4,2.2s-8.6-25.1,3-34.7,26.9-8.7,35.6.2S1208.8,597,1199.1,606.4Z"/>
            <path class="4a57039b-33ea-4914-9b17-8976fdd99ba4" d="M1201.2,607.8c-10.4,10.6-27,12.6-36.8,3.7s-8.5-25.7,3.4-36.1,27.3-10.2,36-1.3S1211.1,597.6,1201.2,607.8Z"/>
          </g>
        </g>
        <g class="06fc81df-da86-43ca-a302-1c474dde70cb">
          <g>
            <path class="47a57cb9-47a7-4f10-95b0-ebbae728db77" d="M1088.6,146.7c-8.3,3.2-16,13.2-20.2,27.7a70.2,70.2,0,0,0-2.2,10.9c-10.3-8.3-23.9-6.6-34.7,6s-16.1,34.8-12.9,53.2a54.4,54.4,0,0,0-20,28.8,41.4,41.4,0,0,0-18.3-4.2c-17.5,0-32.5,10.9-39.3,26.5h-2.9c-23.8,0-43.1,20.1-43.1,44.9a44.3,44.3,0,0,0,1.8,12.7A47.3,47.3,0,0,0,882.4,375l-2.5-.2-.6-.2c-17.2-5-38.5,7.4-48.8,27-6.8,13.1-7.7,27.2-2.9,37.5a37.5,37.5,0,0,0-26.3,22.5,36.8,36.8,0,0,0-54.2,10.7c-2.2-14-15.2-24.9-30.9-24.9a32.4,32.4,0,0,0-18.1,5.4c-5.6-11.7-18.2-19.9-32.7-19.9H663c-16.6,0-30.1,8.8-30.3,19.7h0a30.2,30.2,0,0,0-14.9-4,29.7,29.7,0,0,0-22.6,10.4c-4.3-10.4-13-18.2-23.6-20.3-.3-10.9-12.1-19.6-26.7-19.6a35,35,0,0,0-11.9,2.1,32.6,32.6,0,0,0-16.8,13.4,31.2,31.2,0,0,0-22.4-9.7c-16.2,0-29.7,13.1-32.1,30.2a29.7,29.7,0,0,0-16.8-5.1,30,30,0,0,0-19,6.8,31.5,31.5,0,0,0-8.1-14.1c-4.8-5.4-13-8.9-22.4-8.9h-2.6a28,28,0,0,0,1-7.7c0-12.6-7.9-23.2-18.8-26.6a31.5,31.5,0,0,0,3.4-14.4,30.4,30.4,0,0,0-.4-5.2,34.1,34.1,0,0,0-1.4-5.5,33.7,33.7,0,0,0-30.1-22.2,27.7,27.7,0,0,0-4.9-.4c-6.5,0-11.9,1.9-15.9,5.1a26.9,26.9,0,0,0-5.5-1.7c-2.3-15.3-12.1-28.1-26.4-32a35.8,35.8,0,0,0-4.3-.8A40.7,40.7,0,0,0,250.6,291c-11.1,0-19.2,5.6-22.1,13.4a27.4,27.4,0,0,0-29.7-6.7,34.2,34.2,0,0,0-8.4-9A43.2,43.2,0,0,0,166.8,236a42.6,42.6,0,0,0-31.7-1.3,33.9,33.9,0,0,0-15.7-14.4,38.6,38.6,0,0,0-8-2.4c4.9-7.5,7.2-15.8,6.6-23.5-.6-16.9-18.9-30.5-36.5-30.5a27.8,27.8,0,0,0-5.1.4c-1.7-7.8-6.4-14.3-13.5-17.5a21.8,21.8,0,0,0-9.7-1.9c8.1-33.1-27.5-74.7-47.6-75.5V639h1083Z"/>
            <path class="1b0cc5ac-45e4-4e0c-a402-3b928c42a75a" d="M1055.6,277.1c-5.7-6.1-13.1-9.8-21.1-9.8-18.2,0-33,18.9-33,42.2a57.7,57.7,0,0,0,.8,9.4c-14.9,12.6-30.8,26.2-46.3,39.8a35.1,35.1,0,0,0-17.2-2.8,34.6,34.6,0,0,0-28.9,46.5l-5.8,6.2h-.4c-25.3,0-45.8,18.9-46.2,42.4-8.4-6.8-21.8-8.7-34.8-3.9a41.9,41.9,0,0,0-13.6,8.2,41.4,41.4,0,0,0-14.6,26.4A33.6,33.6,0,0,0,774,492.6a29,29,0,0,0-1.9-2.9c-9.6-12.4-29.7-12.9-44.9-1.1a43.2,43.2,0,0,0-9.6,10.5c-21.7.5-44.7.4-66.5-.6a32.6,32.6,0,0,0-6.3-25.6c-11.1-14.4-32.3-16.7-47.2-5.1l-.7.5a25.1,25.1,0,0,0-3.8-7c-5.1-6.7-13.3-9.9-22.2-9.6a25.1,25.1,0,0,0-50.1-.4c-2.8,1.7-5.8,3.3-9,5a33.2,33.2,0,0,0-9.6-1.4,31.5,31.5,0,0,0-27.1,15.3,40.9,40.9,0,0,0-13.1-2.1,41.3,41.3,0,0,0-32,15,180,180,0,0,1-36.1.8c-11.1-.8-22.9-2.3-35-4.2a86.6,86.6,0,0,0-3.6-16.2,29.4,29.4,0,0,0,6.9-19.2c0-15.3-11.2-27.7-25.1-27.7a23.2,23.2,0,0,0-12.8,3.9,86.4,86.4,0,0,0-51.9-17.1,80.4,80.4,0,0,0-9.8.5,41.1,41.1,0,0,0-21.2-5.8,34.9,34.9,0,0,0-6.5.5,38.3,38.3,0,0,0,7.2-22.3c0-20.8-16.6-37.7-37-37.7a36.7,36.7,0,0,0-29,14.3,80.3,80.3,0,0,0-12-2.7A34.6,34.6,0,0,0,142.8,320a33.2,33.2,0,0,0-6.6-19.1,32.5,32.5,0,0,0-17.7-12c7.3-11.5,8.3-25.9,1.4-37.8-10.2-17.5-33.7-22.7-52.5-11.8A41.7,41.7,0,0,0,51.5,256c-9-9.9-17.9-19.5-25.4-27.6,15.3-8.5,25.8-25.5,25.8-45,0-27.4-20.5-49.8-46.3-50.8V637l1083,1.5V257.2A369.4,369.4,0,0,0,1055.6,277.1Z"/>
            <ellipse class="47a57cb9-47a7-4f10-95b0-ebbae728db77" cx="47.9" cy="237.3" rx="32.8" ry="32.2"/>
            <path class="1b0cc5ac-45e4-4e0c-a402-3b928c42a75a" d="M84.2,236.3c0-16-15.9-29.2-36.9-29.4a32.4,32.4,0,0,0-32.8,32.2c0,17.8,14.7,32.3,32.8,32.3A32.7,32.7,0,0,0,75,256.3,27.1,27.1,0,0,0,84.2,236.3Z"/>
            <path class="47a57cb9-47a7-4f10-95b0-ebbae728db77" d="M127.2,278.9c6-16.4-5.1-35.6-26.1-43.5a34.9,34.9,0,1,0,9.5,60.4A29.7,29.7,0,0,0,127.2,278.9Z"/>
            <path class="1b0cc5ac-45e4-4e0c-a402-3b928c42a75a" d="M121.8,281.9c6.3-17-4.6-36.8-25.6-44.7-18.1-6.8-38.5,3.3-45.4,22.1s2.3,39.6,20.5,46.2a34.7,34.7,0,0,0,33.6-5.8A30.9,30.9,0,0,0,121.8,281.9Z"/>
            <ellipse class="47a57cb9-47a7-4f10-95b0-ebbae728db77" cx="263.9" cy="374.7" rx="41" ry="42.2" transform="translate(-100.1 96.2) rotate(-17.4)"/>
            <ellipse class="1b0cc5ac-45e4-4e0c-a402-3b928c42a75a" cx="264.1" cy="377.2" rx="41.8" ry="42.2" transform="translate(-100.8 96.4) rotate(-17.4)"/>
            <ellipse class="47a57cb9-47a7-4f10-95b0-ebbae728db77" cx="312.2" cy="407.7" rx="41" ry="37" transform="translate(-122 133.5) rotate(-20.3)"/>
            <ellipse class="1b0cc5ac-45e4-4e0c-a402-3b928c42a75a" cx="310.8" cy="410" rx="41" ry="37" transform="translate(-122.8 133.1) rotate(-20.3)"/>
            <ellipse class="47a57cb9-47a7-4f10-95b0-ebbae728db77" cx="370.3" cy="468.5" rx="25.1" ry="27.7"/>
            <ellipse class="1b0cc5ac-45e4-4e0c-a402-3b928c42a75a" cx="368.4" cy="471.6" rx="25.1" ry="27.7"/>
            <path class="47a57cb9-47a7-4f10-95b0-ebbae728db77" d="M449.8,499.6c0-22.9-20.2-41.6-45.1-41.6a48.3,48.3,0,0,0-10.8,1.2c-20.9,3.6-36.7,20.6-36.7,40.9,0,23,20.2,41.6,45.1,41.6a48.3,48.3,0,0,0,10.8-1.2C433.9,536.9,449.8,520,449.8,499.6Z"/>
            <path class="1b0cc5ac-45e4-4e0c-a402-3b928c42a75a" d="M450.5,502.3c0-23-20.6-41.7-46-41.8a49.4,49.4,0,0,0-11,1.2c-21.4,3.6-37.5,20.5-37.5,40.8,0,23,20.6,41.7,46,41.8a49.4,49.4,0,0,0,11-1.2C434.3,539.5,450.5,522.6,450.5,502.3Z"/>
            <path class="47a57cb9-47a7-4f10-95b0-ebbae728db77" d="M564.7,479.6c0-22.2-21.8-40.2-48.7-40.2-14.3,0-27.1,5.1-36,13.1A41.5,41.5,0,0,0,506.7,526a40.9,40.9,0,0,0,25-8.4C550.9,512.2,564.7,497.2,564.7,479.6Z"/>
            <path class="1b0cc5ac-45e4-4e0c-a402-3b928c42a75a" d="M565.5,481.2c0-22.4-21.9-40.5-48.8-40.5-14.3,0-27.1,5.1-36,13.2a41.9,41.9,0,0,0,26.7,74,40.9,40.9,0,0,0,25.1-8.5C551.7,514,565.5,498.9,565.5,481.2Z"/>
            <ellipse class="47a57cb9-47a7-4f10-95b0-ebbae728db77" cx="910.7" cy="415.6" rx="33" ry="42.3" transform="translate(-63.7 644.9) rotate(-37.8)"/>
            <ellipse class="1b0cc5ac-45e4-4e0c-a402-3b928c42a75a" cx="915.2" cy="416.1" rx="35.9" ry="42.3" transform="translate(-63.1 647.8) rotate(-37.8)"/>
            <path class="47a57cb9-47a7-4f10-95b0-ebbae728db77" d="M689.1,493.2c9.3,11.9,6.8,29.4-5.6,38.9s-29.9,7.7-39.2-4.2-6.7-29.4,5.7-39S679.9,481.2,689.1,493.2Z"/>
            <path class="1b0cc5ac-45e4-4e0c-a402-3b928c42a75a" d="M695.2,499.3a21.3,21.3,0,0,0-5.5-4.9l-1.1-1.5c-8.2-10.6-25.7-10.9-39-.7s-17.3,27.3-9,38a19.4,19.4,0,0,0,5.5,4.8,9.7,9.7,0,0,0,1,1.5c8.3,10.7,25.7,11,39,.7S703.4,510,695.2,499.3Z"/>
            <ellipse class="47a57cb9-47a7-4f10-95b0-ebbae728db77" cx="162.9" cy="335" rx="30.4" ry="29.1" transform="matrix(0.3, -0.95, 0.95, 0.3, -205.52, 390.35)"/>
            <path class="1b0cc5ac-45e4-4e0c-a402-3b928c42a75a" d="M155,308.4c-11.1,4.3-16.4,10.2-19.6,20.2-5,16,3.4,32.9,18.7,37.7a30.3,30.3,0,0,0,10.3,1.2,29.2,29.2,0,0,0,8.4-.7c13.5.1,25.7-7.9,29.7-20.6C207.4,330.4,184.5,297.2,155,308.4Z"/>
            <path class="47a57cb9-47a7-4f10-95b0-ebbae728db77" d="M995.1,291.7a59.1,59.1,0,0,0-37.5,13.6c-14.1,10.3-23.2,26.4-23.2,44.1,0,28.4,23.6,50.4,52.9,50.4a59.8,59.8,0,0,0,38-13.8c12.6-9.2,21.4-23.2,22.9-39.2C1051.1,316.7,1027.3,291.4,995.1,291.7Z"/>
            <path class="47a57cb9-47a7-4f10-95b0-ebbae728db77" d="M740.5,473.9c12.5,16,10.6,38.3-4.1,49.6s-36.6,7.7-49.1-8.4-10.6-38.3,4.1-49.6S728.1,457.8,740.5,473.9Z"/>
            <path class="1b0cc5ac-45e4-4e0c-a402-3b928c42a75a" d="M740.1,478c12.4,16,10.8,38.2-3.7,49.4s-36.4,7.3-48.8-8.7-10.8-38.1,3.7-49.4S727.7,462,740.1,478Z"/>
            <path class="47a57cb9-47a7-4f10-95b0-ebbae728db77" d="M530.7,469.1c-15.1.7-26.9,12.4-26.3,26.1s13.5,24.3,28.6,23.6,27-12.4,26.4-26.2S545.9,468.4,530.7,469.1Z"/>
            <path class="1b0cc5ac-45e4-4e0c-a402-3b928c42a75a" d="M530,469.9c-16.4-.6-29.7,10-29.7,23.8s13.2,25.5,29.5,26.1,29.7-10.1,29.8-23.9S546.4,470.5,530,469.9Z"/>
            <path class="47a57cb9-47a7-4f10-95b0-ebbae728db77" d="M654,503.6c-10.4,2.2-17.1,10.3-15,18.2s12.1,12.5,22.4,10.3,17.1-10.4,15-18.2S664.3,501.4,654,503.6Z"/>
            <path class="1b0cc5ac-45e4-4e0c-a402-3b928c42a75a" d="M654.4,505.4c-11.5,2.2-19.1,10.4-16.8,18.3s13.5,12.4,25,10.1,19.1-10.4,16.9-18.3S666,503.1,654.4,505.4Z"/>
            <path class="47a57cb9-47a7-4f10-95b0-ebbae728db77" d="M312.9,423.2c-10.8-8.6-24-9.2-29.9-3.3s-3.7,14,3,21.3,20.4,13,29.4,9.5C326.3,446.4,325.3,433,312.9,423.2Z"/>
            <path class="1b0cc5ac-45e4-4e0c-a402-3b928c42a75a" d="M310.3,422.2c-11.7-9.3-26.2-9.6-32.7-2.9s-4.3,15.8,3,23.9,22.4,14.1,32.3,9.8C324.9,447.9,323.8,432.9,310.3,422.2Z"/>
            <path class="47a57cb9-47a7-4f10-95b0-ebbae728db77" d="M1088.6,232.2v-4.4a52.8,52.8,0,0,0-36.9,50.4,54.9,54.9,0,0,0,3.3,18.7,54.9,54.9,0,0,1-2-14.7A52.8,52.8,0,0,1,1088.6,232.2Z"/>
            <path class="1b0cc5ac-45e4-4e0c-a402-3b928c42a75a" d="M1055,296.9a53,53,0,0,0,33.6,35.2v-3.5A52.9,52.9,0,0,1,1055,296.9Z"/>
            <path class="1b0cc5ac-45e4-4e0c-a402-3b928c42a75a" d="M1088.6,328.6V232.2a52.8,52.8,0,0,0-35.6,50,54.9,54.9,0,0,0,2,14.7A52.9,52.9,0,0,0,1088.6,328.6Z"/>
            <path class="1b0cc5ac-45e4-4e0c-a402-3b928c42a75a" d="M997.9,293.7a60.3,60.3,0,0,0-37.5,13.6c-14.1,10.3-23.2,26.5-23.2,44.1,0,28.4,23.6,50.4,52.9,50.4a60,60,0,0,0,38.1-13.7c12.6-9.3,21.3-23.2,22.9-39.2C1054,318.8,1030.1,293.4,997.9,293.7Z"/>
            <path class="47a57cb9-47a7-4f10-95b0-ebbae728db77" d="M519.3,483.3c-10.3-3.4-22.6,2.8-27.6,13.8s-.6,22.8,9.6,26.3,22.6-2.8,27.6-13.9S529.6,486.7,519.3,483.3Z"/>
            <path class="1b0cc5ac-45e4-4e0c-a402-3b928c42a75a" d="M516.8,483.5a23.4,23.4,0,0,0-29.1,12.8c-4.7,11.2.5,23.6,11.8,27.7a23.4,23.4,0,0,0,29.1-12.8A20.6,20.6,0,0,0,516.8,483.5Z"/>
            <path class="4a57039b-33ea-4914-9b17-8976fdd99ba4" d="M1088.6,274.4a32.7,32.7,0,0,0-17,20.2,29.6,29.6,0,0,0-1.2,8.8,61.4,61.4,0,0,0-53.7,45.7c-17.5-2.1-33.9,7.7-38.5,23.7-5.2,18.1,6.6,37.3,26.2,42.9l2.7.7a45.7,45.7,0,0,0-3,16.2,45,45,0,0,0,17.4,35.5c-4.6.1-9.4,0-14.3-.1a33,33,0,0,0-65.2,7.5,24.6,24.6,0,0,0,.2,2.8c-33.5,9.5-69.4,20-91.3,32.8a51.9,51.9,0,0,0-38.3-16.4c-26.3,0-47.9,18.7-50,42.5a31.4,31.4,0,0,0-13,16h-.5a33.8,33.8,0,0,0-25-10.7,34.5,34.5,0,0,0-10.2,1.5,28.8,28.8,0,0,0-10.2-1.8,29.4,29.4,0,0,0-22.6,10.4,29.7,29.7,0,0,0-50.3,4.8,44.7,44.7,0,0,0-23.2-9.7,29.7,29.7,0,0,0-59.1,3.2,28.3,28.3,0,0,0,1.8,11.3h-3.2v.7l-45.3-1.9a65.4,65.4,0,0,0-101.3-32.5c-14-20.7-36-34-60.7-34-28.1,0-52.6,17.2-65.9,42.8.2-.2-18.3-8.8-18-8.6,10.3-15.5,7-35.8-7.4-45.5a29.6,29.6,0,0,0-8.3-3.8c4.7-13.8.4-29.1-11.5-37.1-14.1-9.4-33.5-5.1-44.1,9.4a87.9,87.9,0,0,0-41-43.2,33.4,33.4,0,0,0-7.9-13.1,18.8,18.8,0,0,0,.7-5.3c0-15.3-16.3-27.7-36.3-27.7S65.8,373.5,64,387.5l-2.3-1a55,55,0,0,0,2.1-14.7,49.2,49.2,0,0,0-17.7-38.2,32,32,0,0,0,8.4-21.9c0-15.9-11.1-29-25.5-30.8a48.3,48.3,0,0,0,1.7-12.8c0-20-9.7-34.6-25.1-34.6V639h1083Z"/>
            <path class="4a57039b-33ea-4914-9b17-8976fdd99ba4" d="M428.8,548.9c0-31.2-33.7-56.5-75.3-56.5s-75.3,25.3-75.3,56.5c0,19,12.5,35.9,31.7,46.1h87.2C416.3,584.8,428.8,567.9,428.8,548.9Z"/>
            <path class="4a57039b-33ea-4914-9b17-8976fdd99ba4" d="M859.6,535c0-22.4-20.1-40.5-45-40.5s-44.9,18.1-44.9,40.5c0,13.6,7.4,25.7,18.9,33h52.1C852.1,560.7,859.6,548.6,859.6,535Z"/>
            <path class="4a57039b-33ea-4914-9b17-8976fdd99ba4" d="M609.6,547c0-14.2-13-25.8-29.1-25.8s-29.1,11.6-29.1,25.8c0,8.7,4.8,16.3,12.2,21h33.8C604.8,563.3,609.6,555.7,609.6,547Z"/>
            <path class="4a57039b-33ea-4914-9b17-8976fdd99ba4" d="M1033.6,345.7c-14-10.2-35.1-5.1-47.2,11.5s-10.6,38.3,3.3,48.5c8.6,6.2,19.7,6.7,29.9,2.5l25.4-34.8C1046,362.4,1042.1,351.9,1033.6,345.7Z"/>
            <path class="1b0cc5ac-45e4-4e0c-a402-3b928c42a75a" d="M365,575.3c0-47.4-44.6-84.5-94.2-71.3a71.6,71.6,0,0,0-50.7,49.8c-10.1,35.7,5.9,69,33.3,85.2h75.3A74.1,74.1,0,0,0,365,575.3Z"/>
            <path class="1b0cc5ac-45e4-4e0c-a402-3b928c42a75a" d="M164.2,423.9c-8,16.8-25.7,25.1-39.6,18.6S106,416.9,114,400.1s25.7-25.1,39.5-18.5S172.1,407.1,164.2,423.9Z"/>
            <path class="4a57039b-33ea-4914-9b17-8976fdd99ba4" d="M164.9,427.5c-8.1,17-26.3,25.1-40.8,18.3s-19.8-26.2-11.8-43.2,26.4-25.1,40.9-18.2S172.9,410.6,164.9,427.5Z"/>
            <ellipse class="1b0cc5ac-45e4-4e0c-a402-3b928c42a75a" cx="185.4" cy="463.2" rx="33.7" ry="35" transform="translate(-302.7 359.9) rotate(-56.2)"/>
            <path class="4a57039b-33ea-4914-9b17-8976fdd99ba4" d="M213.7,486.1c-10.3,15.5-32.1,19-48.7,7.9s-21.7-32.6-11.4-48,32.2-19.1,48.8-8S224.1,470.7,213.7,486.1Z"/>
            <circle class="1b0cc5ac-45e4-4e0c-a402-3b928c42a75a" cx="64.4" cy="346" r="49.5"/>
            <circle class="4a57039b-33ea-4914-9b17-8976fdd99ba4" cx="62.7" cy="350.2" r="49.5"/>
            <ellipse class="4a57039b-33ea-4914-9b17-8976fdd99ba4" cx="66.8" cy="355" rx="48.8" ry="51.8"/>
            <path class="1b0cc5ac-45e4-4e0c-a402-3b928c42a75a" d="M1049,438.8c-2,26.2-24.8,46.6-50.1,46.6s-43.3-18.9-43.3-43.2,20.5-48.2,46.8-50.1S1051.2,411.4,1049,438.8Z"/>
            <path class="4a57039b-33ea-4914-9b17-8976fdd99ba4" d="M1007.6,390.5a55.3,55.3,0,0,0-49.2,52.3c-.1,24.2,19,43.2,43.3,43.2a51,51,0,0,0,36.7-16.2,50.1,50.1,0,0,0,15.8-32.5C1056.4,409.9,1035.1,388.5,1007.6,390.5Z"/>
            <ellipse class="1b0cc5ac-45e4-4e0c-a402-3b928c42a75a" cx="766.6" cy="552.4" rx="33" ry="31"/>
            <ellipse class="4a57039b-33ea-4914-9b17-8976fdd99ba4" cx="768.6" cy="554.2" rx="33.8" ry="31"/>
            <circle class="1b0cc5ac-45e4-4e0c-a402-3b928c42a75a" cx="522.9" cy="569.2" r="42.9"/>
            <circle class="4a57039b-33ea-4914-9b17-8976fdd99ba4" cx="522.9" cy="570.9" r="42.9"/>
            <path class="1b0cc5ac-45e4-4e0c-a402-3b928c42a75a" d="M521.4,539.1c0,25.3-21.1,47.9-47.9,49.3s-48.5-20.1-46.1-46.9,25.1-45.3,50.2-45.3S521.4,515,521.4,539.1Z"/>
            <path class="4a57039b-33ea-4914-9b17-8976fdd99ba4" d="M522.2,541.5c0,25.5-21.1,48.1-47.9,49.6s-48.6-20.1-46.2-47,25.1-45.6,50.3-45.6S522.2,517.3,522.2,541.5Z"/>
            <path class="1b0cc5ac-45e4-4e0c-a402-3b928c42a75a" d="M679.7,583.5c-12.3,11.9-31.9,13.7-43.5,3.1s-10-29.8,4-41.4,32.2-10.8,42.5-.2S691.4,572.2,679.7,583.5Z"/>
            <ellipse class="1b0cc5ac-45e4-4e0c-a402-3b928c42a75a" cx="872.8" cy="513.5" rx="38" ry="32.6"/>
            <ellipse class="4a57039b-33ea-4914-9b17-8976fdd99ba4" cx="873.7" cy="516.5" rx="38" ry="32.6"/>
            <path class="1b0cc5ac-45e4-4e0c-a402-3b928c42a75a" d="M973.1,500.4c3.8-19.9-10.7-37.6-32.7-37.7a40.5,40.5,0,0,0-17.6,4c-14.8,5.8-25,19.5-25,34.4,0,18.1,15.1,31.5,33.6,31.5a39.2,39.2,0,0,0,14.9-2.9C959.5,525.4,970.4,514.3,973.1,500.4Z"/>
            <path class="4a57039b-33ea-4914-9b17-8976fdd99ba4" d="M974.5,501.5c3.8-19.7-10.5-37.3-32.5-37.4a40,40,0,0,0-17.5,3.9c-14.8,5.8-25,19.4-25,34.2-.1,18,14.9,31.3,33.3,31.3a41.1,41.1,0,0,0,14.9-2.8C960.8,526.3,971.8,515.3,974.5,501.5Z"/>
            <path class="4a57039b-33ea-4914-9b17-8976fdd99ba4" d="M290.1,504.7h-3.8c-42.3,0-76.6,33.1-76.6,74,0,24.9,12.7,46.9,32.3,60.3h92.5c19.5-13.4,32.2-35.4,32.2-60.3C366.7,537.8,332.4,504.7,290.1,504.7Z"/>
            <path class="1b0cc5ac-45e4-4e0c-a402-3b928c42a75a" d="M357.7,585.1c6.7-19.5-9.1-38.8-36.4-41.7a64,64,0,0,0-22.8,1.7c-19.8,4.1-35,17-37,32.6-2.5,18.9,15.7,34.6,39.9,36.4a62.6,62.6,0,0,0,19.5-1.6C338,609.2,352.9,598.9,357.7,585.1Z"/>
            <path class="4a57039b-33ea-4914-9b17-8976fdd99ba4" d="M361.4,587.1c6.9-19.5-9.6-38.9-37.9-41.9a68.7,68.7,0,0,0-23.6,1.7c-20.5,4-36.1,16.8-38.2,32.4-2.5,18.9,16.4,34.7,41.5,36.6a67.4,67.4,0,0,0,20.2-1.6C341.1,611.1,356.5,600.9,361.4,587.1Z"/>
            <path class="1b0cc5ac-45e4-4e0c-a402-3b928c42a75a" d="M500,631c16.9,7.7,35.6-4.8,40.6-29.1a59.5,59.5,0,0,0,.4-20.6c-2-18.1-12.2-32.8-26-35.9-16.8-3.9-32.5,11.1-36.2,32.7a57.8,57.8,0,0,0-.2,17.6C480.1,611.3,488,625.6,500,631Z"/>
            <path class="4a57039b-33ea-4914-9b17-8976fdd99ba4" d="M486.9,625.6c5.6,10.6,43.8,13.4,51.4-4.3a57,57,0,0,0,4.2-16.5,66.2,66.2,0,0,0-1.8-23.2c-3.9-19.1-15.6-33.9-29.5-37-16.4-3.7-31.2,10.2-34.9,31.4a64.5,64.5,0,0,0-.3,18.6C476.9,605.8,482,616.3,486.9,625.6Z"/>
            <path class="4a57039b-33ea-4914-9b17-8976fdd99ba4" d="M680.2,586.3c-12.1,11.8-31.6,13.4-43.1,2.8s-10.2-29.7,3.6-41.1,31.9-10.5,42.2,0S691.7,575.1,680.2,586.3Z"/>
            <path class="1b0cc5ac-45e4-4e0c-a402-3b928c42a75a" d="M681.9,605.4c-10.2,9.9-26.6,11.2-36.4,2.2s-8.6-25.1,3-34.7,26.9-8.7,35.6.2S691.6,596,681.9,605.4Z"/>
            <path class="4a57039b-33ea-4914-9b17-8976fdd99ba4" d="M684,606.8c-10.4,10.6-27,12.6-36.8,3.7s-8.5-25.7,3.4-36.1,27.3-10.2,36-1.3S693.9,596.6,684,606.8Z"/>
          </g>
        </g>
        <path class="1b0cc5ac-45e4-4e0c-a402-3b928c42a75a" d="M909.6,459.3a35.7,35.7,0,0,0-31.9-19.1c-17.9,0-32.7,12.6-35.3,29.1a62.8,62.8,0,0,1,29.9-7.5,62.1,62.1,0,0,1,21.6,3.8A43.2,43.2,0,0,1,909.6,459.3Z"/>
      </g>
    </g>
  </g>
</svg>
