<svg xmlns="http://www.w3.org/2000/svg" width="48" height="48" viewBox="0 0 48 48">
  <defs>
    <style>
      .\35 9f999f4-1450-4b07-804a-69242f6bfac1 {
        fill: #999;
      }
    </style>
  </defs>
  <title>hand-with-heart</title>
  <g id="34fd66ab-bcf3-4b1d-bea4-dcd9cce46e9b" data-name="Layer 2">
    <g id="c92561f3-a65c-4ae1-a3c6-db45f9bf4ba1" data-name="Layer 1">
      <g id="9d7ab302-e93d-4488-8ead-b96b015f65ad" data-name="Wayfinding - Patient Advantage">
        <path class="59f999f4-1450-4b07-804a-69242f6bfac1" d="M23.9,0a23.2,23.2,0,0,1,9.4,1.9A23.1,23.1,0,0,1,40.9,7a25.1,25.1,0,0,1,5.2,7.6A22.9,22.9,0,0,1,48,24a24.9,24.9,0,0,1-.4,4.7,22.3,22.3,0,0,1-1.3,4.4,21,21,0,0,1-2.2,4.2,34.7,34.7,0,0,1-3,3.7,26,26,0,0,1-3.6,3,32.3,32.3,0,0,1-4.1,2.2,25.4,25.4,0,0,1-4.5,1.3,24.4,24.4,0,0,1-4.8.5H24a22.4,22.4,0,0,1-9.3-1.9A22.1,22.1,0,0,1,7.1,41a25.1,25.1,0,0,1-5.2-7.6A22.9,22.9,0,0,1,0,24a24.9,24.9,0,0,1,.4-4.7,22.3,22.3,0,0,1,1.3-4.4,21,21,0,0,1,2.2-4.2A34.7,34.7,0,0,1,6.9,7a26,26,0,0,1,3.6-3,33.6,33.6,0,0,1,4.2-2.2A21.3,21.3,0,0,1,19.2.5,24.2,24.2,0,0,1,23.9,0ZM37.8,37.8l2.5-3a27.9,27.9,0,0,0,1.8-3.4,15.6,15.6,0,0,0,1-3.7,15.8,15.8,0,0,0,.4-3.8,17.9,17.9,0,0,0-1.6-7.6,18.5,18.5,0,0,0-4.2-6.1A17.9,17.9,0,0,0,31.5,6,18.6,18.6,0,0,0,24,4.5a17.2,17.2,0,0,0-3.9.4A15,15,0,0,0,16.5,6a22.1,22.1,0,0,0-3.4,1.8,21.7,21.7,0,0,0-2.9,2.4l-2.5,3a26.8,26.8,0,0,0-1.8,3.3,15.6,15.6,0,0,0-1,3.7A15.8,15.8,0,0,0,4.5,24a15.8,15.8,0,0,0,.4,3.8c.3,1.3.7,2.4,1.1,3.6l6.8-10.3L23,19.6a3.9,3.9,0,0,1,.8,2.5A2.3,2.3,0,0,1,22.4,24l-3.8,1.8,1.9,2.7,6.4.3h.4l.3-.2,5.1-6.6a2.5,2.5,0,0,1,1.5-1,3.3,3.3,0,0,1,1.7.2l.4.4c.1,0,.1.1.1.2v.2L30,34.4c-.1.1-.2.3-.4.4L29,35H15.3q-.2,0-.3.3l-2.9,4.1a22.2,22.2,0,0,0,5.5,2.9A19.6,19.6,0,0,0,24,43.5a17.2,17.2,0,0,0,3.9-.4A15,15,0,0,0,31.5,42a15.4,15.4,0,0,0,3.4-1.7A34.7,34.7,0,0,0,37.8,37.8ZM33,11.4a2.8,2.8,0,0,1,1.5.4,5.2,5.2,0,0,1,1,1.1,2.7,2.7,0,0,1,.3,1.2,3.9,3.9,0,0,1-.3,1.4.7.7,0,0,1-.1.5l-.3.5-.7.7-.7.7a10.7,10.7,0,0,1-1.6,1.4,5.7,5.7,0,0,0-1.5,1.6h-.9a4.6,4.6,0,0,0-1.5-1.6L26.5,18l-.5-.5-.5-.5a.4.4,0,0,1-.1-.3l-.2-.2a4.9,4.9,0,0,1-.8-1.8,2.3,2.3,0,0,1,.2-1.8,2.4,2.4,0,0,1,1-1,1.9,1.9,0,0,1,1.4-.5h1.1l.4.2.4.4.5.4.3.2q.2.3.3.3l.3-.3.3-.2.5-.5.4-.3.4-.2H33Z"/>
      </g>
    </g>
  </g>
</svg>
