<svg xmlns="http://www.w3.org/2000/svg" xmlns:xlink="http://www.w3.org/1999/xlink" viewBox="1055 1821 475 546.73">
  <defs>
    <style>
      .cls-1 {
        fill: #333;
      }

      .cls-2 {
        fill: #ebebeb;
      }

      .cls-3 {
        fill: #666;
      }

      .cls-4 {
        opacity: 0.1;
      }

      .cls-5 {
        fill: #f9f9f9;
      }

      .cls-6 {
        fill: #e41f35;
      }

      .cls-7 {
        fill: #e7e7e7;
      }

      .cls-8 {
        fill: #1d83d8;
      }

      .cls-9 {
        fill: #f4821c;
      }

      .cls-10, .cls-11, .cls-14 {
        fill: #fff;
      }

      .cls-10 {
        opacity: 0.4;
      }

      .cls-11 {
        opacity: 0.2;
      }

      .cls-12 {
        clip-path: url(#clip-path);
      }

      .cls-13 {
        fill: #6baf58;
      }

      .cls-14 {
        fill-rule: evenodd;
      }
    </style>
    <clipPath id="clip-path">
      <path id="Path_153" data-name="Path 153" d="M65.031.144C57.649-.947,40.619,4.423,31.81,7.191S6.055,15.412.6,20.614a1.86,1.86,0,0,0-.5,1.93L6.726,43.432S31.642,35.882,40.031,33.2C48.5,30.513,73.169,22.292,73.169,22.292L66.541,1.4A1.968,1.968,0,0,0,65.031.144Z" transform="translate(0 0)"/>
    </clipPath>
  </defs>
  <g id="Group_274" data-name="Group 274" transform="translate(1054.952 1821.003)">
    <path id="Path_134" data-name="Path 134" class="cls-1" d="M308.73,1.342,18.464,97.146a26.732,26.732,0,0,0-17.03,33.892L132.473,528.268a26.845,26.845,0,0,0,33.892,17.114l290.266-95.721a26.732,26.732,0,0,0,17.03-33.892L342.539,18.456A26.788,26.788,0,0,0,308.73,1.342Z" transform="translate(0 0)"/>
    <rect id="Rectangle_34" data-name="Rectangle 34" class="cls-2" width="289.595" height="375.333" transform="translate(41.21 140.464) rotate(-18.257)"/>
    <path id="Path_136" data-name="Path 136" class="cls-3" d="M356.537,552.792a11.089,11.089,0,1,0,14.01,7.047A11.051,11.051,0,0,0,356.537,552.792Z" transform="translate(-56.196 -88.953)"/>
    <path id="Path_137" data-name="Path 137" class="cls-3" d="M182.348,90.562a2.653,2.653,0,1,0,3.356,1.678A2.7,2.7,0,0,0,182.348,90.562ZM220.6,77.978l-25.419,8.389a2.684,2.684,0,0,0-1.678,3.44,2.626,2.626,0,0,0,3.356,1.678L222.28,83.1a2.6,2.6,0,0,0,1.678-3.356A2.744,2.744,0,0,0,220.6,77.978Z" transform="translate(-29.069 -12.543)"/>
    <g id="Pill_Bottles_2_" transform="translate(112.275 160.054)">
      <ellipse id="Ellipse_10" data-name="Ellipse 10" class="cls-4" cx="63.674" cy="6.292" rx="63.674" ry="6.292" transform="translate(42.183 229.105) rotate(-17.656)"/>
      <path id="Path_138" data-name="Path 138" class="cls-5" d="M226.559,237.17s-5.453.5-8.976-10.57l-33.809,10.738-33.808,10.738c3.523,11.074-1.258,13.842-1.258,13.842-12.584,4.027-8.809,23.993-8.809,23.993S173.79,392.455,177.733,404.7c3.859,12.248,9.48,14.262,25.587,15.688,16.023,1.426,27.265-3.691,35.906-6.46,9.06-2.936,22.231-5.537,34.48-15.939,12.248-10.487,15.688-15.352,11.745-27.6C281.592,358.143,247.615,251.6,247.615,251.6S239.142,233.144,226.559,237.17Z" transform="translate(-134.717 -196.556)"/>
      <path id="Path_139" data-name="Path 139" class="cls-6" d="M213.333,190.966c-9.06-1.342-29.866,5.2-40.6,8.641s-31.543,10.067-38.171,16.443a2.207,2.207,0,0,0-.587,2.433l8.138,25.587s30.453-9.228,40.772-12.5,40.52-13.423,40.52-13.423l-8.138-25.587A2.386,2.386,0,0,0,213.333,190.966Z" transform="translate(-133.824 -190.787)"/>
      <path id="Path_140" data-name="Path 140" class="cls-7" d="M238.034,402.32c19.715-6.292,35.99-16.862,47.735-26.342,0-.084-.084-.168-.084-.336-3.524-11.158-32.131-101.006-37.08-116.442-12.332,7.718-29.53,15.52-49.161,21.812-22.651,7.215-43.876,10.906-59.144,10.822,2.685,8.557,33.892,106.459,37.584,118.12a28.145,28.145,0,0,0,1.174,3.188C194.243,413.226,215.383,409.535,238.034,402.32Z" transform="translate(-134.867 -201.807)"/>
      <path id="Path_141" data-name="Path 141" class="cls-8" d="M217.554,286.518l-24.58,7.8a9.153,9.153,0,0,0,5.537,17.45l24.58-7.8a9.153,9.153,0,0,0-5.537-17.45Z" transform="translate(-142.323 -206.138)"/>
      <path id="Path_142" data-name="Path 142" class="cls-9" d="M239.751,407.678c-22.567,7.215-43.792,10.822-58.976,10.822-.419-1.007-.755-2.013-1.174-3.188,2.181,6.963,3.859,12.081,4.53,14.262a28.141,28.141,0,0,0,1.174,3.188c15.184,0,36.325-3.607,58.976-10.822,19.715-6.292,35.99-16.862,47.735-26.342,0-.084-.084-.168-.084-.336-.671-2.181-2.349-7.3-4.53-14.262,0,.084.084.168.084.336C275.824,390.815,259.465,401.386,239.751,407.678Z" transform="translate(-141.197 -221.426)"/>
      <path id="Path_143" data-name="Path 143" class="cls-10" d="M164.507,259.866c-12.584,4.027-8.809,23.993-8.809,23.993S189.59,390.4,193.533,402.651c3.859,12.248,9.48,14.262,25.587,15.688a79.211,79.211,0,0,0,19.379-1.091c1.174-.419,2.265-.755,3.356-1.091,4.446-1.426,9.9-2.768,15.772-5.034a79.327,79.327,0,0,1-18.876,1.091c-16.023-1.426-21.644-3.44-25.587-15.688-3.859-12.248-37.835-118.791-37.835-118.791s-3.775-20.05,8.809-23.993c0,0,4.782-2.768,1.258-13.842l-19.631,6.208C169.289,257.1,164.507,259.866,164.507,259.866Z" transform="translate(-137.262 -198.698)"/>
      <path id="Path_144" data-name="Path 144" class="cls-11" d="M160.615,241.319c6.627-2.013,14.094-4.279,19.715-6.04L170.179,203.4c-5.872,1.929-13,4.362-19.379,7.047Z" transform="translate(-136.558 -192.819)"/>
      <path id="Path_145" data-name="Path 145" class="cls-4" d="M228.593,237.186s-4.279.419-7.718-7.131h0c-.084-.252-.252-.5-.336-.755h0c-.084-.252-.252-.5-.336-.755,0-.084-.084-.168-.084-.252-.084-.252-.168-.419-.252-.671-.084-.336-.252-.671-.336-.923l-9.312,2.936-24.5,7.8L152,248.092c.419,1.258.671,2.517.923,3.523l58.724-18.708c3.44,7.55,7.718,7.131,7.718,7.131,12.584-4.027,21.141,14.513,21.141,14.513s11.913,37.584,22.483,70.637l20.721,65.352c5.537-6.124,6.627-11.158,3.775-20.134-3.859-12.248-37.835-118.791-37.835-118.791S241.177,233.16,228.593,237.186Z" transform="translate(-136.751 -196.572)"/>
      <ellipse id="Ellipse_11" data-name="Ellipse 11" class="cls-4" cx="52.013" cy="5.117" rx="52.013" ry="5.117" transform="translate(176.202 214.107) rotate(-17.656)"/>
      <path id="Path_146" data-name="Path 146" class="cls-5" d="M378.521,260.841s-4.446.419-7.382-8.641l-27.6,8.809-27.6,8.809c2.852,9.06-1.007,11.325-1.007,11.325-10.319,3.272-7.215,19.631-7.215,19.631s27.684,87,30.872,96.979,7.8,11.661,20.889,12.836,22.231-3.02,29.362-5.285c7.383-2.349,18.2-4.53,28.188-13,9.983-8.557,12.835-12.5,9.648-22.567-3.188-9.983-30.872-96.979-30.872-96.979S388.839,257.569,378.521,260.841Z" transform="translate(-161.764 -200.679)"/>
      <path id="Path_147" data-name="Path 147" class="cls-6" d="M367.714,223.072c-7.383-1.091-24.413,4.279-33.221,7.047s-25.755,8.221-31.208,13.423a1.86,1.86,0,0,0-.5,1.93l6.627,20.889s24.916-7.55,33.305-10.235c8.473-2.685,33.137-10.906,33.137-10.906l-6.627-20.889A1.968,1.968,0,0,0,367.714,223.072Z" transform="translate(-161.023 -195.964)"/>
      <path id="Path_148" data-name="Path 148" class="cls-7" d="M387.865,395.745a120.456,120.456,0,0,0,39.01-21.56c0-.084-.084-.168-.084-.252-2.936-9.144-26.258-82.466-30.285-95.134-10.067,6.292-24.161,12.668-40.184,17.785-18.54,5.872-35.822,8.893-48.322,8.893,2.181,6.963,27.684,87,30.7,96.56.336.923.587,1.846.923,2.6C352.127,404.638,369.409,401.618,387.865,395.745Z" transform="translate(-161.88 -204.964)"/>
      <path id="Path_149" data-name="Path 149" class="cls-8" d="M371.131,301.132,351,307.507a7.482,7.482,0,1,0,4.53,14.262l20.134-6.376a7.482,7.482,0,0,0-4.53-14.262Z" transform="translate(-167.965 -208.504)"/>
      <path id="Path_150" data-name="Path 150" class="cls-9" d="M389.377,400.112C370.921,405.984,353.639,409,341.223,409a23.73,23.73,0,0,1-.923-2.6c1.846,5.7,3.1,9.9,3.691,11.661.336.923.587,1.846.923,2.6,12.416,0,29.7-2.936,48.154-8.893a120.454,120.454,0,0,0,39.01-21.56c0-.084-.084-.168-.084-.252-.587-1.762-1.93-5.956-3.691-11.661,0,.084.084.168.084.252C418.739,386.354,405.4,394.995,389.377,400.112Z" transform="translate(-167.083 -220.991)"/>
      <path id="Path_151" data-name="Path 151" class="cls-10" d="M327.831,279.343c-10.319,3.272-7.215,19.631-7.215,19.631s27.684,87,30.872,96.979,7.8,11.661,20.889,12.835a67.422,67.422,0,0,0,15.856-.923c.923-.336,1.846-.671,2.768-.923,3.607-1.175,8.137-2.265,12.919-4.111a59.685,59.685,0,0,1-15.436.839c-13.087-1.174-17.7-2.852-20.889-12.835s-30.872-96.979-30.872-96.979-3.1-16.359,7.215-19.631c0,0,3.859-2.265,1.007-11.325l-16.023,5.117C331.774,277.078,327.831,279.343,327.831,279.343Z" transform="translate(-163.841 -202.403)"/>
      <path id="Path_152" data-name="Path 152" class="cls-4" d="M380.2,260.841s-3.523.336-6.292-5.872h0a5.761,5.761,0,0,1-.252-.671h0c-.084-.252-.168-.419-.252-.671,0-.084-.084-.084-.084-.168a1.193,1.193,0,0,1-.168-.5l-.252-.755-7.55,2.433-20.05,6.376-27.6,8.809a25.327,25.327,0,0,1,.755,2.936l47.986-15.268c2.768,6.124,6.292,5.872,6.292,5.872,10.319-3.272,17.282,11.829,17.282,11.829s9.732,30.7,18.372,57.718l17.03,53.355c4.53-5.034,5.369-9.144,3.1-16.443-3.188-9.983-30.872-96.979-30.872-96.979S390.518,257.569,380.2,260.841Z" transform="translate(-163.442 -200.679)"/>
      <g id="Group_271" data-name="Group 271" transform="translate(135.023 12.649)">
        <g id="Group_270" data-name="Group 270" class="cls-12" transform="translate(0 22.192) rotate(-17.656)">
          <rect id="Rectangle_35" data-name="Rectangle 35" class="cls-11" width="13.423" height="36.745" transform="translate(15.283 6.939)"/>
        </g>
      </g>
    </g>
    <g id="confirmation_x5F_xx_large_1_" transform="translate(216.03 91.61)">
      <g id="confirmation_x5F_xx_large_4_">
        <g id="Ellipse_1_3_">
          <g id="Group_272" data-name="Group 272">
            <ellipse id="Ellipse_12" data-name="Ellipse 12" class="cls-13" cx="42.365" cy="42.365" rx="42.365" ry="42.365"/>
          </g>
        </g>
        <g id="check_x5F_xx_large_3_" transform="translate(23.406 27.013)">
          <g id="Group_273" data-name="Group 273">
            <path id="Path_154" data-name="Path 154" class="cls-14" d="M318.957,141.4l-21.9,21.9-7.3-7.3L285.4,160.36l11.661,11.661L323.4,145.762Z" transform="translate(-285.4 -141.4)"/>
          </g>
        </g>
      </g>
    </g>
  </g>
</svg>
