<svg xmlns="http://www.w3.org/2000/svg" width="48" height="48" viewBox="0 0 48 48">
  <defs>
    <style>
      .\33 3ae6aeb-9974-4920-906b-a647f66e8c4d {
        fill: #999;
      }
    </style>
  </defs>
  <title>pill</title>
  <g id="004dc964-65ad-4ceb-b537-0e675ddbc6ba" data-name="Layer 2">
    <g id="1c1ed86d-b1d5-4b17-bd96-650625ce129f" data-name="Layer 1">
      <g id="a7c3a2ea-c0aa-42ab-8352-1a1a22219aa7" data-name="pill (gel cap)">
        <path class="33ae6aeb-9974-4920-906b-a647f66e8c4d" d="M31.1,3.2,2.5,31.7a9.7,9.7,0,0,0,.4,13.4,9.7,9.7,0,0,0,13.4.4L44.8,16.9a9.8,9.8,0,0,0,.4-14.1A9.8,9.8,0,0,0,31.1,3.2ZM3.9,44.1c-3.4-3.4-3.3-9,.4-12.7L17.7,18c2.9-1.6,7.1-.7,10.1,2.3s3.8,7,2.3,9.9L16.6,43.7C12.9,47.3,7.3,47.5,3.9,44.1Z"/>
      </g>
    </g>
  </g>
</svg>
