<svg xmlns="http://www.w3.org/2000/svg" width="242.3" height="108" viewBox="0 0 242.3 108">
  <defs>
    <style>
      .\38 7b5c125-55ce-4e09-96d2-00f0b65a6815 {
        fill: #d0d0d0;
      }

      .\30 8127bc4-4c73-4f7f-8e23-2681602bfabe {
        fill: #cfcfcf;
      }

      .\32 db78408-e10c-45bf-bc7b-1718ef2bc421, .\38 1fa9ccf-fa54-4217-b5df-7b177f096560 {
        fill: #ababab;
      }

      .eaf37c78-f69e-46e1-aa74-277ae5807a40 {
        fill: #eaeaea;
      }

      .\35 1bc4eed-a4af-4048-8c17-b6a20d1e60a8 {
        fill: #5d5d5d;
      }

      .\34 cf1a102-247d-47f5-8ab7-2d47a6f703fa, .\35 aad3cb0-45bc-4c27-8a61-150829053db0 {
        fill: #fff;
      }

      .e7d7e011-9eb0-4237-9fad-e0e9ba2be4f9 {
        fill: #e9e9e9;
      }

      .\35 3725e5d-1dfe-4617-9571-be33ba4dc078 {
        fill: #919191;
      }

      .\31 67d0c25-1dd1-4121-905a-de6f68e30836 {
        fill: #bcbcbc;
      }

      .\36 88a299c-bfd8-42ca-8d8f-9d2dec5d35de {
        fill: #6e6e6e;
      }

      .d9fd7a7b-d04a-43cf-858c-07eb3b664ce5 {
        fill: #cecece;
      }

      .\38 033ac64-c438-478f-b78c-11fb3fa2139a {
        fill: #dedede;
      }

      .\37 6860544-ed36-4374-81b9-7b43bdaf1e49 {
        fill: #999;
      }

      .\38 9c1074f-7030-4985-9961-954ffa07f574 {
        fill: #202020;
      }

      .b23ff853-568f-44db-b13e-f297590580c7 {
        fill: #252525;
      }

      .a229e58d-a13b-4365-8d64-8c6d148408f7 {
        fill: #161616;
      }

      .\32 db78408-e10c-45bf-bc7b-1718ef2bc421 {
        opacity: 0.4;
      }

      .\33 663ab89-5fec-43fb-bca7-6ee932849dc1 {
        fill: #eee;
      }

      .\34 cf1a102-247d-47f5-8ab7-2d47a6f703fa {
        opacity: 0.2;
      }

      .a7d64044-0760-4f6b-b69d-847631f1d8f4 {
        fill: #505050;
      }

      .\36 e1241de-6025-4c50-b04b-c09e468b4d57 {
        fill: #2a2a2a;
      }

      .\31 05f7590-d70f-4787-bdb3-5b098fa1e214 {
        fill: #7c7c7c;
      }

      .\39 f49d332-51f7-4026-b2a6-11dbec769304 {
        fill: #6aade5;
      }

      .\37 3d4d697-d633-4745-b8b5-0d378c1792be {
        fill: #e41f35;
      }

      .\36 a078667-6934-42e6-b656-7697994e551e {
        fill: #f9f9f9;
      }

      .\33 1f9fadd-76e4-4f70-abda-1d03c1b1a3a1 {
        fill: #f4821c;
      }

      .\30 5a2be52-fb6f-4bc0-b357-e5831ebcc1d4 {
        fill: #f3f2f8;
      }

      .ebab2364-0545-417d-b9c3-1ec2e64840a5 {
        fill: #f0e8e1;
      }

      .a77f5a58-89fa-4c87-bcb0-98532da6da7d {
        fill: #d6cfc9;
      }
    </style>
  </defs>
  <title>pill bottles</title>
  <g id="0dc709b0-81ee-4af9-b013-6b027da3106a" data-name="Layer 2">
    <g id="f9d9e723-ab61-4c93-a0ee-8ef11be6f44e" data-name="trad bottle">
      <g>
        <path class="87b5c125-55ce-4e09-96d2-00f0b65a6815" d="M21.8,4V23.3a5.9,5.9,0,0,1-.2,1.4,4.5,4.5,0,0,1-1.3,1.7,3.8,3.8,0,0,1-2.5.9,4.4,4.4,0,0,1-2.5-.8l-.4-.4a3.4,3.4,0,0,1-.9-1.4,3.2,3.2,0,0,1-.3-1.4V4A4.3,4.3,0,0,1,15.3.8,4.4,4.4,0,0,1,17.8,0a3.8,3.8,0,0,1,2.5.9l.3.3A3.6,3.6,0,0,1,21.8,4Z"/>
        <rect class="08127bc4-4c73-4f7f-8e23-2681602bfabe" x="13" y="23" width="9.5" height="6.59"/>
        <rect class="81fa9ccf-fa54-4217-b5df-7b177f096560" x="12.5" y="21.6" width="10.6" height="3.14" rx="0.1" ry="0.1"/>
        <path class="eaf37c78-f69e-46e1-aa74-277ae5807a40" d="M35.6,45.9V95.5a2.8,2.8,0,0,1-2.8,2.7H2.8a2.8,2.8,0,0,1-1.6-.5A2.7,2.7,0,0,1,0,95.5V45.9a7.7,7.7,0,0,1,2-4.7l2.9-2.9,1.6-1.6L8,35.2h.1l.2-.3h19l.2.3L29,36.7l2.3,2.2,2.3,2.3A7.7,7.7,0,0,1,35.6,45.9Z"/>
        <path class="87b5c125-55ce-4e09-96d2-00f0b65a6815" d="M27.6,26.5v8.2a.8.8,0,0,1-.7.9H8.7a.9.9,0,0,1-.8-.9V26.5a.9.9,0,0,1,.8-.8H26.9A.8.8,0,0,1,27.6,26.5Z"/>
        <rect class="51bc4eed-a4af-4048-8c17-b6a20d1e60a8" y="49" width="35.6" height="11.82"/>
        <polygon class="81fa9ccf-fa54-4217-b5df-7b177f096560" points="67 41.3 66.8 41.5 66.8 41.5 66.8 41.5 64 38.7 64.2 38.4 66.8 41 67 41.3"/>
        <polygon class="81fa9ccf-fa54-4217-b5df-7b177f096560" points="100 38.7 99.7 39 97.2 41.5 97.2 41.5 97.2 41.5 97 41.3 97.2 41 99.2 39 99.8 38.4 100 38.7"/>
        <rect class="81fa9ccf-fa54-4217-b5df-7b177f096560" x="66.8" y="32.7" width="30.4" height="50.78"/>
        <rect class="81fa9ccf-fa54-4217-b5df-7b177f096560" x="66.8" y="37.5" width="30.4" height="50.77"/>
        <path class="87b5c125-55ce-4e09-96d2-00f0b65a6815" d="M96.6,25.9v51a2.3,2.3,0,0,1-2.3,2.3H69.7l-.8-.2a2.6,2.6,0,0,1-.9-.5,2.5,2.5,0,0,1-.6-1.6v-51a2.3,2.3,0,0,1,2.3-2.3H94.3a2,2,0,0,1,1.5.6A2.1,2.1,0,0,1,96.6,25.9Z"/>
        <g>
          <path d="M79.4,51.8a3.9,3.9,0,1,1-7.7,0,3.9,3.9,0,1,1,7.7,0Z"/>
          <path d="M75.5,47.9v7.8a3.9,3.9,0,0,1-3.8-3.9A3.8,3.8,0,0,1,75.5,47.9Z"/>
        </g>
        <g>
          <path d="M79.4,62.9a3.9,3.9,0,1,1-7.7,0,3.9,3.9,0,1,1,7.7,0Z"/>
          <path d="M75.5,59v7.8a3.9,3.9,0,0,1-3.8-3.9A3.8,3.8,0,0,1,75.5,59Z"/>
        </g>
        <g>
          <path d="M79.4,74a3.9,3.9,0,1,1-3.9-3.9A3.8,3.8,0,0,1,79.4,74Z"/>
          <path d="M75.5,70.1v7.7a3.9,3.9,0,0,1,0-7.7Z"/>
        </g>
        <g>
          <path d="M93,51.8a4,4,0,0,1-3.9,3.9,3.9,3.9,0,0,1-3.9-3.9,3.8,3.8,0,0,1,3.9-3.9A3.9,3.9,0,0,1,93,51.8Z"/>
          <path d="M89.1,47.9v7.8a3.9,3.9,0,0,1-3.9-3.9A3.8,3.8,0,0,1,89.1,47.9Z"/>
        </g>
        <g>
          <path d="M93,62.9a4,4,0,0,1-3.9,3.9,3.9,3.9,0,0,1-3.9-3.9A3.8,3.8,0,0,1,89.1,59,3.9,3.9,0,0,1,93,62.9Z"/>
          <path d="M89.1,59v7.8a3.9,3.9,0,0,1-3.9-3.9A3.8,3.8,0,0,1,89.1,59Z"/>
        </g>
        <g>
          <path d="M93,74a3.9,3.9,0,0,1-3.9,3.8,3.9,3.9,0,1,1,0-7.7A3.9,3.9,0,0,1,93,74Z"/>
          <path d="M89.1,70.1v7.7a3.9,3.9,0,1,1,0-7.7Z"/>
        </g>
        <path class="5aad3cb0-45bc-4c27-8a61-150829053db0" d="M79.1,29.2a3.9,3.9,0,0,1-3.9,3.9,4,4,0,0,1-3.9-3.9,3.9,3.9,0,0,1,3.9-3.9A3.8,3.8,0,0,1,79.1,29.2Z"/>
        <path class="5aad3cb0-45bc-4c27-8a61-150829053db0" d="M79.1,40.3a3.9,3.9,0,0,1-3.9,3.9,4,4,0,0,1-3.9-3.9,3.9,3.9,0,0,1,3.9-3.9A3.8,3.8,0,0,1,79.1,40.3Z"/>
        <g>
          <path class="e7d7e011-9eb0-4237-9fad-e0e9ba2be4f9" d="M79.1,51.4a3.9,3.9,0,0,1-3.9,3.9,4,4,0,0,1-3.9-3.9,3.9,3.9,0,0,1,3.9-3.9A3.8,3.8,0,0,1,79.1,51.4Z"/>
          <path class="5aad3cb0-45bc-4c27-8a61-150829053db0" d="M75.2,47.5v7.8a4,4,0,0,1-3.9-3.9A3.9,3.9,0,0,1,75.2,47.5Z"/>
        </g>
        <g>
          <path class="e7d7e011-9eb0-4237-9fad-e0e9ba2be4f9" d="M79.1,62.5a3.8,3.8,0,0,1-3.9,3.8,3.9,3.9,0,1,1,0-7.7A3.8,3.8,0,0,1,79.1,62.5Z"/>
          <path class="5aad3cb0-45bc-4c27-8a61-150829053db0" d="M75.2,58.6v7.7a3.9,3.9,0,1,1,0-7.7Z"/>
        </g>
        <g>
          <path class="e7d7e011-9eb0-4237-9fad-e0e9ba2be4f9" d="M79.1,73.5a3.8,3.8,0,0,1-3.9,3.9,3.9,3.9,0,0,1-3.9-3.9,4,4,0,0,1,3.9-3.9A3.9,3.9,0,0,1,79.1,73.5Z"/>
          <path class="5aad3cb0-45bc-4c27-8a61-150829053db0" d="M75.2,69.6v7.8a3.9,3.9,0,0,1-3.9-3.9A4,4,0,0,1,75.2,69.6Z"/>
        </g>
        <path class="5aad3cb0-45bc-4c27-8a61-150829053db0" d="M92.6,29.2a3.9,3.9,0,1,1-7.7,0,3.9,3.9,0,1,1,7.7,0Z"/>
        <path class="5aad3cb0-45bc-4c27-8a61-150829053db0" d="M92.6,40.3a3.9,3.9,0,1,1-7.7,0,3.9,3.9,0,1,1,7.7,0Z"/>
        <g>
          <path class="e7d7e011-9eb0-4237-9fad-e0e9ba2be4f9" d="M92.6,51.4a3.9,3.9,0,1,1-7.7,0,3.9,3.9,0,1,1,7.7,0Z"/>
          <path class="5aad3cb0-45bc-4c27-8a61-150829053db0" d="M88.8,47.5v7.8a3.9,3.9,0,0,1-3.9-3.9A3.8,3.8,0,0,1,88.8,47.5Z"/>
        </g>
        <g>
          <path class="e7d7e011-9eb0-4237-9fad-e0e9ba2be4f9" d="M92.6,62.5a3.9,3.9,0,0,1-7.7,0,3.9,3.9,0,1,1,7.7,0Z"/>
          <path class="5aad3cb0-45bc-4c27-8a61-150829053db0" d="M88.8,58.6v7.7a3.9,3.9,0,1,1,0-7.7Z"/>
        </g>
        <g>
          <path class="e7d7e011-9eb0-4237-9fad-e0e9ba2be4f9" d="M92.6,73.5a3.9,3.9,0,1,1-7.7,0,3.9,3.9,0,1,1,7.7,0Z"/>
          <path class="5aad3cb0-45bc-4c27-8a61-150829053db0" d="M88.8,69.6v7.8a3.8,3.8,0,0,1-3.9-3.9A3.9,3.9,0,0,1,88.8,69.6Z"/>
        </g>
        <rect class="81fa9ccf-fa54-4217-b5df-7b177f096560" x="66.8" y="41.5" width="30.4" height="50.78"/>
        <rect class="53725e5d-1dfe-4617-9571-be33ba4dc078" x="68.9" y="41.5" width="1.5" height="50.78"/>
        <rect class="53725e5d-1dfe-4617-9571-be33ba4dc078" x="70" y="41.5" width="3.9" height="50.78"/>
        <rect class="53725e5d-1dfe-4617-9571-be33ba4dc078" x="74.7" y="41.5" width="1.4" height="50.78"/>
        <path class="167d0c25-1dd1-4121-905a-de6f68e30836" d="M71.1,60.3V88.5a13.6,13.6,0,0,1-.6,2.9l-.6,1.3c-.1.4-.7.7-1.4,1H43.4c-.7-.3-1.3-.6-1.4-1a1.4,1.4,0,0,1-.2-.6l-.4-.7a13.5,13.5,0,0,1-.6-3.4V60.3l.4-3.3a1.9,1.9,0,0,1,.2-.8.6.6,0,0,1,.1-.4c.2-.5.4-1.1.7-1.7a21.7,21.7,0,0,1,2.5-3.9l1.9-2a4.4,4.4,0,0,1,3-1.4H62.3a4.4,4.4,0,0,1,3,1.4l1.9,2a21.7,21.7,0,0,1,2.5,3.9c.3.6.5,1.2.7,1.7a.8.8,0,0,1,.1.4,2.4,2.4,0,0,1,.2.8C70.9,58.8,71.1,60.3,71.1,60.3Z"/>
        <path class="87b5c125-55ce-4e09-96d2-00f0b65a6815" d="M64.4,31.4v4.5H47.5V31.4a.9.9,0,0,1,.9-.8H63.5A.9.9,0,0,1,64.4,31.4Z"/>
        <rect class="167d0c25-1dd1-4121-905a-de6f68e30836" x="49.3" y="38.4" width="13.3" height="8.41"/>
        <polygon class="81fa9ccf-fa54-4217-b5df-7b177f096560" points="64.4 35.9 62.6 38.4 49.3 38.4 47.5 35.9 64.4 35.9"/>
        <path class="5aad3cb0-45bc-4c27-8a61-150829053db0" d="M45.1,85.9a1.1,1.1,0,0,1-1.1,1h0a1.1,1.1,0,0,1-1-1V58a1,1,0,0,1,1-1h0a1,1,0,0,1,1.1,1Z"/>
        <path class="688a299c-bfd8-42ca-8d8f-9d2dec5d35de" d="M71.1,60.3V88.5a13.6,13.6,0,0,1-.6,2.9l-.6,1.3c-.1.4-.7.7-1.4,1H43.4c-.7-.3-1.3-.6-1.4-1a1.4,1.4,0,0,1-.2-.6l-.4-.7a13.5,13.5,0,0,1-.6-3.4V60.3l.4-3.3a1.9,1.9,0,0,1,.2-.8.6.6,0,0,1,.1-.4c.2-.5.4-1.1.7-1.7H69.7c.3.6.5,1.2.7,1.7a.8.8,0,0,1,.1.4,2.4,2.4,0,0,1,.2.8C70.9,58.8,71.1,60.3,71.1,60.3Z"/>
        <rect class="d9fd7a7b-d04a-43cf-858c-07eb3b664ce5" x="40.8" y="63.1" width="30.4" height="20.24"/>
        <path class="81fa9ccf-fa54-4217-b5df-7b177f096560" d="M150.1,14.3a2.2,2.2,0,0,1-1.1-1.8V8.8a1.2,1.2,0,0,1,1.2-1.2h13.5V21.5Z"/>
        <path class="87b5c125-55ce-4e09-96d2-00f0b65a6815" d="M173.8,8.8l.5,19.9H158.9l.5-19.9a1.3,1.3,0,0,1,1.3-1.2h11.8A1.3,1.3,0,0,1,173.8,8.8Z"/>
        <path class="87b5c125-55ce-4e09-96d2-00f0b65a6815" d="M182.8,43.6v45a2.6,2.6,0,0,1-1.3,2.2,2.8,2.8,0,0,1-1.3.4H152.9a2.6,2.6,0,0,1-2.5-2.6v-45a6.9,6.9,0,0,1,1.8-4.3l2.7-2.6,1.5-1.5,1.3-1.4.3-.2h17.2l.2.2,1.4,1.4,2.1,2,2.1,2.1A6.9,6.9,0,0,1,182.8,43.6Z"/>
        <path class="81fa9ccf-fa54-4217-b5df-7b177f096560" d="M175.5,26v7.4c0,.5-.3.8-.6.8H158.3a.7.7,0,0,1-.7-.8V26a.7.7,0,0,1,.7-.8h16.6C175.2,25.2,175.5,25.5,175.5,26Z"/>
        <rect class="8033ac64-c438-478f-b78c-11fb3fa2139a" x="150.4" y="47.3" width="32.3" height="37.22"/>
        <rect class="76860544-ed36-4374-81b9-7b43bdaf1e49" x="150.4" y="51.3" width="32.3" height="29.1"/>
        <rect class="89c1074f-7030-4985-9961-954ffa07f574" x="112.5" y="16.3" width="20.2" height="1.25"/>
        <path class="b23ff853-568f-44db-b13e-f297590580c7" d="M143.6,31V89.8a3.2,3.2,0,0,1-.9,2.3l-.9.7a3.2,3.2,0,0,1-1.4.3H104.7a3.2,3.2,0,0,1-3.2-3.3V31a8.5,8.5,0,0,1,2.3-5.5l3.5-3.5h0l1.9-1.9,1.2-1.2.9-.9h22.5l.9.9,1.2,1.2,2.7,2.6,2.7,2.8.5.5c0,.1.1.1.2.2a5.9,5.9,0,0,1,.4.8,1.6,1.6,0,0,1,.4.7h0c.1.1.1.3.2.4a6.5,6.5,0,0,1,.4,1.3c.1.3.1.6.2.8V31Z"/>
        <rect class="76860544-ed36-4374-81b9-7b43bdaf1e49" x="101.5" y="46.1" width="42.2" height="8.72"/>
        <rect class="76860544-ed36-4374-81b9-7b43bdaf1e49" x="101.5" y="64.4" width="42.2" height="8.73"/>
        <rect class="167d0c25-1dd1-4121-905a-de6f68e30836" x="101.5" y="54.5" width="42.2" height="14.99"/>
        <path class="a229e58d-a13b-4365-8d64-8c6d148408f7" d="M135.1,18a1.3,1.3,0,0,1-.4.9l-.6.2h-23l-.7-.2a1.3,1.3,0,0,1-.4-.9,1.1,1.1,0,0,1,.3-.7,1.1,1.1,0,0,1,.8-.3h23A1.1,1.1,0,0,1,135.1,18Z"/>
        <path class="51bc4eed-a4af-4048-8c17-b6a20d1e60a8" d="M133.6,4.9V16.2a.5.5,0,0,1-.5.4H112a.5.5,0,0,1-.5-.4V4.9a2.4,2.4,0,0,1,.2-.8,1.7,1.7,0,0,1,1.4-.8h19a1.7,1.7,0,0,1,1.3.8A2.4,2.4,0,0,1,133.6,4.9Z"/>
        <path class="2db78408-e10c-45bf-bc7b-1718ef2bc421" d="M242.3,36.3V93.4a10.7,10.7,0,0,1-1.5,5.5l-.3.4a6,6,0,0,1-5,2.9H193.6a6.4,6.4,0,0,1-5.1-2.9,10.1,10.1,0,0,1-1.8-5.9V36.3c0-9.8,6.1-17.7,13.7-17.7h.4V16.5h-5.4l-.3-.3H195v-.2h0c0-.1,0-.2-.1-.2V15c-.1,0-.1-.1-.1-.2a1.3,1.3,0,0,0-.1-.6V4.9c0-1.5.5-2.8,1.1-2.8h37.6c.6,0,1.1,1.3,1.1,2.8v9.7c-.1,0-.1.1-.1.2h0v.2h-.1v.4h0c0,.2-.1.3-.2.5h-.1c0,.1,0,.1-.1.1h-.1a.1.1,0,0,1-.1.1h-5.2v2.1h.3C236.2,18.6,242.3,26.5,242.3,36.3Z"/>
        <rect class="3663ab89-5fec-43fb-bca7-6ee932849dc1" x="200.8" y="14.8" width="27.5" height="3.84"/>
        <rect class="3663ab89-5fec-43fb-bca7-6ee932849dc1" x="204.1" y="14.8" width="24.2" height="3.84"/>
        <rect class="3663ab89-5fec-43fb-bca7-6ee932849dc1" x="202.4" y="14.8" width="24.2" height="3.84"/>
        <rect class="76860544-ed36-4374-81b9-7b43bdaf1e49" x="198" y="48.4" width="44.3" height="30.14"/>
        <rect class="76860544-ed36-4374-81b9-7b43bdaf1e49" x="186.7" y="48.4" width="44.3" height="30.13"/>
        <path class="76860544-ed36-4374-81b9-7b43bdaf1e49" d="M234.4,4.9v8.8c0,1.6-.5,2.8-1.1,2.8H195.7c-.6,0-1.1-1.2-1.1-2.8V4.9c0-1.5.5-2.8,1.1-2.8h37.6C233.9,2.1,234.4,3.4,234.4,4.9Z"/>
        <path class="4cf1a102-247d-47f5-8ab7-2d47a6f703fa" d="M240.5,99.3a6,6,0,0,1-5,2.9H193.6a6.4,6.4,0,0,1-5.1-2.9Z"/>
        <rect class="76860544-ed36-4374-81b9-7b43bdaf1e49" x="192.4" y="48.4" width="44.3" height="30.14"/>
        <rect class="167d0c25-1dd1-4121-905a-de6f68e30836" x="196.7" y="53.8" width="34.9" height="2.44"/>
        <rect class="167d0c25-1dd1-4121-905a-de6f68e30836" x="196.7" y="58.3" width="34.9" height="2.44"/>
        <rect class="167d0c25-1dd1-4121-905a-de6f68e30836" x="196.7" y="62.7" width="34.9" height="2.44"/>
        <rect class="167d0c25-1dd1-4121-905a-de6f68e30836" x="196.7" y="67.2" width="34.9" height="2.44"/>
        <rect class="167d0c25-1dd1-4121-905a-de6f68e30836" x="196.7" y="71.6" width="34.9" height="2.44"/>
        <polygon class="51bc4eed-a4af-4048-8c17-b6a20d1e60a8" points="142.4 61.5 142.1 61.8 145.8 65.5 146 65.2 142.4 61.5"/>
        <rect class="51bc4eed-a4af-4048-8c17-b6a20d1e60a8" x="134.7" y="65.2" width="31" height="31.01"/>
        <rect class="a7d64044-0760-4f6b-b69d-847631f1d8f4" x="140.4" y="65.2" width="31" height="31.01"/>
        <path class="eaf37c78-f69e-46e1-aa74-277ae5807a40" d="M130.9,67.2h15.6a5.8,5.8,0,0,1,5.7,5.7V88.5a5.6,5.6,0,0,1-5.7,5.6H130.9a5.6,5.6,0,0,1-5.6-5.6V72.9a5.6,5.6,0,0,1,5.6-5.7Z"/>
        <path class="6e1241de-6025-4c50-b04b-c09e468b4d57" d="M132.6,81.4a5.5,5.5,0,0,1,5.4,5.4,5.4,5.4,0,0,1-5.4,5.4,5.4,5.4,0,0,1-5.4-5.4A5.4,5.4,0,0,1,132.6,81.4Z"/>
        <path class="6e1241de-6025-4c50-b04b-c09e468b4d57" d="M132.6,69.2a5.4,5.4,0,1,1-5.4,5.3A5.4,5.4,0,0,1,132.6,69.2Z"/>
        <path class="6e1241de-6025-4c50-b04b-c09e468b4d57" d="M144.9,81.4a5.5,5.5,0,0,1,5.4,5.4,5.4,5.4,0,0,1-5.4,5.4,5.4,5.4,0,0,1-5.4-5.4A5.4,5.4,0,0,1,144.9,81.4Z"/>
        <path class="6e1241de-6025-4c50-b04b-c09e468b4d57" d="M144.9,69.2a5.4,5.4,0,1,1-5.4,5.3A5.4,5.4,0,0,1,144.9,69.2Z"/>
        <rect class="51bc4eed-a4af-4048-8c17-b6a20d1e60a8" x="145.5" y="65.2" width="31" height="31.01"/>
        <rect class="87b5c125-55ce-4e09-96d2-00f0b65a6815" x="145.5" y="91.7" width="31" height="1.36"/>
        <rect class="87b5c125-55ce-4e09-96d2-00f0b65a6815" x="145.5" y="89.8" width="31" height="1.36"/>
        <rect class="87b5c125-55ce-4e09-96d2-00f0b65a6815" x="145.5" y="87.9" width="31" height="1.36"/>
        <rect class="87b5c125-55ce-4e09-96d2-00f0b65a6815" x="145.5" y="68.9" width="31" height="10.31"/>
        <rect class="87b5c125-55ce-4e09-96d2-00f0b65a6815" x="154.3" y="53.1" width="28.6" height="1.82"/>
        <path class="105f7590-d70f-4787-bdb3-5b098fa1e214" d="M180.2,56.8a.6.6,0,0,1-.5-.6V51.7a.5.5,0,0,1,.5-.5h9.3v5.6Z"/>
        <rect class="87b5c125-55ce-4e09-96d2-00f0b65a6815" x="183.6" y="57.6" width="13.4" height="6.59"/>
        <path class="b23ff853-568f-44db-b13e-f297590580c7" d="M201.9,74v32.2a1.8,1.8,0,0,1-1.8,1.8H180.6a1.8,1.8,0,0,1-1.8-1.8V74a5.1,5.1,0,0,1,1.3-3.1L182,69l1-1,1.2-1.2h12.3l1.2,1.2,1.4,1.4,1.5,1.5A5.1,5.1,0,0,1,201.9,74Z"/>
        <rect class="eaf37c78-f69e-46e1-aa74-277ae5807a40" x="182.9" y="61.7" width="14.9" height="6.43" rx="0.5" ry="0.5"/>
        <path class="eaf37c78-f69e-46e1-aa74-277ae5807a40" d="M197.2,50.8v6.4l-.2.4c0,.1-.2.2-.3.2H184l-.4-.2c0-.1-.1-.3-.1-.4V50.8a.6.6,0,0,1,.5-.6h12.7A.6.6,0,0,1,197.2,50.8Z"/>
        <rect class="eaf37c78-f69e-46e1-aa74-277ae5807a40" x="153.4" y="52.4" width="6" height="3.19" rx="0.5" ry="0.5"/>
        <rect class="87b5c125-55ce-4e09-96d2-00f0b65a6815" x="178.8" y="76.2" width="23.1" height="10.78"/>
        <rect class="688a299c-bfd8-42ca-8d8f-9d2dec5d35de" x="178.8" y="86.8" width="23.1" height="15.82"/>
      </g>
      <path class="9f49d332-51f7-4026-b2a6-11dbec769304" d="M76.3,100.4V100h0V98.2h0V94.3h0V91h0V87.6h0V84.3h0V70.9h0a.7.7,0,0,0-.1-.5.1.1,0,0,1-.1-.1h0l-.2-.2H11.2l-2,.2H7.9a1.1,1.1,0,0,0-.7.6.7.7,0,0,0-.1.5h0v3.8l.2,1.8v7.8h0V93h0v3.3h.1v6.2l.2,1.5v1.6h0a.8.8,0,0,0,.2.5H75.5a1.1,1.1,0,0,0,.7-.6.7.7,0,0,0,.1-.5Z"/>
      <path class="73d4d697-d633-4745-b8b5-0d378c1792be" d="M11.7,88.7c1,.8,2.6.5,3.7-.8l5.4-6.3c1.1-1.3,1.1-3,.2-3.8a1.9,1.9,0,0,0-1.8-.3,3.2,3.2,0,0,0-1.8,1.1L12,85C10.9,86.3,10.8,87.9,11.7,88.7Z"/>
      <path class="6a078667-6934-42e6-b656-7697994e551e" d="M14.7,81.8l3.4,2.9,2.7-3.1c1.1-1.3,1.1-3,.2-3.8a1.9,1.9,0,0,0-1.8-.3,3.2,3.2,0,0,0-1.8,1.1Z"/>
      <path class="73d4d697-d633-4745-b8b5-0d378c1792be" d="M24.1,87.7c1,.8,2.6.5,3.7-.8l5.4-6.3c1.1-1.3,1.1-3,.2-3.8a1.9,1.9,0,0,0-1.8-.3,3.2,3.2,0,0,0-1.8,1.1L24.4,84C23.3,85.3,23.2,86.9,24.1,87.7Z"/>
      <path class="6a078667-6934-42e6-b656-7697994e551e" d="M27.1,80.8l3.4,2.9,2.7-3.1c1.1-1.3,1.1-3,.2-3.8a1.9,1.9,0,0,0-1.8-.3,3.2,3.2,0,0,0-1.8,1.1Z"/>
      <path class="73d4d697-d633-4745-b8b5-0d378c1792be" d="M36.5,86.7c1,.8,2.6.5,3.7-.8l5.4-6.3c1.1-1.3,1.1-3,.2-3.8a1.9,1.9,0,0,0-1.8-.3,3.2,3.2,0,0,0-1.8,1.1L36.8,83C35.7,84.3,35.6,85.9,36.5,86.7Z"/>
      <path class="6a078667-6934-42e6-b656-7697994e551e" d="M39.5,79.8l3.4,2.9,2.7-3.1c1.1-1.3,1.1-3,.2-3.8a1.9,1.9,0,0,0-1.8-.3,3.2,3.2,0,0,0-1.8,1.1Z"/>
      <path class="73d4d697-d633-4745-b8b5-0d378c1792be" d="M49,85.7c.9.8,2.5.5,3.6-.8L58,78.6c1.1-1.3,1.2-3,.2-3.8a1.9,1.9,0,0,0-1.8-.3,3.2,3.2,0,0,0-1.8,1.1L49.2,82C48.1,83.3,48,84.9,49,85.7Z"/>
      <path class="6a078667-6934-42e6-b656-7697994e551e" d="M51.9,78.8l3.4,2.9L58,78.6c1.1-1.3,1.2-3,.2-3.8a1.9,1.9,0,0,0-1.8-.3,3.2,3.2,0,0,0-1.8,1.1Z"/>
      <path class="73d4d697-d633-4745-b8b5-0d378c1792be" d="M61.4,84.7c.9.8,2.5.5,3.6-.8l5.4-6.3c1.1-1.3,1.2-3,.2-3.8a1.9,1.9,0,0,0-1.8-.3A3.2,3.2,0,0,0,67,74.6L61.6,81C60.5,82.3,60.4,83.9,61.4,84.7Z"/>
      <path class="6a078667-6934-42e6-b656-7697994e551e" d="M64.3,77.8l3.4,2.9,2.7-3.1c1.1-1.3,1.2-3,.2-3.8a1.9,1.9,0,0,0-1.8-.3A3.2,3.2,0,0,0,67,74.6Z"/>
      <path class="73d4d697-d633-4745-b8b5-0d378c1792be" d="M12.9,102.8c.9.8,2.6.5,3.6-.8l5.4-6.3c1.1-1.3,1.2-2.9.2-3.7a2,2,0,0,0-1.7-.4,2.8,2.8,0,0,0-1.9,1.2l-5.4,6.3C12,100.4,11.9,102,12.9,102.8Z"/>
      <path class="6a078667-6934-42e6-b656-7697994e551e" d="M15.8,96l3.4,2.9,2.7-3.2c1.1-1.3,1.2-2.9.2-3.7a2,2,0,0,0-1.7-.4,2.8,2.8,0,0,0-1.9,1.2Z"/>
      <path class="73d4d697-d633-4745-b8b5-0d378c1792be" d="M25.3,101.8c.9.8,2.6.5,3.6-.8l5.4-6.3c1.1-1.3,1.2-2.9.2-3.7a2,2,0,0,0-1.7-.4,2.8,2.8,0,0,0-1.9,1.2l-5.4,6.3C24.4,99.4,24.3,101,25.3,101.8Z"/>
      <path class="6a078667-6934-42e6-b656-7697994e551e" d="M28.2,95l3.4,2.9,2.7-3.2c1.1-1.3,1.2-2.9.2-3.7a2,2,0,0,0-1.7-.4,2.8,2.8,0,0,0-1.9,1.2Z"/>
      <path class="73d4d697-d633-4745-b8b5-0d378c1792be" d="M37.7,100.8c.9.9,2.6.5,3.6-.8l5.4-6.3c1.1-1.3,1.2-2.9.2-3.7a2,2,0,0,0-1.7-.4,2.8,2.8,0,0,0-1.9,1.2l-5.4,6.3C36.8,98.4,36.7,100,37.7,100.8Z"/>
      <path class="6a078667-6934-42e6-b656-7697994e551e" d="M40.6,94,44,96.9l2.7-3.2c1.1-1.3,1.2-2.9.2-3.7a2,2,0,0,0-1.7-.4,2.8,2.8,0,0,0-1.9,1.2Z"/>
      <path class="73d4d697-d633-4745-b8b5-0d378c1792be" d="M50.1,99.8c.9.9,2.6.5,3.6-.8l5.4-6.3c1.1-1.3,1.2-2.9.2-3.7a2,2,0,0,0-1.7-.4,2.8,2.8,0,0,0-1.9,1.2l-5.4,6.3C49.2,97.4,49.1,99,50.1,99.8Z"/>
      <path class="6a078667-6934-42e6-b656-7697994e551e" d="M53,93l3.4,2.9,2.7-3.2c1.1-1.3,1.2-2.9.2-3.7a2,2,0,0,0-1.7-.4,2.8,2.8,0,0,0-1.9,1.2Z"/>
      <path class="73d4d697-d633-4745-b8b5-0d378c1792be" d="M62.5,98.8c.9.9,2.6.5,3.6-.8l5.4-6.3c1.1-1.3,1.2-2.9.2-3.7a2,2,0,0,0-1.7-.4,3.3,3.3,0,0,0-1.9,1.2l-5.4,6.3C61.6,96.4,61.5,98,62.5,98.8Z"/>
      <path class="6a078667-6934-42e6-b656-7697994e551e" d="M65.4,92l3.4,2.9,2.7-3.2c1.1-1.3,1.2-2.9.2-3.7a2,2,0,0,0-1.7-.4,3.3,3.3,0,0,0-1.9,1.2Z"/>
      <g>
        <path class="31f9fadd-76e4-4f70-abda-1d03c1b1a3a1" d="M95.7,60.1c-6.2,0-11.3,1.1-11.3,2.3v38.2h0c.3,1.2,5.2,2.2,11.3,2.2s11.1-1,11.3-2.2h0V62.4C107,61.2,101.9,60.1,95.7,60.1Z"/>
        <rect class="05a2be52-fb6f-4bc0-b357-e5831ebcc1d4" x="84.4" y="68.1" width="22.5" height="22.54"/>
        <rect class="ebab2364-0545-417d-b9c3-1ec2e64840a5" x="83.6" y="60.1" width="24.3" height="2.03" rx="1" ry="1"/>
        <path class="a77f5a58-89fa-4c87-bcb0-98532da6da7d" d="M87.4,56H104a2.2,2.2,0,0,1,2.2,2.2v1.9a0,0,0,0,1,0,0H85.2a0,0,0,0,1,0,0V58.2A2.2,2.2,0,0,1,87.4,56Z"/>
        <path class="ebab2364-0545-417d-b9c3-1ec2e64840a5" d="M89.4,54.4H102a1.6,1.6,0,0,1,1.6,1.6v0a0,0,0,0,1,0,0H87.8a0,0,0,0,1,0,0v0A1.6,1.6,0,0,1,89.4,54.4Z"/>
      </g>
    </g>
  </g>
</svg>
