<svg xmlns="http://www.w3.org/2000/svg" width="469.3" height="108" viewBox="0 0 469.3 108">
  <defs>
    <style>
      .cefae98b-dcf9-458b-8219-3e1ac011dffd {
        fill: #333;
      }

      .\38 f6a5f8b-4205-4551-b2ac-c40de651fa7f {
        fill: #e41f35;
      }
    </style>
  </defs>
  <title>pill-bottles-simple-grey</title>
  <g id="4c4b935e-c708-4198-8f8a-63ba17f62e99" data-name="Layer 2">
    <g id="8a7b85bb-dcae-48e4-803c-875f987c3e1e" data-name="blister pack">
      <g>
        <path class="cefae98b-dcf9-458b-8219-3e1ac011dffd" d="M23,21.6H21.8V4a3.6,3.6,0,0,0-1.2-2.8L20.3.9A3.8,3.8,0,0,0,17.8,0a4.4,4.4,0,0,0-2.5.8A4.3,4.3,0,0,0,13.7,4V21.6H12.5v2.9H23.1V21.7Z"/>
        <path class="cefae98b-dcf9-458b-8219-3e1ac011dffd" d="M27.6,27.5v8.2a.8.8,0,0,1-.7.9H8.7a.9.9,0,0,1-.8-.9V27.5a.9.9,0,0,1,.8-.8H26.9A.8.8,0,0,1,27.6,27.5Z"/>
        <path class="cefae98b-dcf9-458b-8219-3e1ac011dffd" d="M33.6,42.8l-2.3-2.3L29,38.3l-1.5-1.5-.2-.2H8.3l-.2.2H8L6.5,38.3,4.9,39.9,2,42.8a7.7,7.7,0,0,0-2,4.7V97.1a2.8,2.8,0,0,0,2.8,2.8h30a2.9,2.9,0,0,0,2.8-2.8V47.5A7.7,7.7,0,0,0,33.6,42.8ZM33,61.9H2.5V50H33Z"/>
        <path class="cefae98b-dcf9-458b-8219-3e1ac011dffd" d="M461.4,4.9v8.8c0,1.6-.5,2.8-1.1,2.8H422.7c-.6,0-1.1-1.2-1.1-2.8V4.9c0-1.5.5-2.8,1.1-2.8h37.6C460.9,2.1,461.4,3.4,461.4,4.9Z"/>
        <path class="cefae98b-dcf9-458b-8219-3e1ac011dffd" d="M455.7,19.6H427.3c-7.5.1-13.6,8-13.6,17.7V94.4a10.1,10.1,0,0,0,1.8,5.9,6.4,6.4,0,0,0,5.1,2.9h41.9a6,6,0,0,0,5-2.9l.3-.4a10.7,10.7,0,0,0,1.5-5.5V37.3C469.3,27.6,463.2,19.7,455.7,19.6Z"/>
        <rect class="cefae98b-dcf9-458b-8219-3e1ac011dffd" x="385.8" y="56.6" width="13.4" height="3.14"/>
        <path class="cefae98b-dcf9-458b-8219-3e1ac011dffd" d="M404,74v32.2a1.8,1.8,0,0,1-1.8,1.8H382.7a1.8,1.8,0,0,1-1.8-1.8V74a5.1,5.1,0,0,1,1.3-3.1l1.9-1.9,1.1-1,1.1-1.2h12.3l1.2,1.2,1.4,1.4,1.5,1.5A5.1,5.1,0,0,1,404,74Z"/>
        <rect class="cefae98b-dcf9-458b-8219-3e1ac011dffd" x="385" y="61.7" width="14.9" height="6.43" rx="0.5" ry="0.5"/>
        <path class="cefae98b-dcf9-458b-8219-3e1ac011dffd" d="M399.3,49.8v6.4a.6.6,0,0,1-.1.4l-.4.2H386.1l-.3-.2a.8.8,0,0,1-.2-.4V49.8a.6.6,0,0,1,.5-.6h12.7A.6.6,0,0,1,399.3,49.8Z"/>
        <path class="cefae98b-dcf9-458b-8219-3e1ac011dffd" d="M338.4,14.3a2.2,2.2,0,0,1-1.1-1.8V8.8a1.2,1.2,0,0,1,1.2-1.2H352V21.5Z"/>
        <path class="cefae98b-dcf9-458b-8219-3e1ac011dffd" d="M362.1,8.6l.6,16.6H347.2l.6-16.6c0-.6.5-1,1.2-1h11.9A1.1,1.1,0,0,1,362.1,8.6Z"/>
        <path class="cefae98b-dcf9-458b-8219-3e1ac011dffd" d="M369.3,42.3l-2.1-2.1-2-2-1.4-1.4h0c0-.1.1-.2.1-.4V29a.7.7,0,0,0-.7-.8H346.6c-.3,0-.6.3-.6.8v7.4c0,.2,0,.3.1.4h0l-1.4,1.4-1.5,1.5-2.7,2.6a7.4,7.4,0,0,0-1.7,4.3v45a2.6,2.6,0,0,0,2.5,2.6h27.3a2.8,2.8,0,0,0,1.2-.4,2.4,2.4,0,0,0,1.3-2.2v-45A6.9,6.9,0,0,0,369.3,42.3Zm-1.4,45.2H342V50.3h25.9Z"/>
        <path class="cefae98b-dcf9-458b-8219-3e1ac011dffd" d="M294.4,86.6a5.3,5.3,0,0,1,5.1-5.2V80a5.2,5.2,0,0,1,0-10.4V68.2H285.9a4.8,4.8,0,0,0-3.2,1.3,4.8,4.8,0,0,0-1.4,3.4V88.5a4.5,4.5,0,0,0,4.6,4.6h13.6V91.8A5.3,5.3,0,0,1,294.4,86.6Zm-6.6,5.2a5.2,5.2,0,1,1,5.2-5.2A5.2,5.2,0,0,1,287.8,91.8Zm0-11.8a5.2,5.2,0,0,1-5.2-5.2,5.2,5.2,0,1,1,10.4,0A5.2,5.2,0,0,1,287.8,80Z"/>
        <polygon class="cefae98b-dcf9-458b-8219-3e1ac011dffd" points="326.4 65.2 320.7 65.2 301 65.2 297.4 61.5 297.1 61.8 300.5 65.2 295.4 65.2 289.7 65.2 289.7 67.2 300.5 67.2 300.5 94.1 289.7 94.1 289.7 96.2 295.4 96.2 300.5 96.2 320.7 96.2 326.4 96.2 331.5 96.2 331.5 93.1 331.5 91.7 331.5 91.2 331.5 89.8 331.5 89.3 331.5 87.9 331.5 79.2 331.5 68.9 331.5 65.2 326.4 65.2"/>
        <g>
          <rect class="cefae98b-dcf9-458b-8219-3e1ac011dffd" x="239.5" y="18.3" width="20.2" height="1.25"/>
          <path class="cefae98b-dcf9-458b-8219-3e1ac011dffd" d="M270.6,33V91.8a3.2,3.2,0,0,1-.9,2.3l-.9.7a3.2,3.2,0,0,1-1.4.3H231.7a3.2,3.2,0,0,1-3.2-3.3V33a8.5,8.5,0,0,1,2.3-5.5l3.5-3.5h0l1.9-1.9,1.2-1.2.9-.9h22.5l.9.9,1.2,1.2,2.7,2.6,2.7,2.8.5.5c0,.1.1.1.2.2a5.9,5.9,0,0,1,.4.8,1.6,1.6,0,0,1,.4.7h0c.1.1.1.3.2.4a6.5,6.5,0,0,1,.4,1.3c.1.3.1.6.2.8V33Z"/>
          <rect class="cefae98b-dcf9-458b-8219-3e1ac011dffd" x="228.5" y="48.1" width="42.2" height="8.72"/>
          <rect class="cefae98b-dcf9-458b-8219-3e1ac011dffd" x="228.5" y="66.4" width="42.2" height="8.73"/>
          <rect class="cefae98b-dcf9-458b-8219-3e1ac011dffd" x="228.5" y="56.5" width="42.2" height="14.99"/>
          <path class="cefae98b-dcf9-458b-8219-3e1ac011dffd" d="M262.1,20a1.3,1.3,0,0,1-.4.9l-.6.2H238l-.6-.2a1.3,1.3,0,0,1-.4-.9,1,1,0,0,1,1-1h23.1A1.1,1.1,0,0,1,262.1,20Z"/>
        </g>
        <path class="cefae98b-dcf9-458b-8219-3e1ac011dffd" d="M260.6,4.9V16.2a.5.5,0,0,1-.5.4H239a.5.5,0,0,1-.5-.4V4.9a2.4,2.4,0,0,1,.2-.8,1.7,1.7,0,0,1,1.4-.8h19a1.7,1.7,0,0,1,1.3.8A2.4,2.4,0,0,1,260.6,4.9Z"/>
        <path class="8f6a5f8b-4205-4551-b2ac-c40de651fa7f" d="M217.9,62.2H195.5a.3.3,0,0,0-.1.2v38.2h0c.3,1.2,5.2,2.2,11.3,2.2s11.1-1,11.3-2.2h0V62.4A.3.3,0,0,0,217.9,62.2Zm-1.4,28.4H196.9V68.1h19.6Z"/>
        <g>
          <rect class="8f6a5f8b-4205-4551-b2ac-c40de651fa7f" x="194.5" y="58.1" width="24.3" height="2.03" rx="1" ry="1"/>
          <path class="8f6a5f8b-4205-4551-b2ac-c40de651fa7f" d="M198.4,54H215a2.2,2.2,0,0,1,2.2,2.2v1.9a0,0,0,0,1,0,0H196.2a0,0,0,0,1,0,0V56.2A2.2,2.2,0,0,1,198.4,54Z"/>
          <path class="8f6a5f8b-4205-4551-b2ac-c40de651fa7f" d="M200.4,52.4H213a1.6,1.6,0,0,1,1.6,1.6v0a0,0,0,0,1,0,0H198.8a0,0,0,0,1,0,0v0a1.6,1.6,0,0,1,1.6-1.6Z"/>
        </g>
        <path class="cefae98b-dcf9-458b-8219-3e1ac011dffd" d="M139.4,29.4v4.5H122.5V29.4a.9.9,0,0,1,.9-.8h15.1A.9.9,0,0,1,139.4,29.4Z"/>
        <polygon class="cefae98b-dcf9-458b-8219-3e1ac011dffd" points="139.4 33.9 137.6 36.4 124.3 36.4 122.5 33.9 139.4 33.9"/>
        <path class="cefae98b-dcf9-458b-8219-3e1ac011dffd" d="M145.7,57a2.4,2.4,0,0,0-.2-.8.8.8,0,0,0-.1-.4c-.2-.5-.4-1.1-.7-1.7a21.7,21.7,0,0,0-2.5-3.9l-1.9-2a4.9,4.9,0,0,0-3-1.4h.3V38.4H124.3v8.4h.3a4.9,4.9,0,0,0-3,1.4l-1.9,2a21.7,21.7,0,0,0-2.5,3.9,7.7,7.7,0,0,0-.7,1.7.6.6,0,0,0-.1.4,1.9,1.9,0,0,0-.2.8l-.4,3.3V88a13.5,13.5,0,0,0,.6,3.4l.4.7a1.4,1.4,0,0,0,.2.6c.1.4.7.7,1.4,1h25.1c.7-.3,1.3-.6,1.4-1l.6-1.3a13.6,13.6,0,0,0,.6-2.9V60.3S145.9,58.8,145.7,57ZM120.1,85.9a1.1,1.1,0,0,1-1.1,1,1.1,1.1,0,0,1-1-1V58a1,1,0,0,1,1-1,1,1,0,0,1,1.1,1Z"/>
        <path class="8f6a5f8b-4205-4551-b2ac-c40de651fa7f" d="M184.1,26a4.1,4.1,0,0,0-3.3-1.5H165.2a4.7,4.7,0,0,0-4.7,4.7V42.8h1.4a5.2,5.2,0,0,1,5.2-5.1,5.1,5.1,0,0,1,5.1,5.1h1.5a5.2,5.2,0,0,1,10.4,0h1.3V29.2A4.2,4.2,0,0,0,184.1,26Zm-17,10.2a5.2,5.2,0,1,1,0-10.3,5.2,5.2,0,1,1,0,10.3Zm11.8,0a5.2,5.2,0,1,1,0-10.3,5.2,5.2,0,1,1,0,10.3Z"/>
        <polygon class="8f6a5f8b-4205-4551-b2ac-c40de651fa7f" points="188.5 69.6 188.5 64 188.5 44.3 192.1 40.7 191.9 40.4 188.5 43.8 188.5 38.6 188.5 33 186.4 33 186.4 43.8 159.5 43.8 159.5 33 157.5 33 157.5 38.6 157.5 43.8 157.5 64 157.5 69.6 157.5 96.8 160.6 96.8 162 96.8 162.5 96.8 163.8 96.8 164.4 96.8 165.7 96.8 174.5 96.8 184.8 96.8 188.5 96.8 188.5 69.6"/>
        <path class="cefae98b-dcf9-458b-8219-3e1ac011dffd" d="M111.3,100.4V100h0V98.2h0V94.3h0V91h0V87.6h0V84.3h0V70.9h0a.7.7,0,0,0-.1-.5.1.1,0,0,1-.1-.1h0l-.2-.2H46.2l-2,.2H42.9a1.1,1.1,0,0,0-.7.6.7.7,0,0,0-.1.5h0v3.8l.2,1.8v7.8h0V93h0v3.3h.1v6.2l.2,1.5v1.6h0a.8.8,0,0,0,.2.5h65.8a1.1,1.1,0,0,0,.7-.6.7.7,0,0,0,.1-.5ZM46.7,88.7c-.9-.8-.8-2.4.3-3.7l5.4-6.4a3.2,3.2,0,0,1,1.8-1.1,1.9,1.9,0,0,1,1.8.3c.9.8.9,2.5-.2,3.8l-5.4,6.3C49.3,89.2,47.7,89.5,46.7,88.7Zm10.2,7L51.5,102c-1,1.3-2.7,1.6-3.6.8s-.9-2.4.2-3.7l5.4-6.3a2.8,2.8,0,0,1,1.9-1.2,2,2,0,0,1,1.7.4C58.1,92.8,58,94.4,56.9,95.7ZM59.4,84l5.4-6.4a3.2,3.2,0,0,1,1.8-1.1,1.9,1.9,0,0,1,1.8.3c.9.8.9,2.5-.2,3.8l-5.4,6.3c-1.1,1.3-2.7,1.6-3.7.8S58.3,85.3,59.4,84Zm9.9,10.7L63.9,101c-1,1.3-2.7,1.6-3.6.8s-.9-2.4.2-3.7l5.4-6.3a2.8,2.8,0,0,1,1.9-1.2,2,2,0,0,1,1.7.4C70.5,91.8,70.4,93.4,69.3,94.7Zm2.2-8c-.9-.8-.8-2.4.3-3.7l5.4-6.4A3.2,3.2,0,0,1,79,75.5a1.9,1.9,0,0,1,1.8.3c.9.8.9,2.5-.2,3.8l-5.4,6.3C74.1,87.2,72.5,87.5,71.5,86.7Zm10.2,7L76.3,100c-1,1.3-2.7,1.7-3.6.8s-.9-2.4.2-3.7l5.4-6.3a2.8,2.8,0,0,1,1.9-1.2,2,2,0,0,1,1.7.4C82.9,90.8,82.8,92.4,81.7,93.7Zm2.3-8c-1-.8-.9-2.4.2-3.7l5.4-6.4a3.2,3.2,0,0,1,1.8-1.1,1.9,1.9,0,0,1,1.8.3c.9.8.9,2.5-.2,3.8l-5.4,6.3C86.5,86.2,84.9,86.5,84,85.7Zm10.1,7L88.7,99c-1,1.3-2.7,1.7-3.6.8s-.9-2.4.2-3.7l5.4-6.3a2.8,2.8,0,0,1,1.9-1.2,2,2,0,0,1,1.7.4C95.3,89.8,95.2,91.4,94.1,92.7ZM96.6,81l5.4-6.4a3.2,3.2,0,0,1,1.8-1.1,1.9,1.9,0,0,1,1.8.3c1,.8.9,2.5-.2,3.8L100,83.9c-1.1,1.3-2.7,1.6-3.6.8S95.5,82.3,96.6,81Zm9.9,10.7L101.1,98c-1,1.3-2.7,1.7-3.6.8s-.9-2.4.2-3.7l5.4-6.3a3.3,3.3,0,0,1,1.9-1.2,2,2,0,0,1,1.7.4C107.7,88.8,107.6,90.4,106.5,91.7Z"/>
        <g>
          <path class="cefae98b-dcf9-458b-8219-3e1ac011dffd" d="M51.1,81.7l2-2.4a3.1,3.1,0,0,1,1.3-.8h.4l.6.2c.4.4.4,1.4-.4,2.3l-2,2.4Z"/>
          <path class="cefae98b-dcf9-458b-8219-3e1ac011dffd" d="M63.5,80.7l2-2.4a3.1,3.1,0,0,1,1.3-.8h.4l.6.2c.4.4.4,1.4-.4,2.3l-2,2.4Z"/>
          <path class="cefae98b-dcf9-458b-8219-3e1ac011dffd" d="M75.9,79.7l2-2.4a3.1,3.1,0,0,1,1.3-.8h.4l.6.2c.4.4.4,1.4-.4,2.3l-2,2.4Z"/>
          <path class="cefae98b-dcf9-458b-8219-3e1ac011dffd" d="M88.3,78.7l2-2.4a2.9,2.9,0,0,1,1.4-.8H92l.6.2c.4.4.4,1.4-.4,2.3l-2,2.4Z"/>
          <path class="cefae98b-dcf9-458b-8219-3e1ac011dffd" d="M100.7,77.7l2-2.4a3.1,3.1,0,0,1,1.3-.8h.4l.6.2c.4.4.4,1.4-.4,2.3l-2,2.4Z"/>
          <path class="cefae98b-dcf9-458b-8219-3e1ac011dffd" d="M52.2,95.8l2.1-2.4a2.2,2.2,0,0,1,1.3-.8h.3l.6.2a1.9,1.9,0,0,1-.3,2.3l-2.1,2.5Z"/>
          <path class="cefae98b-dcf9-458b-8219-3e1ac011dffd" d="M64.6,94.8l2.1-2.4a2.2,2.2,0,0,1,1.3-.8h.3l.6.2a1.9,1.9,0,0,1-.3,2.3l-2.1,2.5Z"/>
          <path class="cefae98b-dcf9-458b-8219-3e1ac011dffd" d="M77,93.8l2.1-2.4a2.2,2.2,0,0,1,1.3-.8h.3a1.1,1.1,0,0,1,.6.2A1.9,1.9,0,0,1,81,93l-2.1,2.5Z"/>
          <path class="cefae98b-dcf9-458b-8219-3e1ac011dffd" d="M89.4,92.8l2.1-2.4a2.2,2.2,0,0,1,1.3-.8h.3a1.1,1.1,0,0,1,.6.2,1.9,1.9,0,0,1-.3,2.3l-2.1,2.5Z"/>
          <path class="cefae98b-dcf9-458b-8219-3e1ac011dffd" d="M101.8,91.8l2.1-2.4a2.2,2.2,0,0,1,1.3-.8h.3a1.1,1.1,0,0,1,.6.2,1.9,1.9,0,0,1-.3,2.3l-2.1,2.5Z"/>
        </g>
      </g>
    </g>
  </g>
</svg>
