<svg xmlns="http://www.w3.org/2000/svg" viewBox="1132 1132.603 255.548 235.397">
  <defs>
    <style>
      .cls-1 {
        fill: #e41f35;
      }

      .cls-2 {
        fill: #f3f3f3;
      }

      .cls-3, .cls-4 {
        fill: #fff;
      }

      .cls-4 {
        opacity: 0.481;
      }

      .cls-5 {
        fill: #d6cfc9;
      }

      .cls-6 {
        fill: #1d83d8;
      }

      .cls-7 {
        opacity: 0.1;
      }
    </style>
  </defs>
  <g id="Group_309" data-name="Group 309" transform="translate(631.438 64)">
    <g id="red_pill_2_" transform="translate(574.427 1135.846) rotate(-30)">
      <path id="Path_128" data-name="Path 128" class="cls-1" d="M45.161,0H0V44.2H45.161a22.1,22.1,0,0,0,22.1-22.1h0A22.1,22.1,0,0,0,45.161,0Z" transform="translate(67.223 0)"/>
      <path id="Path_129" data-name="Path 129" class="cls-2" d="M67.223,0H22.1A22.1,22.1,0,0,0,0,22.1H0A22.1,22.1,0,0,0,22.1,44.2H67.223Z" transform="translate(0 0)"/>
      <path id="Path_130" data-name="Path 130" class="cls-3" d="M53.041,0H4.612A4.6,4.6,0,0,0,0,4.612H0A4.6,4.6,0,0,0,4.612,9.224H53.041Z" transform="translate(14.183 28.634)"/>
      <path id="Path_131" data-name="Path 131" class="cls-4" d="M0,9.224H48.428a4.6,4.6,0,0,0,4.612-4.612h0A4.6,4.6,0,0,0,48.428,0H0Z" transform="translate(67.223 28.634)"/>
    </g>
    <g id="Group_268" data-name="Group 268" transform="translate(500.562 1190.771)">
      <path id="Path_132" data-name="Path 132" class="cls-5" d="M17.681,52.477c-2.343-14.057,4.061-27.489,7.341-33.268,5.623-.781,11.4-2.03,16.243-5.467C58.758,1.872,77.189-1.564,88.746.622c15.775,2.968,17.493,8.746,36.235,14.057a134.391,134.391,0,0,0,24.521,3.9c6.56,1.718,13.276,3.28,20.148,3.28,5.779,0,20.3,0,18.274,9.684-.469,2.187-1.406,5.154-3.592,6.247-9.84,5.623-24.209,8.122-35.454,6.716-12.807-1.718-28.27-3.28-40.3,2.655-1.093.625,2.343,1.093,3.28.625,18.274-9.059,39.359,4.061,58.57-1.562,6.56-1.874,19.211-4.529,19.836-13.432.625-9.215-7.5-12.495-15.463-13.276-3.748-.312-7.185-.625-10.777-.937a9.009,9.009,0,0,0,2.187-.469c14.369-3.748,24.521-12.495,30.769-12.807,10.933-.625,9.371,4.373,9.371,4.373s9.059-8.59,15.775-5c7.653,4.061,4.373,7.966,4.373,7.966s5.467-5.623,12.339-2.968c6.716,2.655,5,7.341,5,7.341,3.592,2.968,2.03,5.935-.312,7.028-4.061,1.874-19.836,15.15-22.335,16.4-2.343,1.249-18.9,11.245-21.866,14.213-10.152,10.152-30.456,11.558-46.388,18.118-24.521,10-61.069-3.436-79.968-8.122-12.183-3.124-31.237,3.592-43.889,8.746A35.633,35.633,0,0,1,17.681,52.477Z" transform="translate(9.585 -0.004)"/>
      <path id="Path_133" data-name="Path 133" class="cls-6" d="M26.215,71.326c1.562-.469,5.31-2.187,10.152-4.061a37.427,37.427,0,0,1-11.245-21.4C22.936,32.123,28.4,19.16,31.994,12.6,17.781,14.162,3.881,13.381.913,32.9-4.553,68.671,17.157,74.138,26.215,71.326ZM7.629,31.5a4.135,4.135,0,0,1,4.061-4.061,4.061,4.061,0,1,1,0,8.122A3.937,3.937,0,0,1,7.629,31.5Z" transform="translate(-0.043 7.073)"/>
      <ellipse id="Ellipse_9" data-name="Ellipse 9" class="cls-7" cx="89.183" cy="7.809" rx="89.183" ry="7.809" transform="translate(26.798 97.611)"/>
    </g>
  </g>
</svg>
