<?xml version="1.0" encoding="utf-8"?>
<!-- Generator: Adobe Illustrator 22.0.1, SVG Export Plug-In . SVG Version: 6.00 Build 0)  -->
<svg version="1.1" id="Group_351" xmlns="http://www.w3.org/2000/svg" xmlns:xlink="http://www.w3.org/1999/xlink" x="0px" y="0px"
	 viewBox="0 0 370 306" style="enable-background:new 0 0 370 306;" xml:space="preserve">
<style type="text/css">
	.st0{fill:#B5D6F2;}
	.st1{fill:#EBEBEB;}
	.st2{fill:#00ADA4;}
	.st3{fill:#FFFFFF;}
	.st4{fill:#847974;}
	.st5{opacity:0.3;fill:#D6CFC9;enable-background:new    ;}
	.st6{fill:#D3E8F9;}
	.st7{opacity:0.1;enable-background:new    ;}
	.st8{fill:#AFAAA7;}
	.st9{fill:#1D83D8;}
	.st10{fill:#6AADE5;}
	.st11{fill:#FFE670;}
</style>
<circle id="Ellipse_7" class="st0" cx="185" cy="153" r="153"/>
<g id="Group_350" transform="translate(390 797)">
	<rect id="Rectangle_48" x="-380.4" y="-706.1" class="st1" width="350.9" height="172.2"/>
	<path id="Path_602" class="st2" d="M-21.2-705.5h-367.6c-0.7,0-1.2-0.5-1.2-1.2c0,0,0,0,0,0v-3.9c0-0.7,0.5-1.2,1.2-1.2
		c0,0,0,0,0,0h367.6c0.7,0,1.2,0.5,1.2,1.2c0,0,0,0,0,0v3.9C-20-706.1-20.5-705.5-21.2-705.5z"/>
	<rect id="Rectangle_49" x="-273.9" y="-754" class="st3" width="137.8" height="220.1"/>
	<path id="Path_603" class="st2" d="M-130.9-747.6h-148.1c-0.7,0-1.2-0.5-1.2-1.2c0,0,0,0,0,0v-3.9c0-0.7,0.5-1.2,1.2-1.2
		c0,0,0,0,0,0H-131c0.7,0,1.2,0.5,1.2,1.2c0,0,0,0,0,0v3.9C-129.7-748.2-130.2-747.6-130.9-747.6
		C-130.9-747.6-130.9-747.6-130.9-747.6z"/>
	<path id="Path_605" class="st4" d="M-185.9-533.9h-38.3v-63.4c0-0.2,0.2-0.4,0.4-0.4c0,0,0,0,0,0h37.5c0.2,0,0.4,0.2,0.4,0.4
		c0,0,0,0,0,0L-185.9-533.9L-185.9-533.9z"/>
	<circle id="Ellipse_58" class="st5" cx="-191.6" cy="-562.8" r="3.2"/>
	<rect id="Rectangle_50" x="-372" y="-609.3" class="st6" width="89.2" height="47.6"/>
	<rect id="Rectangle_51" x="-372" y="-609.3" class="st7" width="89.2" height="3"/>
	<rect id="Rectangle_52" x="-303.7" y="-611.6" class="st8" width="3" height="51.7"/>
	<rect id="Rectangle_53" x="-328.7" y="-611.6" class="st8" width="3" height="51.7"/>
	<path id="Path_606" class="st9" d="M-332.9-613.6c0,6.6-5.3,11.9-11.9,11.9s-11.9-5.3-11.9-11.9l12-26.6h13.7L-332.9-613.6z"/>
	<rect id="Rectangle_54" x="-362.5" y="-644.3" class="st9" width="70.7" height="4.2"/>
	<path id="Path_607" class="st10" d="M-374.8-613.4l12.2-26.8h17.8c0,0-8.1,19.8-9.3,26.8c-0.6,3.8-3,11.7-9.9,11.7
		C-374.8-601.7-374.8-612.9-374.8-613.4z"/>
	<path id="Path_608" class="st10" d="M-362.5-640.2v-4.2l17.8,0.2v4L-362.5-640.2z"/>
	<path id="Path_609" class="st9" d="M-321.2-613.6c0,6.6,5.3,11.9,11.9,11.9c6.6,0,11.9-5.3,11.9-11.9l-12-26.6h-13.7L-321.2-613.6z
		"/>
	<path id="Path_610" class="st10" d="M-279.3-613.4l-12.5-26.8h-17.6c0,0,8.1,19.8,9.3,26.8c0.6,3.8,3,11.7,9.9,11.7
		C-279.3-601.7-279.3-612.9-279.3-613.4z"/>
	<path id="Path_611" class="st10" d="M-291.8-640.2v-4.2l-17.8,0.2v4L-291.8-640.2z"/>
	<path id="Path_612" class="st10" d="M-318.1-613.6l-4.1-26.6h-8.9l-4.6,26.6c0,0-1.3,11.9,8.8,11.9S-318.1-613.6-318.1-613.6z"/>
	<rect id="Rectangle_55" x="-331" y="-644.3" class="st10" width="8.9" height="4.2"/>
	<rect id="Rectangle_56" x="-375" y="-561.7" class="st4" width="95.1" height="3"/>
	<rect id="Rectangle_57" x="-127.7" y="-609.3" class="st6" width="89.2" height="47.6"/>
	<rect id="Rectangle_58" x="-127.7" y="-609.3" class="st7" width="89.2" height="3"/>
	<rect id="Rectangle_59" x="-109.9" y="-611.6" class="st8" width="3" height="51.7"/>
	<rect id="Rectangle_60" x="-59.4" y="-611.6" class="st8" width="3" height="51.7"/>
	<rect id="Rectangle_61" x="-84.3" y="-611.6" class="st8" width="3" height="51.7"/>
	<path id="Path_613" class="st9" d="M-88.6-613.6c0,6.6-5.3,11.9-11.9,11.9c-6.6,0-11.9-5.3-11.9-11.9l0,0l12-26.6h13.7L-88.6-613.6
		z"/>
	<rect id="Rectangle_62" x="-118.2" y="-644.3" class="st9" width="70.7" height="4.2"/>
	<path id="Path_614" class="st10" d="M-130.4-613.4l12.2-26.8h17.8c0,0-8.1,19.8-9.3,26.8c-0.6,3.8-3,11.7-9.9,11.7
		C-130.4-601.7-130.4-612.9-130.4-613.4z"/>
	<path id="Path_615" class="st10" d="M-118.2-640.2v-4.2l17.8,0.2v4L-118.2-640.2z"/>
	<path id="Path_616" class="st9" d="M-76.8-613.6c0,6.6,5.3,11.9,11.9,11.9c6.6,0,11.9-5.3,11.9-11.9l0,0l-12-26.6h-13.6
		L-76.8-613.6z"/>
	<path id="Path_617" class="st10" d="M-35-613.4l-12.5-26.8H-65c0,0,8.1,19.8,9.3,26.8c0.6,3.8,3,11.7,9.9,11.7
		C-35-601.7-35-612.9-35-613.4z"/>
	<path id="Path_618" class="st10" d="M-47.5-640.2v-4.2l-17.8,0.2v4L-47.5-640.2z"/>
	<path id="Path_619" class="st10" d="M-73.7-613.6l-4.1-26.6h-8.9l-4.6,26.6c0,0-1.3,11.9,8.8,11.9S-73.7-613.6-73.7-613.6z"/>
	<rect id="Rectangle_63" x="-86.7" y="-644.3" class="st10" width="8.9" height="4.2"/>
	<rect id="Rectangle_64" x="-130.7" y="-561.7" class="st4" width="95.1" height="3"/>
</g>
<g>
	<path class="st11" d="M185,82.6c-23.2,0-42,18.8-42,42s18.8,42,42,42s42-18.8,42-42S208.2,82.6,185,82.6z M185,161.4
		c-20.3,0-36.8-16.5-36.8-36.8s16.5-36.8,36.8-36.8s36.8,16.5,36.8,36.8S205.3,161.4,185,161.4z"/>
	<polygon class="st11" points="190.3,112.7 189.5,107.9 193,104.6 193.9,103.6 187.8,102.8 185.1,97.3 185.1,97.3 185.1,97.3 
		182.4,102.8 176.3,103.6 180.7,107.9 179.6,114 185.1,111.1 185.1,111.1 185.1,111.1 188,112.7 190.5,114 190.5,114 190.5,114 	"/>
	<polygon class="st11" points="172.7,127.1 171.9,122.3 175.4,119 176.3,118.1 170.2,117.2 167.5,111.7 167.5,111.7 167.5,111.7 
		164.8,117.2 158.7,118.1 163.1,122.3 162,128.4 167.5,125.5 167.5,125.5 167.5,125.5 170.4,127.1 172.9,128.4 172.9,128.4 
		172.9,128.4 	"/>
	<polygon class="st11" points="179.7,147.5 178.9,142.7 182.3,139.3 183.3,138.4 177.2,137.5 174.5,132 174.5,132 174.5,132 
		171.7,137.5 165.7,138.4 170.1,142.7 169,148.8 174.5,145.9 174.5,145.9 174.5,145.9 177.4,147.5 179.9,148.8 179.9,148.8 
		179.9,148.8 	"/>
	<polygon class="st11" points="201.5,147.5 200.7,142.7 204.2,139.3 205.1,138.4 199,137.5 196.3,132 196.3,132 196.3,132 
		193.6,137.5 187.5,138.4 191.9,142.7 190.9,148.8 196.3,145.9 196.3,145.9 196.3,145.9 199.2,147.5 201.7,148.8 201.7,148.8 
		201.7,148.8 	"/>
	<polygon class="st11" points="208.2,127.1 207.4,122.3 210.8,119 211.8,118.1 205.7,117.2 203,111.7 203,111.7 203,111.7 
		200.3,117.2 194.2,118.1 198.6,122.3 197.5,128.4 203,125.5 203,125.5 203,125.5 205.9,127.1 208.4,128.4 208.4,128.4 208.4,128.4 
			"/>
</g>
</svg>
