<svg xmlns="http://www.w3.org/2000/svg" width="43.9" height="48" viewBox="0 0 43.9 48">
  <defs>
    <style>
      .dd12b2f1-e421-4555-b569-9c94481e5515 {
        fill: #999;
      }
    </style>
  </defs>
  <title>triangle-and-refresh</title>
  <g id="2c217eaa-49b3-4875-9507-5117fdba12bf" data-name="Layer 2">
    <g id="0bb80e33-5018-443b-9ede-8a11c8de9661" data-name="Layer 1">
      <g id="1807e0a9-8ac0-42db-89bf-38bbb534a4c4" data-name="Triangle and Arrows">
        <g>
          <path class="dd12b2f1-e421-4555-b569-9c94481e5515" d="M24.5,45.2l-8.1-8.5L15.5,40A17.4,17.4,0,0,1,4.7,24,17.3,17.3,0,0,1,17.1,7.5a2.4,2.4,0,0,0,1.6-3,2.5,2.5,0,0,0-2.9-1.6,22,22,0,0,0-1.7,41.6l-1,3.5Z"/>
          <path class="dd12b2f1-e421-4555-b569-9c94481e5515" d="M29.7,3.5l1-3.5L19.3,2.8l8.1,8.5,1-3.3a17.3,17.3,0,0,1-1.6,32.6,2.4,2.4,0,0,0-1.7,2.9,2.5,2.5,0,0,0,2.3,1.7h.7A21.9,21.9,0,0,0,29.7,3.5"/>
        </g>
        <polygon class="dd12b2f1-e421-4555-b569-9c94481e5515" points="11.3 31.6 21.7 13.6 32.1 31.6 11.3 31.6"/>
      </g>
    </g>
  </g>
</svg>
